<?xml version="1.0" encoding="UTF-8"?>
<svg id="Calque_2" data-name="Calque 2" xmlns="http://www.w3.org/2000/svg" viewBox="0 0 431.87 579.96">
  <defs>
    <style>
      .cls-1 {
        letter-spacing: -.05em;
      }

      .cls-2 {
        letter-spacing: 0em;
      }

      .cls-3 {
        fill: #666;
        font-family: LilitaOne, 'Lilita One';
        font-size: 33px;
      }

      .cls-4 {
        letter-spacing: 0em;
      }

      .cls-5 {
        stroke: #999;
        stroke-miterlimit: 10;
        stroke-width: 6px;
      }

      .cls-5, .cls-6 {
        fill: #f2f2f2;
      }

      .cls-7 {
        fill: #ccc;
      }
    </style>
  </defs>
  <g id="PhotoIntrouvable">
    <rect class="cls-5" x="3" y="3" width="425.87" height="573.96"/>
    <path class="cls-7" d="m198.82,224.93h30.23c33.88,0,61.38,27.5,61.38,61.38v79.62c0,6.62-5.38,12-12,12h-129c-6.62,0-12-5.38-12-12v-79.62c0-33.88,27.5-61.38,61.38-61.38Z"/>
    <g>
      <ellipse class="cls-7" cx="215.94" cy="188.87" rx="51" ry="63.5"/>
      <path class="cls-6" d="m215.94,131.87c11.4,0,22.27,5.59,30.61,15.75,8.96,10.9,13.89,25.55,13.89,41.25s-4.93,30.34-13.89,41.25c-8.35,10.16-19.22,15.75-30.61,15.75s-22.27-5.59-30.61-15.75c-8.96-10.9-13.89-25.55-13.89-41.25s4.93-30.34,13.89-41.25c8.35-10.16,19.22-15.75,30.61-15.75m0-13c-31.76,0-57.5,31.34-57.5,70s25.74,70,57.5,70,57.5-31.34,57.5-70-25.74-70-57.5-70h0Z"/>
    </g>
    <text class="cls-3" transform="translate(55.38 425.51)"><tspan class="cls-2" x="0" y="0" xml:space="preserve">PHOTO  INTROU</tspan><tspan class="cls-1" x="226.81" y="0">V</tspan><tspan class="cls-4" x="247.03" y="0">ABLE</tspan></text>
  </g>
</svg>