<?xml version="1.0" encoding="UTF-8"?>
<svg id="Calque_2" data-name="Calque 2" xmlns="http://www.w3.org/2000/svg" viewBox="0 0 431.87 579.96">
  <defs>
    <style>
      .cls-1 {
        stroke: #999;
        stroke-miterlimit: 10;
        stroke-width: 6px;
      }

      .cls-1, .cls-2 {
        fill: #f2f2f2;
      }

      .cls-3 {
        fill: #ccc;
      }

      .cls-4 {
        fill: #666;
      }
    </style>
  </defs>
  <g id="PhotoIntrouvable">
    <rect class="cls-1" x="3" y="3" width="425.87" height="573.96"/>
    <path class="cls-3" d="m198.82,224.93h30.23c33.88,0,61.38,27.5,61.38,61.38v79.62c0,6.62-5.38,12-12,12h-129c-6.62,0-12-5.38-12-12v-79.62c0-33.88,27.5-61.38,61.38-61.38Z"/>
    <g>
      <ellipse class="cls-3" cx="215.94" cy="188.87" rx="51" ry="63.5"/>
      <path class="cls-2" d="m215.94,131.87c11.4,0,22.27,5.59,30.61,15.75,8.96,10.9,13.89,25.55,13.89,41.25s-4.93,30.34-13.89,41.25c-8.35,10.16-19.22,15.75-30.61,15.75s-22.27-5.59-30.61-15.75c-8.96-10.9-13.89-25.55-13.89-41.25s4.93-30.34,13.89-41.25c8.35-10.16,19.22-15.75,30.61-15.75m0-13c-31.76,0-57.5,31.34-57.5,70s25.74,70,57.5,70,57.5-31.34,57.5-70-25.74-70-57.5-70h0Z"/>
    </g>
    <g>
      <path class="cls-4" d="m59.9,425.57c-2,0-3-.22-3-.66v-21.38c0-.75.34-1.12,1.02-1.12h5.81c3.26,0,5.6.67,7.05,2.01,1.44,1.34,2.16,3.29,2.16,5.84,0,2.11-.68,4.05-2.05,5.81-.68.88-1.68,1.58-3,2.11-1.32.53-2.86.79-4.62.79v5.91c0,.26-.41.45-1.24.54-.82.1-1.53.15-2.13.15Zm3.37-17.42v5.21h.43c.77,0,1.42-.24,1.95-.73.53-.48.79-1.17.79-2.05s-.18-1.51-.54-1.88c-.36-.37-1.01-.56-1.93-.56h-.69Z"/>
      <path class="cls-4" d="m93.53,424.95c0,.37-1.11.56-3.33.56s-3.33-.19-3.33-.56v-7.59h-4.62v7.59c0,.37-1.11.56-3.33.56s-3.33-.19-3.33-.56v-21.88c0-.46,1.11-.69,3.33-.69s3.33.23,3.33.69v7.76h4.62v-7.69c0-.31.55-.53,1.65-.66.57-.04,1.13-.07,1.68-.07l1.68.07c1.1.13,1.65.35,1.65.66v21.81Z"/>
      <path class="cls-4" d="m106.38,425.84c-3.09,0-5.61-1.01-7.56-3.04-1.95-2.02-2.92-4.98-2.92-8.86s.98-6.83,2.95-8.83c1.97-2,4.51-3,7.62-3s5.63.99,7.54,2.95,2.87,4.95,2.87,8.94-.98,6.96-2.94,8.91c-1.96,1.95-4.48,2.92-7.57,2.92Zm.02-17.39c-1.06,0-1.94.48-2.66,1.45-.72.97-1.07,2.33-1.07,4.08s.34,3.09,1.02,4.03c.68.94,1.58,1.4,2.69,1.4s2.01-.47,2.71-1.42c.69-.95,1.04-2.3,1.04-4.06s-.36-3.11-1.07-4.06c-.72-.95-1.6-1.42-2.66-1.42Z"/>
      <path class="cls-4" d="m129.2,424.98c0,.44-1.09.66-3.27.66s-3.27-.22-3.27-.66v-16.57h-3.96c-.37,0-.64-.51-.79-1.52-.07-.48-.1-.98-.1-1.48s.03-1,.1-1.49c.15-1.01.42-1.52.79-1.52h14.35c.37,0,.64.51.79,1.52.07.48.1.98.1,1.49s-.03,1-.1,1.48c-.15,1.01-.42,1.52-.79,1.52h-3.86v16.57Z"/>
      <path class="cls-4" d="m145.39,425.84c-3.09,0-5.61-1.01-7.56-3.04-1.95-2.02-2.92-4.98-2.92-8.86s.98-6.83,2.95-8.83c1.97-2,4.51-3,7.62-3s5.63.99,7.54,2.95,2.87,4.95,2.87,8.94-.98,6.96-2.94,8.91c-1.96,1.95-4.48,2.92-7.57,2.92Zm.02-17.39c-1.06,0-1.94.48-2.66,1.45-.72.97-1.07,2.33-1.07,4.08s.34,3.09,1.02,4.03c.68.94,1.58,1.4,2.69,1.4s2.01-.47,2.71-1.42c.69-.95,1.04-2.3,1.04-4.06s-.36-3.11-1.07-4.06c-.72-.95-1.6-1.42-2.66-1.42Z"/>
      <path class="cls-4" d="m172.33,419.83v-11.75h-2.34c-.38,0-.64-.47-.79-1.42-.07-.46-.1-.93-.1-1.42s.03-.96.1-1.42c.15-.95.42-1.42.79-1.42h11.09c.37,0,.63.47.76,1.42.09.46.13.93.13,1.42s-.04.96-.13,1.42c-.13.95-.38,1.42-.76,1.42h-2.21v11.75h2.31c.37,0,.64.47.79,1.42.09.46.13.94.13,1.42s-.04.96-.13,1.42c-.15.95-.42,1.42-.79,1.42h-11.12c-.37,0-.63-.47-.76-1.42-.09-.46-.13-.93-.13-1.42s.04-.96.13-1.42c.13-.95.38-1.42.76-1.42h2.28Z"/>
      <path class="cls-4" d="m202.13,424.78c0,.46-1.04.69-3.1.69s-3.19-.17-3.37-.5l-5.51-10.3v10.26c0,.4-1.02.59-3.05.59s-3.05-.2-3.05-.59v-22.08c0-.33.87-.5,2.61-.5.68,0,1.48.06,2.39.18s1.47.35,1.67.68l5.28,10.16v-10.36c0-.42,1.02-.63,3.07-.63s3.07.21,3.07.63v21.75Z"/>
      <path class="cls-4" d="m215.1,424.98c0,.44-1.09.66-3.27.66s-3.27-.22-3.27-.66v-16.57h-3.96c-.37,0-.64-.51-.79-1.52-.07-.48-.1-.98-.1-1.48s.03-1,.1-1.49c.15-1.01.42-1.52.79-1.52h14.36c.37,0,.64.51.79,1.52.07.48.1.98.1,1.49s-.03,1-.1,1.48c-.15,1.01-.42,1.52-.79,1.52h-3.86v16.57Z"/>
      <path class="cls-4" d="m227.77,425.05c0,.35-1.04.53-3.13.53s-3.17-.17-3.17-.5v-21.52c0-.77.41-1.15,1.22-1.15h6.3c5.79,0,8.68,2.25,8.68,6.76,0,1.36-.26,2.6-.79,3.71-.53,1.11-1.28,2-2.24,2.66l4.16,6.93c-.18.53-.75,1.13-1.72,1.82-1.32.95-2.41,1.42-3.27,1.42s-1.5-.31-1.91-.92l-3.1-7.23h-1.02v7.49Zm0-16.8v4.95h.17c2.09,0,3.13-.87,3.13-2.61,0-.79-.2-1.38-.61-1.77-.41-.38-1.07-.58-2-.58h-.69Z"/>
      <path class="cls-4" d="m250.49,425.84c-3.09,0-5.61-1.01-7.56-3.04-1.95-2.02-2.92-4.98-2.92-8.86s.98-6.83,2.95-8.83,4.51-3,7.62-3,5.63.99,7.54,2.95,2.87,4.95,2.87,8.94-.98,6.96-2.94,8.91c-1.96,1.95-4.48,2.92-7.57,2.92Zm.02-17.39c-1.06,0-1.94.48-2.66,1.45-.71.97-1.07,2.33-1.07,4.08s.34,3.09,1.02,4.03c.68.94,1.58,1.4,2.69,1.4s2.01-.47,2.71-1.42c.69-.95,1.04-2.3,1.04-4.06s-.36-3.11-1.07-4.06c-.71-.95-1.6-1.42-2.66-1.42Z"/>
      <path class="cls-4" d="m274.17,403.07c0-.44,1.19-.66,3.58-.66s3.58.22,3.58.66v15.15c0,2.24-.8,4.08-2.41,5.49-1.61,1.42-3.82,2.13-6.65,2.13s-5.13-.73-6.9-2.19c-1.77-1.46-2.66-3.44-2.66-5.92v-14.62c0-.44,1.19-.66,3.58-.66s3.58.22,3.58.66v14.88c0,.44.23.79.69,1.06.48.26.99.4,1.52.4s1.01-.12,1.44-.36c.43-.24.64-.61.64-1.09v-14.92Z"/>
      <path class="cls-4" d="m282.55,402.84c0-.11.48-.21,1.44-.31.96-.1,1.74-.15,2.36-.15,2.44,0,3.72.32,3.83.96l2.84,14.52,2.67-14.52c.13-.64,1.5-.96,4.09-.96.64,0,1.44.04,2.41.13.97.09,1.45.19,1.45.3l-5.84,21.85c-.09.35-.74.58-1.95.69-1.87.2-3.57.24-5.1.12-1.53-.12-2.34-.33-2.43-.64l-5.77-21.98Z"/>
      <path class="cls-4" d="m319.58,425.57c-1.91,0-2.95-.31-3.1-.92l-1.09-4.26h-5.25l-.96,4.09c-.13.68-1.19,1.02-3.17,1.02-1.06,0-1.84-.06-2.34-.18-.51-.12-.76-.21-.76-.28l5.84-22.34c0-.18,1.51-.26,4.52-.26s4.52.09,4.52.26l5.71,22.37c0,.15-.51.28-1.52.36-1.01.09-1.82.13-2.41.13Zm-8.61-9.37h3.46l-1.48-6.83h-.2l-1.78,6.83Z"/>
      <path class="cls-4" d="m341.62,408.38c0,2.29-.99,4.03-2.97,5.21,1.08.4,1.98,1.08,2.71,2.05.73.97,1.09,2.34,1.09,4.11s-.65,3.17-1.96,4.21c-1.31,1.03-3.18,1.55-5.63,1.55h-7.79c-.37,0-.68-.13-.92-.38-.24-.25-.36-.59-.36-1.01v-21.12c0-.24.04-.4.12-.48.08-.08.24-.12.48-.12h7.52c5.15,0,7.72,1.99,7.72,5.97Zm-9.5-.63v4.32h.17c2.11,0,3.17-.7,3.17-2.11,0-.77-.2-1.33-.61-1.68-.41-.35-1.08-.53-2.03-.53h-.69Zm0,8.22v4.29h.59c.95,0,1.64-.18,2.08-.53.44-.35.66-.91.66-1.68s-.2-1.31-.61-1.62c-.41-.31-1.08-.46-2.03-.46h-.69Z"/>
      <path class="cls-4" d="m344.43,423.56v-20.53c0-.46,1.12-.69,3.35-.69s3.35.23,3.35.69v16.17h5.08c.4,0,.67.52.83,1.55.07.51.1,1.02.1,1.55s-.03,1.07-.1,1.62c-.18,1.06-.46,1.58-.86,1.58h-10.16c-.48,0-.87-.2-1.16-.59-.29-.4-.43-.85-.43-1.35Z"/>
      <path class="cls-4" d="m369.57,411.58c.42,0,.63.77.63,2.31,0,.46-.05,1.01-.15,1.63s-.28.94-.54.94h-4.19v3.3h6.07c.37,0,.63.48.76,1.45.07.42.1.86.1,1.34s-.07,1.08-.2,1.83c-.13.75-.35,1.12-.66,1.12h-11.29c-.84,0-1.25-.34-1.25-1.02v-21.22c0-.57.25-.86.76-.86h11.81c.46,0,.69.97.69,2.92s-.23,2.92-.69,2.92h-6.1v3.33h4.26Z"/>
    </g>
  </g>
</svg>