<?xml version="1.0" encoding="UTF-8"?>
<svg id="Calque_2" data-name="Calque 2" xmlns="http://www.w3.org/2000/svg" viewBox="0 0 217.53 182.93">
  <defs>
    <style>
      .cls-1Logo {
        fill: #fff;
      }
    </style>
  </defs>
  <g id="logo1">
    <path class="cls-1Logo" d="m146.5,133.34c.37.51.5,1.34.44,1.99-.21,2.21-.56,4.36.18,6.58,1.12,3.37,3.51,5.89,5.54,8.64,5.85,7.92,11.76,15.79,17.64,23.68,1.94,2.6,3.67,5.49,6.54,7.12,5.61,3.18,12.77,1.46,16.08-4.19.7-1.19,1.16-2.58,1.45-3.94.54-2.57.32-5.21-1.04-7.45-1.54-2.53-3.44-4.85-5.22-7.23-6.24-8.38-12.55-16.71-18.72-25.14-1.71-2.34-3.55-4.37-5.93-5.57-5.47,2.01-11.23,3.73-17.25,5.12.1.14.2.27.3.4Zm24.68,10.01c5.63,7.53,11.18,15.12,16.89,22.58,2.09,2.73,2.57,5.51,1.21,8.59-.92,2.08-4.35,4.3-7.43,3.84-3.34-.5-5-2.87-6.75-5.21-6.73-8.96-13.4-17.96-20.1-26.94-.03-.04-.01-.1-.03-.24,3.8-2.83,7.63-5.7,11.6-8.66,1.54,2.02,3.09,4.01,4.6,6.03Z"/>
    <path class="cls-1Logo" d="m142.6,47.4c-9.61-7.6-20.74-10.58-32.85-8.89-11.85,1.65-21.46,7.52-28.67,17.05-6.89,9.1-9.52,19.5-8.32,30.79,2.15,20.18,19.86,38.83,43.88,38.3,23.85-.38,43.93-20.35,42.31-46.21-.8-12.66-6.37-23.16-16.34-31.04Zm-21.7,71.85c-11,1.36-20.85-1.42-29.48-8.5-8.66-7.09-13.23-16.37-13.79-27.33-1.1-21.55,15.55-40.07,38.05-40.19,20.71-.15,37.07,16.15,38.21,35.49,1.4,23.6-16.47,38.5-32.99,40.53Z"/>
    <path class="cls-1Logo" d="m108.77,0C48.7,0,0,30.69,0,68.55s48.7,68.55,108.77,68.55c13.15,0,25.75-1.47,37.42-4.16-2.4-3.26-4.87-6.46-7.32-9.68-18.84,10.29-40.54,6.54-54.78-6.1-23.63-3.45-60.58-19.2-58.65-50.62,2.16-35.17,48.69-44.17,83.33-44.17,43.66,0,81.28,14.64,84.42,43.34,2.72,24.94-26.89,45.34-43.82,49.72,1.72,2.35,3.41,4.68,5.12,7,.75,1.02,1.48,2.06,2.35,2.97.54.57,1.31,1.28,1.99,1.29,1.76.05,3.27.46,4.61,1.13,32.35-11.88,54.09-33.97,54.09-59.27C217.53,30.69,168.84,0,108.77,0ZM17.79,66.34c-.16.74-.72,1.37-1.44,1.63-.65.24-1.26.17-1.78-.07-.84.73-1.92,1.48-2.83,1.96-1.84.98-3.64,1.2-4,.51-.37-.7.83-2.05,2.67-3.03.09-.05.18-.09.28-.14-.54.03-1.06.05-1.53.05-2.78,0-5.04-.64-5.04-1.43s2.26-1.43,5.04-1.43c.47,0,1,.02,1.54.05-.16-.09-.31-.17-.45-.26-1.78-1.09-2.89-2.52-2.47-3.19.41-.67,2.19-.33,3.96.76.85.52,1.87,1.32,2.65,2.08.34-.2.73-.32,1.15-.32,1.44,0,2.57,1.32,2.24,2.82ZM112.72,10.02c-.52.85-1.32,1.87-2.08,2.65.2.34.32.73.32,1.15,0,1.44-1.32,2.57-2.82,2.24-.74-.16-1.37-.72-1.63-1.44-.24-.65-.17-1.26.07-1.78-.73-.84-1.48-1.92-1.96-2.83-.98-1.84-1.2-3.64-.51-4,.7-.37,2.05.83,3.03,2.67.05.09.09.18.14.28-.03-.54-.05-1.06-.05-1.53,0-2.78.64-5.04,1.43-5.04s1.43,2.26,1.43,5.04c0,.47-.02,1-.05,1.54.09-.16.17-.31.26-.45,1.09-1.78,2.52-2.89,3.19-2.47.67.41.33,2.19-.76,3.96Zm95.08,57.21c1.78,1.09,2.89,2.52,2.47,3.19-.41.67-2.19.33-3.96-.76-.85-.52-1.87-1.32-2.65-2.08-.34.2-.73.32-1.15.32-1.44,0-2.57-1.32-2.24-2.82.16-.74.72-1.37,1.44-1.63.65-.24,1.26-.17,1.78.07.84-.73,1.92-1.48,2.83-1.96,1.84-.98,3.64-1.2,4-.51.37.7-.83,2.05-2.67,3.03-.09.05-.18.09-.28.14.54-.03,1.06-.05,1.53-.05,2.78,0,5.04.64,5.04,1.43s-2.26,1.43-5.04,1.43c-.47,0-1-.02-1.54-.05.16.09.31.17.45.26Z"/>
  </g>
</svg>