<?xml version="1.0" encoding="UTF-8"?>
<svg id="Layer_2" data-name="Layer 2" xmlns="http://www.w3.org/2000/svg" viewBox="0 0 217.5 182.9">
  <defs>
    <style>
      .cls-1 {
        fill: #dc2062;
      }

      .cls-2 {
        fill: #237bff;
      }
    </style>
  </defs>
  <g id="loupe_épigraphe">
    <g id="poignee_loupe">
      <path class="cls-1" d="m146.5,133.3c.4.5.5,1.3.4,2-.2,2.2-.6,4.4.2,6.6,1.1,3.4,3.5,5.9,5.5,8.6,5.8,7.9,11.8,15.8,17.6,23.7,1.9,2.6,3.7,5.5,6.5,7.1,5.6,3.2,12.8,1.5,16.1-4.2.7-1.2,1.2-2.6,1.4-3.9.5-2.6.3-5.2-1-7.4-1.5-2.5-3.4-4.8-5.2-7.2-6.2-8.4-12.6-16.7-18.7-25.1-1.7-2.3-3.5-4.4-5.9-5.6-5.5,2-11.2,3.7-17.3,5.1,0,.1.2.3.3.4Zm24.7,10c5.6,7.5,11.2,15.1,16.9,22.6,2.1,2.7,2.6,5.5,1.2,8.6-.9,2.1-4.3,4.3-7.4,3.8-3.3-.5-5-2.9-6.7-5.2-6.7-9-13.4-18-20.1-26.9,0,0,0,0,0-.2,3.8-2.8,7.6-5.7,11.6-8.7,1.5,2,3.1,4,4.6,6Z"/>
    </g>
    <path id="cercle_loupe" class="cls-1" d="m142.6,47.4c-9.6-7.6-20.7-10.6-32.9-8.9-11.8,1.6-21.5,7.5-28.7,17-6.9,9.1-9.5,19.5-8.3,30.8,2.1,20.2,19.9,38.8,43.9,38.3,23.8-.4,43.9-20.3,42.3-46.2-.8-12.7-6.4-23.2-16.3-31Zm-21.7,71.9c-11,1.4-20.8-1.4-29.5-8.5-8.7-7.1-13.2-16.4-13.8-27.3-1.1-21.6,15.5-40.1,38.1-40.2,20.7-.2,37.1,16.2,38.2,35.5,1.4,23.6-16.5,38.5-33,40.5Z"/>
    <path id="rond_épigraphe" class="cls-2" d="m108.8,0C48.7,0,0,30.7,0,68.6s48.7,68.6,108.8,68.6,25.8-1.5,37.4-4.2c-2.4-3.3-4.9-6.5-7.3-9.7-18.8,10.3-40.5,6.5-54.8-6.1-23.6-3.5-60.6-19.2-58.6-50.6,2.2-35.2,48.7-44.2,83.3-44.2,43.7,0,81.3,14.6,84.4,43.3,2.7,24.9-26.9,45.3-43.8,49.7,1.7,2.4,3.4,4.7,5.1,7,.8,1,1.5,2.1,2.3,3,.5.6,1.3,1.3,2,1.3,1.8,0,3.3.5,4.6,1.1,32.3-11.9,54.1-34,54.1-59.3C217.5,30.7,168.8,0,108.8,0ZM17.8,66.3c-.2.7-.7,1.4-1.4,1.6-.7.2-1.3.2-1.8,0-.8.7-1.9,1.5-2.8,2-1.8,1-3.6,1.2-4,.5-.4-.7.8-2.1,2.7-3,0,0,.2,0,.3-.1-.5,0-1.1,0-1.5,0-2.8,0-5-.6-5-1.4s2.3-1.4,5-1.4,1,0,1.5,0c-.2,0-.3-.2-.4-.3-1.8-1.1-2.9-2.5-2.5-3.2.4-.7,2.2-.3,4,.8.9.5,1.9,1.3,2.7,2.1.3-.2.7-.3,1.1-.3,1.4,0,2.6,1.3,2.2,2.8ZM112.7,10c-.5.9-1.3,1.9-2.1,2.7.2.3.3.7.3,1.1,0,1.4-1.3,2.6-2.8,2.2-.7-.2-1.4-.7-1.6-1.4-.2-.7-.2-1.3,0-1.8-.7-.8-1.5-1.9-2-2.8-1-1.8-1.2-3.6-.5-4,.7-.4,2.1.8,3,2.7,0,0,0,.2.1.3,0-.5,0-1.1,0-1.5,0-2.8.6-5,1.4-5s1.4,2.3,1.4,5,0,1,0,1.5c0-.2.2-.3.3-.4,1.1-1.8,2.5-2.9,3.2-2.5.7.4.3,2.2-.8,4Zm95.1,57.2c1.8,1.1,2.9,2.5,2.5,3.2-.4.7-2.2.3-4-.8-.9-.5-1.9-1.3-2.7-2.1-.3.2-.7.3-1.1.3-1.4,0-2.6-1.3-2.2-2.8.2-.7.7-1.4,1.4-1.6.7-.2,1.3-.2,1.8,0,.8-.7,1.9-1.5,2.8-2,1.8-1,3.6-1.2,4-.5.4.7-.8,2.1-2.7,3,0,0-.2,0-.3.1.5,0,1.1,0,1.5,0,2.8,0,5,.6,5,1.4s-2.3,1.4-5,1.4-1,0-1.5,0c.2,0,.3.2.4.3Z"/>
  </g>
</svg>