<svg width="405" height="280" viewBox="0 0 405 280" fill="none" xmlns="http://www.w3.org/2000/svg">
<rect width="405" height="280" fill="#D9D9D9"/>
<path d="M136.149 81.9094V213.057H265.202V174.041C265.465 172.853 265.465 171.621 265.202 170.434V81.7455H136.149V81.9094ZM152.281 98.3029H249.07V163.877H224.873C224.39 163.832 223.904 163.832 223.421 163.877C221.282 164.072 219.307 165.124 217.93 166.799C216.554 168.475 215.888 170.637 216.081 172.811C216.273 174.985 217.308 176.992 218.957 178.391C220.605 179.79 222.733 180.466 224.873 180.27H249.07V196.664H152.281V98.3029ZM192.609 114.696C179.22 114.696 168.412 125.68 168.412 139.287C168.412 155.68 192.609 180.27 192.609 180.27C192.609 180.27 216.807 155.68 216.807 139.287C216.807 125.68 205.999 114.696 192.609 114.696ZM192.609 131.09C197.126 131.09 200.675 134.696 200.675 139.287C200.675 143.877 197.126 147.483 192.609 147.483C188.093 147.483 184.544 143.877 184.544 139.287C184.544 134.696 188.093 131.09 192.609 131.09Z" fill="black"/>
</svg>
