<?xml version="1.0" standalone="no"?>
<!DOCTYPE svg PUBLIC "-//W3C//DTD SVG 20010904//EN"
 "http://www.w3.org/TR/2001/REC-SVG-20010904/DTD/svg10.dtd">
<svg version="1.0" xmlns="http://www.w3.org/2000/svg"
 width="872.000000pt" height="872.000000pt" viewBox="0 0 872.000000 872.000000"
 preserveAspectRatio="xMidYMid meet">
<metadata>
Created by potrace 1.14, written by Peter Selinger 2001-2017
</metadata>
<g transform="translate(0.000000,872.000000) scale(0.100000,-0.100000)"
fill="#000000" stroke="none">
<path d="M4018 8015 c-2 -2 -49 -6 -103 -9 -55 -3 -118 -8 -140 -10 -22 -2
-71 -7 -110 -11 -38 -3 -81 -8 -95 -10 -14 -2 -45 -6 -70 -9 -47 -5 -82 -11
-190 -27 -36 -6 -74 -12 -85 -14 -11 -1 -36 -5 -55 -9 -19 -4 -48 -9 -65 -11
-16 -2 -30 -4 -30 -5 0 -2 -20 -6 -65 -14 -19 -4 -82 -18 -140 -32 -58 -13
-114 -26 -125 -28 -119 -24 -539 -159 -701 -227 -55 -22 -103 -42 -109 -43
-47 -13 -370 -172 -490 -241 -121 -69 -370 -231 -404 -262 -13 -13 -27 -23
-32 -23 -4 0 -14 -6 -21 -13 -7 -6 -38 -32 -68 -57 -30 -25 -68 -56 -85 -70
-43 -36 -284 -278 -324 -325 -95 -112 -211 -282 -278 -405 -88 -162 -179 -411
-198 -539 -2 -14 -6 -37 -9 -50 -21 -96 -29 -443 -12 -536 33 -186 79 -358
111 -417 8 -14 15 -31 15 -38 0 -41 227 -438 280 -490 3 -3 32 -39 65 -80 82
-104 300 -319 420 -416 246 -198 492 -353 795 -501 109 -53 346 -157 360 -158
3 0 30 -10 60 -22 207 -82 646 -212 805 -238 11 -1 38 -7 60 -13 38 -10 64
-15 138 -27 17 -3 52 -10 77 -15 39 -8 75 -14 155 -25 11 -1 40 -5 65 -9 86
-13 115 -17 165 -21 28 -3 73 -7 100 -10 217 -24 405 -29 1045 -29 706 0 1045
9 1097 29 21 7 4 32 -33 50 -19 9 -34 22 -34 29 0 15 30 44 30 30 0 -5 4 -4 8
2 14 22 58 25 76 5 15 -17 17 -32 11 -113 -10 -133 -7 -171 16 -233 14 -37 51
-116 62 -130 4 -5 31 -41 59 -80 29 -38 101 -135 160 -215 59 -80 111 -150
116 -155 4 -6 41 -55 82 -110 41 -55 77 -104 82 -110 5 -5 25 -32 45 -60 21
-27 41 -54 45 -60 53 -66 78 -102 78 -112 0 -7 4 -13 8 -13 5 0 35 -37 67 -83
32 -45 61 -84 65 -87 3 -3 41 -54 85 -115 139 -192 236 -268 377 -296 64 -12
178 -9 197 5 8 6 15 9 15 7 2 -7 48 9 96 32 204 99 312 384 226 592 -20 47
-138 219 -214 310 -4 6 -77 102 -160 215 -84 113 -158 212 -165 220 -7 8 -82
109 -167 223 -302 406 -330 442 -382 495 -28 29 -69 62 -90 74 -36 21 -42 38
-11 38 8 0 29 6 46 14 18 8 68 28 112 46 44 18 85 35 90 39 6 4 46 22 90 41
126 54 292 141 475 250 61 36 284 186 303 204 7 6 41 33 77 61 130 100 241
203 392 365 18 20 58 67 88 105 30 39 58 72 62 73 5 2 8 10 8 18 0 8 3 14 8
14 4 0 16 15 27 32 11 18 27 42 35 54 19 27 135 227 136 234 0 3 14 34 31 70
16 36 44 108 62 160 45 132 51 154 51 177 0 11 3 23 7 26 3 4 7 17 9 29 1 13
5 37 8 53 31 162 29 462 -4 621 -18 84 -21 98 -36 154 -58 209 -147 399 -282
598 -63 94 -74 108 -103 141 -8 9 -22 26 -30 38 -62 88 -270 295 -421 420 -90
74 -261 197 -358 258 -30 19 -60 39 -67 45 -7 5 -15 10 -18 10 -3 0 -47 24
-98 53 -109 64 -282 152 -387 197 -41 18 -97 42 -125 54 -27 13 -77 33 -110
45 -33 13 -69 27 -80 32 -26 11 -255 90 -275 94 -8 2 -69 19 -135 38 -66 20
-136 39 -155 43 -47 11 -50 11 -52 14 -2 1 -10 3 -18 5 -8 2 -46 11 -85 20
-38 9 -81 19 -95 21 -14 3 -59 12 -100 20 -41 9 -84 17 -95 18 -11 2 -33 6
-50 9 -28 6 -49 9 -145 23 -19 3 -44 7 -55 8 -11 2 -47 7 -80 10 -33 4 -69 9
-80 11 -22 5 -97 12 -215 21 -41 3 -95 8 -120 11 -54 5 -797 13 -802 8z m356
-117 c17 -26 27 -78 31 -161 2 -32 5 -61 8 -63 2 -3 13 8 23 24 31 48 81 84
105 77 18 -6 21 -13 16 -45 -7 -58 -59 -156 -96 -186 -9 -7 -16 -32 -17 -63
-1 -55 -13 -75 -56 -97 -24 -12 -32 -12 -60 -1 -46 19 -60 40 -62 90 -1 32 -9
53 -29 77 -67 79 -100 182 -69 220 l17 21 22 -20 c12 -12 26 -21 31 -21 6 0
19 -19 30 -42 22 -45 22 -45 27 37 1 22 3 42 4 45 1 3 4 22 6 42 4 38 30 88
46 88 5 0 15 -10 23 -22z m-131 -780 c-2 -5 6 -4 19 0 24 9 211 7 234 -2 8 -3
14 -1 14 5 0 6 4 8 10 4 5 -3 69 -8 142 -10 217 -8 288 -13 458 -31 30 -4 66
-7 80 -9 64 -7 136 -17 150 -20 8 -2 38 -7 65 -10 28 -3 57 -7 65 -10 8 -2 31
-7 50 -9 58 -8 173 -30 250 -47 25 -6 52 -12 60 -14 8 -2 35 -9 60 -15 25 -6
61 -15 80 -20 19 -5 60 -16 90 -25 30 -9 62 -18 70 -20 69 -17 338 -114 417
-151 18 -8 34 -14 35 -14 2 1 59 -27 128 -62 260 -134 418 -243 588 -408 199
-192 355 -454 403 -675 25 -112 29 -133 34 -170 7 -59 3 -320 -5 -320 -1 0 -3
-9 -5 -20 -6 -42 -16 -91 -27 -130 -6 -22 -12 -44 -14 -50 -14 -63 -140 -332
-169 -361 -8 -8 -17 -23 -20 -34 -3 -11 -11 -20 -16 -20 -5 0 -9 -5 -9 -10 0
-10 -38 -70 -51 -80 -4 -3 -24 -27 -45 -55 -82 -109 -324 -348 -405 -402 -13
-9 -28 -21 -34 -27 -35 -40 -402 -278 -440 -286 -5 -1 -21 -10 -35 -20 -14 -9
-52 -29 -85 -44 -33 -15 -78 -36 -100 -46 -44 -21 -201 -80 -225 -85 -8 -2
-28 -8 -43 -14 -21 -8 -25 -14 -17 -23 6 -7 72 -96 146 -197 75 -102 141 -189
148 -195 29 -28 47 -38 73 -41 92 -13 126 -21 153 -35 26 -14 19 -27 -22 -36
-18 -3 -39 -10 -48 -15 -8 -5 -53 -20 -100 -35 -252 -78 -470 -134 -487 -125
-6 3 -56 65 -109 136 -54 72 -103 135 -108 142 -6 6 -24 30 -40 52 -20 27 -38
41 -52 41 -12 0 -24 -3 -26 -7 -4 -11 -75 -44 -181 -87 -76 -30 -106 -41 -182
-62 -58 -17 -179 -44 -215 -48 -25 -3 -65 -9 -90 -13 -60 -9 -349 -9 -430 0
-36 5 -96 14 -135 22 -38 8 -82 16 -97 19 -15 3 -31 7 -36 10 -5 3 -19 7 -33
10 -39 7 -183 57 -193 67 -6 5 -16 9 -23 9 -22 0 -225 105 -305 156 -40 26
-111 77 -158 113 -46 36 -89 66 -95 67 -5 1 -28 5 -50 9 -22 3 -53 9 -70 11
-16 3 -41 8 -55 11 -14 4 -32 8 -40 9 -26 3 -65 12 -80 18 -8 3 -26 8 -40 10
-175 34 -544 165 -775 276 -156 75 -429 234 -465 270 -3 3 -32 25 -65 50 -33
25 -71 54 -85 65 -46 37 -246 240 -275 280 -17 22 -33 42 -36 45 -20 16 -127
194 -164 273 -63 136 -92 228 -122 393 -17 98 -8 404 17 509 5 22 9 42 10 45
15 83 71 232 119 320 25 47 52 97 60 113 7 15 17 27 22 27 5 0 9 5 9 11 0 9
28 47 95 127 95 115 250 245 416 350 90 57 345 192 364 192 4 0 21 7 38 15 63
28 273 106 327 120 8 2 40 11 70 20 90 26 231 62 290 74 30 6 66 14 80 17 52
12 176 35 205 39 17 2 44 6 60 9 17 4 48 8 70 11 22 3 51 7 65 10 27 5 83 13
165 21 27 3 64 7 80 9 38 4 171 15 255 21 36 2 125 6 198 9 74 2 135 5 137 7
7 7 63 3 58 -4z m4188 -1540 c9 -13 -9 -46 -36 -70 -39 -34 -43 -37 -48 -32
-2 3 -7 -1 -9 -8 -4 -10 12 -14 65 -15 88 -3 169 -28 165 -51 -5 -28 -70 -51
-158 -56 -46 -4 -85 -8 -87 -10 -2 -2 9 -11 24 -21 61 -39 101 -101 79 -120
-28 -27 -155 22 -225 85 -23 22 -39 27 -77 27 -39 0 -52 5 -71 27 -52 60 -14
142 70 149 33 3 60 15 96 41 84 62 191 89 212 54z m-7992 -15 c20 -9 61 -35
92 -59 39 -30 62 -41 77 -37 28 7 89 -14 98 -35 19 -43 15 -71 -14 -103 -23
-26 -38 -33 -69 -35 -28 -1 -57 -13 -99 -41 -63 -42 -102 -60 -147 -68 -32 -6
-67 9 -67 29 0 16 50 76 63 76 8 0 37 25 37 33 0 2 -21 3 -47 2 -60 -3 -160
18 -179 37 -34 33 37 65 158 71 37 1 70 5 73 8 3 4 -12 18 -33 32 -50 35 -78
82 -61 103 14 17 63 12 118 -13z m6312 -3135 c35 -46 66 -85 69 -88 4 -3 25
-33 48 -66 23 -34 47 -68 54 -75 7 -8 25 -32 41 -55 15 -22 36 -50 47 -62 11
-12 20 -26 20 -32 0 -6 7 -13 15 -16 8 -4 15 -10 15 -15 0 -7 51 -77 159 -219
166 -219 361 -482 361 -488 0 -4 8 -20 17 -37 9 -18 17 -59 19 -100 5 -127
-51 -220 -163 -271 -154 -71 -283 -19 -424 171 -24 33 -47 62 -51 63 -5 2 -8
8 -8 13 0 9 -55 84 -157 214 -24 30 -43 57 -43 60 0 3 -8 14 -17 24 -10 11
-34 41 -53 68 -19 26 -37 50 -40 53 -3 3 -16 22 -30 42 -14 21 -28 38 -32 38
-5 0 -8 6 -8 14 0 8 -3 16 -7 18 -5 2 -35 39 -68 83 -32 44 -63 85 -68 90 -23
27 -227 305 -227 309 0 2 62 51 137 108 76 57 142 107 148 111 79 61 171 127
176 127 5 0 36 -37 70 -82z"/>
<path d="M4557 6494 c-1 -1 -38 -5 -82 -8 -44 -4 -87 -9 -95 -11 -8 -2 -33 -6
-55 -10 -112 -16 -288 -71 -418 -129 -31 -14 -60 -25 -63 -25 -4 0 -10 -3 -13
-8 -3 -6 -33 -24 -66 -42 -115 -63 -236 -159 -365 -291 -47 -48 -95 -100 -108
-116 -48 -60 -152 -212 -152 -223 0 -6 -4 -11 -8 -11 -4 0 -13 -12 -19 -27 -6
-16 -19 -39 -27 -53 -49 -80 -133 -321 -152 -440 -2 -14 -6 -34 -9 -45 -29
-133 -22 -523 11 -628 4 -12 8 -33 9 -47 3 -26 40 -161 54 -195 5 -11 15 -36
22 -55 31 -86 148 -303 172 -321 5 -3 8 -9 7 -13 -1 -4 22 -39 52 -78 76 -101
250 -273 349 -346 46 -34 89 -65 94 -69 33 -25 285 -154 310 -160 6 -1 43 -14
83 -28 41 -14 83 -27 95 -30 12 -2 42 -9 67 -16 62 -15 70 -16 130 -24 29 -4
62 -9 74 -11 32 -7 314 -6 371 1 86 10 97 12 181 29 50 10 160 39 169 44 6 4
15 7 20 8 6 1 36 12 67 24 32 12 61 21 64 20 4 -1 10 2 13 7 3 5 26 17 51 28
25 11 82 41 126 67 73 43 112 69 219 150 74 56 282 276 320 339 6 9 27 42 48
73 20 31 37 60 37 65 0 5 3 11 8 13 23 10 145 306 167 405 2 10 8 33 14 51 5
18 10 35 10 37 1 3 1 6 2 8 0 1 2 11 3 22 2 11 7 45 11 75 13 82 14 112 15
260 1 174 -7 262 -37 390 -8 36 -16 72 -18 80 -2 8 -8 27 -14 43 -6 15 -8 27
-5 27 4 0 2 6 -4 13 -6 6 -11 15 -11 19 -11 68 -101 253 -187 383 -73 110 -85
125 -204 246 -132 134 -231 211 -405 317 -137 83 -403 176 -560 197 -27 4 -68
9 -90 12 -39 5 -273 11 -278 7z m250 -218 c40 -4 83 -9 95 -12 13 -3 37 -7 53
-10 84 -14 252 -68 308 -100 15 -8 27 -12 27 -8 0 3 6 2 13 -3 6 -6 48 -30 92
-53 44 -24 82 -46 85 -49 3 -4 32 -24 65 -46 68 -46 282 -254 310 -302 11 -18
23 -33 27 -33 4 0 8 -6 8 -14 0 -8 4 -16 8 -18 15 -6 79 -112 125 -209 44 -90
100 -246 111 -306 2 -15 7 -39 10 -52 3 -12 8 -42 10 -65 3 -22 8 -52 11 -66
13 -62 6 -315 -11 -415 -3 -16 -7 -43 -10 -60 -3 -16 -10 -48 -16 -70 -5 -22
-11 -44 -12 -50 -1 -5 -13 -41 -26 -80 -13 -38 -25 -72 -25 -75 -4 -17 -70
-151 -102 -203 -127 -212 -334 -418 -541 -539 -101 -60 -297 -143 -359 -154
-6 -1 -27 -7 -45 -12 -18 -6 -46 -13 -63 -16 -16 -3 -40 -7 -53 -10 -76 -17
-302 -25 -402 -15 -138 15 -170 21 -268 49 -4 2 -11 4 -17 5 -114 30 -345 139
-399 188 -11 9 -24 17 -28 17 -19 0 -140 102 -248 210 -126 126 -218 253 -287
400 -35 73 -79 192 -87 233 -2 7 -8 30 -14 52 -11 41 -24 120 -27 166 -1 14
-4 30 -7 35 -7 11 -3 351 4 379 3 11 9 40 13 65 23 151 99 357 187 512 15 26
11 19 89 128 60 82 238 270 257 270 5 0 17 9 26 19 23 26 135 100 216 143 67
36 235 106 270 113 11 2 24 6 28 9 5 3 19 7 33 10 23 5 46 10 99 21 40 9 90
15 160 21 36 3 66 7 67 8 5 4 168 -1 240 -8z"/>
</g>
</svg>
