<?xml version="1.0" encoding="UTF-8"?>
<svg id="Calque_2" data-name="Calque 2" xmlns="http://www.w3.org/2000/svg" xmlns:xlink="http://www.w3.org/1999/xlink" viewBox="0 0 575.94 416.7">
  <defs>
    <style>
      .cls-1 {
        fill: url(#Dégradé_sans_nom_612);
        stroke: url(#Dégradé_sans_nom_605);
      }

      .cls-1, .cls-2, .cls-3, .cls-4 {
        stroke-miterlimit: 10;
      }

      .cls-1, .cls-3 {
        stroke-width: 2px;
      }

      .cls-5 {
        opacity: .7;
      }

      .cls-6, .cls-7, .cls-2, .cls-8 {
        fill: #fff;
      }

      .cls-9 {
        opacity: .5;
      }

      .cls-10 {
        fill: #a77fff;
      }

      .cls-7, .cls-11 {
        fill-rule: evenodd;
      }

      .cls-2 {
        stroke-width: .5px;
      }

      .cls-2, .cls-3 {
        stroke: #fff;
      }

      .cls-8 {
        font-family: DMSerifText-Regular, 'DM Serif Text';
        font-size: 11px;
      }

      .cls-3, .cls-12 {
        fill: none;
      }

      .cls-4 {
        fill: url(#Dégradé_sans_nom_22);
        stroke: #001cc9;
        stroke-width: 3px;
      }

      .cls-13 {
        fill: url(#Dégradé_sans_nom_22-2);
      }

      .cls-11 {
        fill: #1e00aa;
      }
    </style>
    <radialGradient id="Dégradé_sans_nom_22" data-name="Dégradé sans nom 22" cx="287.97" cy="208.35" fx="287.97" fy="208.35" r="249.85" gradientUnits="userSpaceOnUse">
      <stop offset="0" stop-color="#1300bf"/>
      <stop offset=".19" stop-color="#1200b9"/>
      <stop offset=".43" stop-color="#1000a9"/>
      <stop offset=".71" stop-color="#0d008e"/>
      <stop offset="1" stop-color="#0a006a"/>
    </radialGradient>
    <radialGradient id="Dégradé_sans_nom_22-2" data-name="Dégradé sans nom 22" cx="289.71" cy="207.21" fx="289.71" fy="207.21" r="233.82" xlink:href="#Dégradé_sans_nom_22"/>
    <radialGradient id="Dégradé_sans_nom_612" data-name="Dégradé sans nom 612" cx="286.71" cy="211.28" fx="286.71" fy="211.28" r="232.03" gradientTransform="translate(1.51 38.52) rotate(.46) scale(1 .79) skewX(-.04)" gradientUnits="userSpaceOnUse">
      <stop offset="0" stop-color="#0a006a"/>
      <stop offset=".23" stop-color="#0e0070"/>
      <stop offset=".47" stop-color="#19007d"/>
      <stop offset=".71" stop-color="#27008f"/>
      <stop offset="1" stop-color="#3c00aa"/>
    </radialGradient>
    <radialGradient id="Dégradé_sans_nom_605" data-name="Dégradé sans nom 605" cx="286.71" cy="208.99" fx="286.71" fy="208.99" r="213.26" gradientTransform="translate(0 2.48) scale(1 .99)" gradientUnits="userSpaceOnUse">
      <stop offset="0" stop-color="#0a006a"/>
      <stop offset=".11" stop-color="#0c026c"/>
      <stop offset=".18" stop-color="#130b74"/>
      <stop offset=".25" stop-color="#1f1b81"/>
      <stop offset=".3" stop-color="#303093"/>
      <stop offset=".36" stop-color="#474cab"/>
      <stop offset=".41" stop-color="#626ec9"/>
      <stop offset=".46" stop-color="#8296eb"/>
      <stop offset=".48" stop-color="#94adff"/>
      <stop offset=".56" stop-color="#8a9af5"/>
      <stop offset=".71" stop-color="#7168dd"/>
      <stop offset=".93" stop-color="#491ab7"/>
      <stop offset="1" stop-color="#3c00aa"/>
    </radialGradient>
  </defs>
  <g id="pierre">
    <ellipse class="cls-4" cx="287.97" cy="208.35" rx="286.47" ry="206.85"/>
    <g class="cls-9">
      <path class="cls-13" d="m556.55,206.24c0,105.01-123.15,196.27-268.58,196.27S22.88,307.03,22.88,202.03,140.77,11.89,286.2,11.89s270.35,89.34,270.35,194.35Z"/>
      <path class="cls-10" d="m556.75,206.24c.17,46.2-24.39,89.1-57.45,120.08-73.04,67.87-181.2,90.93-277.57,70.75-66.46-14.32-130.98-49.53-170.38-106.09-17.21-25.11-28.66-54.69-29.51-85.34-1.11-30.7,8.59-61.25,25.55-86.71C90.67,54.77,167.77,21.53,242.59,12.36c90.24-10.78,187.67,12.37,255.86,74.34,33.43,30.55,58.54,73.3,58.3,119.55h0Zm-.4,0c.09-62.18-44.61-114.34-95.54-145.08C383.14,14.15,286.2,2.83,198.64,24.83,113.98,45.28,22.66,110.25,24.05,205.58c.54,30.25,11.5,59.74,28.47,84.61,43.31,62.82,117.74,98.57,192.09,108.05,89.27,10.77,185.65-12.51,253.49-73.21,33.45-30.23,58.45-72.73,58.25-118.78h0Z"/>
    </g>
    <ellipse class="cls-1" cx="286.71" cy="208.5" rx="246.88" ry="168.37"/>
    <text/>
    <ellipse class="cls-12" cx="285.35" cy="208.16" rx="247.73" ry="170.36"/>
    <ellipse class="cls-3" cx="287.07" cy="208.34" rx="244.81" ry="166.93"/>
  </g>
  <g id="lumiere">
    <g id="lumiere2" class="cls-5">
      <path class="cls-6" d="m86.48,76.22C126.79,40.48,179.95,19.44,233.21,13.36c9.87-.99,20.01-1.53,29.91-1.47-63.33,4.13-126.11,25.54-176.64,64.33h0Z"/>
    </g>
    <g id="lumiere1" class="cls-5">
      <path class="cls-6" d="m296.75,403.84c46.86-3.22,93.88-12.16,136.51-32.43,14.11-6.78,27.68-14.78,40.26-24.25-5.91,5.21-12.23,9.96-18.78,14.37-46.41,30.43-103.05,42.34-158,42.31h0Z"/>
    </g>
  </g>
  <g id="deco">
    <path class="cls-6" d="m30.2,195.65c-1.07,0-1.99.63-2.43,1.53-.64-.06-4.9-.78-9.81-8.8-.62.5-2.72,2.1-2.72,2.1,0,0,3.26,4.33,8.25,6.35-.66.21-6.02-.5-10.44-4.66-.21.21-2.68,1.9-2.68,1.9,0,0,4.58,3.29,10.85,3.75-.87.25-7.88.37-13.61-1.82-.7.58-3.26,2.52-3.26,2.52l3.3,2.31s12.58-2.57,13.57-2.16c0,0-9.82,2.37-10.81,4.18.62.54,2.64,1.86,2.64,1.86,0,0,5.4-4.54,10.27-5.07-.37.62-4.21,1.9-7.63,6.52.95.66,3.09,2.19,3.09,2.19,0,0,2.05-6.32,8.91-8.95.41.98,1.37,1.68,2.51,1.68,1.5,0,2.71-1.21,2.71-2.71s-1.21-2.71-2.71-2.71Z"/>
    <path class="cls-6" d="m541.58,201.08c1.07,0,1.99-.63,2.43-1.53.64.06,4.9.78,9.81,8.8.62-.5,2.72-2.1,2.72-2.1,0,0-3.26-4.33-8.25-6.35.66-.21,6.02.5,10.44,4.66.21-.21,2.68-1.9,2.68-1.9,0,0-4.58-3.29-10.85-3.75.87-.25,7.88-.37,13.61,1.82.7-.58,3.26-2.52,3.26-2.52l-3.3-2.31s-12.58,2.57-13.57,2.16c0,0,9.82-2.37,10.81-4.18-.62-.54-2.64-1.86-2.64-1.86,0,0-5.4,4.54-10.27,5.07.37-.62,4.21-1.9,7.63-6.52-.95-.66-3.09-2.19-3.09-2.19,0,0-2.05,6.32-8.91,8.95-.41-.98-1.37-1.68-2.51-1.68-1.5,0-2.71,1.21-2.71,2.71s1.21,2.71,2.71,2.71Z"/>
    <path class="cls-6" d="m289.48,386.65c0,1.07-.63,1.99-1.53,2.43.06.64.78,4.9,8.8,9.81-.5.62-2.1,2.72-2.1,2.72,0,0-4.33-3.26-6.35-8.25-.21.66.5,6.02,4.66,10.44-.21.21-1.9,2.68-1.9,2.68,0,0-3.29-4.58-3.75-10.85-.25.87-.37,7.88,1.82,13.61-.58.7-2.52,3.26-2.52,3.26l-2.31-3.3s2.57-12.58,2.16-13.57c0,0-2.37,9.82-4.18,10.81-.54-.62-1.86-2.64-1.86-2.64,0,0,4.54-5.4,5.07-10.27-.62.37-1.9,4.21-6.52,7.63-.66-.95-2.19-3.09-2.19-3.09,0,0,6.32-2.05,8.95-8.91-.98-.41-1.68-1.37-1.68-2.51,0-1.5,1.21-2.71,2.71-2.71s2.71,1.21,2.71,2.71Z"/>
  </g>
  <g id="ecritureVecto">
    <g>
      <path class="cls-6" d="m275.49,352.31l.09-1.55c.25-.12.55-.23.93-.31s.78-.13,1.23-.13c.95,0,1.64.18,2.06.54.42.36.64.81.64,1.35,0,.51-.25,1-.76,1.47s-1.23,1.03-2.18,1.65c-.18.12-.39.26-.62.42s-.46.33-.68.5h4.46v1.21h-5.35v-.89c.6-.53,1.17-1.03,1.68-1.51.6-.55,1.04-1.04,1.32-1.47.29-.43.43-.88.43-1.36s-.1-.87-.31-1.17c-.2-.29-.5-.44-.9-.44-.26,0-.49.05-.69.17-.2.11-.37.3-.5.56l-.48.95h-.38Z"/>
      <path class="cls-6" d="m284.2,357.63c-.48,0-.94-.12-1.36-.37-.43-.25-.77-.64-1.03-1.17s-.39-1.24-.39-2.1.13-1.58.39-2.11.6-.93,1.03-1.18c.43-.25.88-.37,1.36-.37s.94.12,1.36.37c.42.25.77.64,1.03,1.18.26.54.39,1.24.39,2.11s-.13,1.57-.39,2.1c-.26.54-.61.93-1.03,1.17-.43.25-.88.37-1.36.37Zm0-.31c.21,0,.39-.05.54-.14.15-.1.27-.26.36-.5.09-.24.16-.58.21-1.01s.07-1,.07-1.68-.02-1.25-.07-1.69c-.04-.44-.11-.78-.21-1.02-.09-.24-.21-.41-.36-.51-.15-.09-.33-.14-.54-.14s-.38.05-.53.14-.27.26-.36.5c-.09.24-.16.58-.2,1.02-.04.44-.07,1-.07,1.69s.02,1.24.07,1.68.11.78.2,1.02c.09.24.21.41.36.5.15.09.33.14.53.14Z"/>
      <path class="cls-6" d="m287.61,357.47v-.21l.48-.13c.31-.09.47-.27.48-.55v-5.24l-1.02.12v-.25c.46-.07.91-.18,1.34-.33.44-.14.85-.32,1.25-.52l.15.11-.05,1.57v3.12c0,.19,0,.41,0,.67,0,.25,0,.5,0,.73,0,.29.16.47.47.56l.5.13v.21h-3.61Z"/>
      <path class="cls-6" d="m292.75,357.47l-.12-.11,3.97-5.75h-4.77v-1.13h5.36v.71l-2.89,6.28h-1.55Z"/>
    </g>
    <g>
      <path class="cls-6" d="m129.76,54.1l2.85-1.46,3.2,6.24,4.45-2.29,1.05,2.04-7.3,3.75-4.25-8.28Z"/>
      <path class="cls-6" d="m138.6,49.6l7.79-3.63.84,1.8-4.87,2.27.63,1.34,4.52-2.11.8,1.72-4.52,2.11.77,1.66,5.02-2.34.89,1.91-7.93,3.7-3.93-8.43Z"/>
      <path class="cls-6" d="m150.28,51.05l2.74-1.34c.23.38.49.64.77.78.45.22.96.21,1.52-.03.42-.18.71-.4.86-.68.15-.27.18-.53.08-.76-.09-.22-.29-.38-.58-.46-.29-.08-.87-.04-1.72.14-1.41.28-2.48.33-3.21.13-.74-.2-1.25-.63-1.53-1.3-.19-.44-.22-.92-.1-1.43s.42-1,.9-1.47c.48-.46,1.21-.91,2.21-1.33,1.22-.51,2.24-.7,3.05-.56.81.14,1.47.62,1.96,1.46l-2.72,1.32c-.24-.36-.51-.57-.82-.65-.31-.08-.67-.03-1.09.15-.34.14-.58.32-.69.52-.12.2-.14.4-.06.59.06.14.18.23.37.28.19.05.56.02,1.12-.1,1.4-.29,2.43-.43,3.09-.41.67.02,1.21.17,1.62.44s.72.64.92,1.11c.23.55.28,1.13.13,1.74-.14.61-.47,1.16-.98,1.65-.51.5-1.22.94-2.15,1.33-1.63.68-2.87.88-3.73.58-.86-.3-1.52-.86-1.97-1.69Z"/>
      <path class="cls-6" d="m169.81,43.01l-.65-1.82,4.67-1.67,1.33,3.74c-.7.86-1.36,1.52-1.97,1.96-.62.44-1.39.83-2.34,1.17-1.16.41-2.17.57-3.03.48-.86-.09-1.61-.42-2.27-.98-.65-.56-1.14-1.29-1.47-2.2-.34-.96-.42-1.87-.23-2.73.19-.86.64-1.63,1.36-2.3.56-.52,1.4-.98,2.52-1.38,1.08-.39,1.92-.59,2.52-.6.6-.02,1.14.1,1.62.34.49.24.92.61,1.3,1.12l-2.75,1.51c-.24-.29-.53-.47-.88-.54-.35-.07-.75-.03-1.19.13-.66.24-1.12.63-1.36,1.18-.25.55-.21,1.28.11,2.17.34.95.78,1.56,1.32,1.82s1.17.27,1.88.02c.34-.12.64-.28.92-.48s.57-.47.89-.82l-.29-.83-2.02.72Z"/>
      <path class="cls-6" d="m174.54,35.08l8.19-2.58.6,1.9-5.13,1.62.44,1.41,4.76-1.5.57,1.81-4.76,1.5.55,1.75,5.28-1.67.63,2.01-8.34,2.63-2.8-8.87Z"/>
      <path class="cls-6" d="m184.81,31.88l2.89-.8,5.14,3.92-1.37-4.96,2.91-.8,2.48,8.97-2.91.8-5.11-3.89,1.36,4.92-2.91.8-2.48-8.97Z"/>
      <path class="cls-6" d="m197.59,34.84l2.93-.88c.17.42.38.72.63.89.41.29.91.36,1.51.22.44-.11.77-.28.96-.53.2-.24.26-.49.21-.74-.06-.23-.22-.42-.49-.55-.27-.13-.85-.18-1.72-.14-1.43.05-2.5-.08-3.19-.4-.7-.32-1.13-.83-1.3-1.54-.11-.46-.07-.94.14-1.43.2-.49.58-.92,1.12-1.3.55-.38,1.35-.7,2.4-.95,1.29-.31,2.32-.33,3.1-.06.78.27,1.35.86,1.7,1.76l-2.9.86c-.18-.39-.41-.65-.7-.77-.29-.13-.66-.14-1.1-.03-.36.09-.62.22-.77.4-.15.18-.2.37-.16.57.03.14.14.26.32.33.18.08.55.11,1.13.08,1.43-.06,2.47-.03,3.12.1.65.13,1.16.36,1.53.7.36.34.6.75.72,1.24.14.58.09,1.16-.15,1.73-.24.58-.65,1.07-1.23,1.47-.58.41-1.36.73-2.34.96-1.72.41-2.98.4-3.78-.04-.8-.44-1.36-1.1-1.66-1.99Z"/>
      <path class="cls-6" d="m211.98,25.18l4.68-.88c.92-.17,1.69-.2,2.3-.08.61.12,1.14.35,1.59.7.45.35.81.79,1.08,1.31.27.53.47,1.1.58,1.72.18.98.2,1.76.06,2.34-.15.59-.41,1.1-.78,1.55-.37.45-.8.78-1.28.99-.66.3-1.27.5-1.83.6l-4.68.88-1.73-9.14Zm3.54,1.48l.94,5,.77-.15c.66-.12,1.11-.28,1.37-.46.25-.18.43-.45.52-.81.1-.36.07-.9-.06-1.63-.18-.97-.48-1.6-.9-1.89-.42-.29-1.04-.36-1.85-.21l-.79.15Z"/>
      <path class="cls-6" d="m223.23,23.11l8.49-1.32.31,1.96-5.31.83.23,1.46,4.93-.77.29,1.88-4.93.77.28,1.81,5.47-.85.32,2.08-8.64,1.35-1.43-9.2Z"/>
      <path class="cls-6" d="m248.73,27.76c.43.21.7.33.83.38.19.07.45.15.77.24l-.71,1.7c-.47-.15-.93-.33-1.4-.55-.46-.22-.79-.39-.98-.5-.67.35-1.54.58-2.6.7-1.57.17-2.84-.06-3.83-.7-1.16-.75-1.83-1.91-2-3.48-.17-1.52.17-2.76,1.02-3.7.84-.94,2.11-1.51,3.79-1.69,1.71-.19,3.08.08,4.1.81,1.02.72,1.61,1.85,1.78,3.39.15,1.37-.11,2.5-.77,3.4Zm-2.6-1.2c.21-.44.27-1.06.18-1.87-.1-.93-.37-1.58-.8-1.94-.43-.36-.99-.5-1.67-.43-.63.07-1.12.33-1.48.78-.35.45-.48,1.11-.38,1.98.11,1.01.38,1.7.81,2.06.43.37.98.51,1.65.44.22-.02.42-.06.61-.12-.29-.2-.74-.38-1.34-.52l.39-1.08c.29.02.51.05.68.1.16.05.49.19.98.43.12.06.24.11.37.17Z"/>
      <path class="cls-6" d="m257.7,19.07l3.19-.24.41,5.53c.04.55-.02,1.07-.17,1.57-.15.5-.42.95-.8,1.34-.38.39-.79.68-1.23.86-.61.25-1.34.41-2.21.47-.5.04-1.06.05-1.66.03-.6-.02-1.11-.11-1.52-.27-.41-.16-.8-.4-1.16-.72-.36-.32-.61-.66-.76-1.02-.24-.58-.38-1.09-.41-1.55l-.41-5.53,3.19-.23.42,5.66c.04.51.22.89.56,1.15.33.26.78.37,1.33.33.55-.04.97-.21,1.26-.52.29-.3.42-.71.38-1.23l-.42-5.66Z"/>
      <path class="cls-6" d="m263.22,18.71l8.58-.36.08,1.98-5.37.23.06,1.48,4.99-.21.08,1.9-4.99.21.08,1.83,5.53-.23.09,2.11-8.74.37-.39-9.3Zm4-2.63l2.47-.1-2.2,1.99-1.38.06,1.11-1.95Z"/>
      <path class="cls-6" d="m273.92,18.29l6-.07c1-.01,1.77.2,2.31.64.54.44.82.98.82,1.64,0,.55-.18,1.02-.56,1.42-.25.26-.62.48-1.11.64.75.15,1.3.42,1.66.81.36.39.54.88.55,1.47,0,.48-.11.92-.36,1.31-.25.39-.58.7-1.01.93-.27.14-.67.25-1.21.32-.72.09-1.2.14-1.44.14l-5.53.07-.11-9.31Zm3.28,3.61l1.39-.02c.5,0,.85-.09,1.04-.24.19-.16.29-.38.29-.67,0-.27-.1-.48-.3-.63-.2-.15-.54-.22-1.02-.22l-1.42.02.02,1.77Zm.04,3.66l1.63-.02c.55,0,.94-.1,1.16-.28.22-.18.34-.42.33-.71,0-.27-.12-.49-.34-.66-.23-.16-.62-.24-1.18-.24l-1.63.02.02,1.89Z"/>
      <path class="cls-6" d="m285.34,18.22l8.59.09-.02,1.99-5.38-.05v1.48s4.97.05,4.97.05l-.02,1.9-4.99-.05-.02,1.83,5.53.06-.02,2.11-8.75-.09.09-9.31Z"/>
      <path class="cls-6" d="m302.71,24.22l2.77.89c-.22.7-.55,1.27-.97,1.73-.43.45-.95.79-1.56,1-.61.21-1.38.3-2.31.25-1.13-.05-2.04-.24-2.74-.57-.7-.33-1.29-.87-1.78-1.64-.48-.76-.7-1.72-.64-2.88.07-1.54.58-2.7,1.53-3.48s2.26-1.14,3.93-1.06c1.31.06,2.32.35,3.05.85s1.25,1.26,1.56,2.26l-2.85.43c-.09-.29-.18-.5-.28-.64-.17-.23-.38-.41-.63-.54-.25-.13-.54-.2-.86-.22-.73-.03-1.29.2-1.7.71-.31.37-.49.98-.53,1.81-.05,1.03.09,1.74.42,2.14.33.4.81.61,1.44.64.61.03,1.08-.1,1.41-.4.33-.29.58-.73.75-1.31Z"/>
      <path class="cls-6" d="m311.33,25.49l3.05.1c.03.45.13.8.31,1.05.29.4.75.63,1.36.69.46.04.82-.02,1.08-.19.26-.17.41-.38.43-.63.02-.24-.08-.47-.29-.68-.22-.21-.75-.44-1.59-.69-1.38-.41-2.34-.87-2.89-1.4-.56-.52-.81-1.15-.74-1.87.04-.48.24-.91.58-1.31.35-.4.84-.69,1.48-.87.64-.19,1.5-.23,2.57-.13,1.32.12,2.31.43,2.96.93.65.5,1,1.24,1.05,2.21l-3.02-.11c-.04-.42-.18-.74-.42-.96-.24-.21-.58-.34-1.03-.38-.37-.03-.66.01-.86.14-.2.12-.31.29-.33.49-.01.15.05.29.2.42.14.14.49.28,1.04.44,1.37.4,2.35.76,2.93,1.09.58.33.99.71,1.23,1.15.24.43.33.9.29,1.41-.05.59-.29,1.13-.7,1.59-.41.47-.96.8-1.64,1-.68.2-1.52.25-2.52.16-1.76-.16-2.95-.57-3.57-1.24-.62-.67-.93-1.47-.94-2.42Z"/>
      <path class="cls-6" d="m323.06,20.33l8.53,1.02-.24,1.97-5.34-.64-.18,1.47,4.95.59-.23,1.88-4.95-.59-.22,1.82,5.5.66-.25,2.09-8.69-1.04,1.11-9.24Z"/>
      <path class="cls-6" d="m336.99,28.4l3.04.33c0,.45.07.81.23,1.07.26.42.7.69,1.3.79.45.07.81.04,1.09-.11.28-.15.43-.35.48-.6.04-.24-.04-.47-.24-.7-.2-.23-.71-.49-1.53-.8-1.34-.51-2.27-1.04-2.79-1.6-.52-.56-.72-1.2-.6-1.92.08-.47.3-.89.68-1.26.38-.37.89-.62,1.54-.76.65-.14,1.51-.12,2.58.05,1.31.22,2.27.6,2.88,1.15.62.55.91,1.31.88,2.28l-3.01-.33c-.01-.43-.13-.75-.35-.98-.22-.23-.56-.38-1-.45-.37-.06-.66-.04-.87.07-.21.11-.33.26-.36.46-.02.15.03.29.17.43.13.15.46.32,1.01.51,1.34.49,2.29.93,2.84,1.3.55.37.93.78,1.14,1.23.21.45.27.93.19,1.43-.1.59-.37,1.1-.81,1.54-.44.44-1.01.73-1.71.88-.7.15-1.54.14-2.53-.02-1.74-.29-2.9-.78-3.47-1.5-.57-.71-.83-1.54-.76-2.48Z"/>
      <path class="cls-6" d="m347.82,28.6c.3-1.49.99-2.56,2.08-3.21,1.09-.65,2.46-.81,4.11-.48,1.69.34,2.92,1,3.67,2,.75,1,.99,2.23.7,3.7-.21,1.07-.58,1.9-1.12,2.51-.54.6-1.22,1.02-2.05,1.25-.83.23-1.81.23-2.94,0-1.15-.23-2.07-.58-2.75-1.06-.69-.48-1.19-1.12-1.52-1.92-.33-.8-.38-1.74-.17-2.8Zm3.14.64c-.18.92-.12,1.62.18,2.1.3.48.78.78,1.44.91.68.13,1.24.04,1.69-.28.45-.32.77-.99.97-2.01.17-.86.1-1.53-.21-2-.31-.47-.79-.78-1.46-.91-.63-.13-1.18-.03-1.65.3-.46.33-.79.96-.97,1.88Z"/>
      <path class="cls-6" d="m367.77,28.09l3.11.73-1.27,5.4c-.13.54-.34,1.02-.64,1.45-.3.43-.69.78-1.17,1.04-.48.26-.96.41-1.43.46-.65.06-1.41-.01-2.26-.21-.49-.12-1.02-.27-1.59-.47-.57-.2-1.02-.44-1.37-.71-.35-.27-.64-.62-.89-1.03-.25-.41-.38-.81-.42-1.2-.06-.62-.03-1.15.07-1.6l1.27-5.4,3.11.73-1.3,5.52c-.12.49-.05.92.19,1.27s.63.59,1.17.72c.54.13.99.09,1.36-.11.37-.2.61-.55.73-1.06l1.3-5.53Z"/>
      <path class="cls-6" d="m372.2,29.15l3.23.88.49,7.08,3.99-5.85,3.14.86-6.17,7.96-3.35-.92-1.33-10.01Z"/>
      <path class="cls-6" d="m384.35,32.54l3.08.93-2.68,8.91-3.08-.93,2.69-8.91Z"/>
      <path class="cls-6" d="m389.8,34.18l8.16,2.69-.62,1.89-5.11-1.68-.46,1.4,4.74,1.56-.59,1.8-4.74-1.56-.57,1.74,5.26,1.73-.66,2-8.31-2.74,2.91-8.84Z"/>
      <path class="cls-6" d="m400.01,37.57l2.81,1.04,1.88,6.18,1.79-4.83,2.83,1.05-3.23,8.73-2.83-1.05-1.87-6.14-1.77,4.79-2.83-1.05,3.23-8.73Z"/>
      <path class="cls-6" d="m411.59,41.91l2.76,1.15,1.62,6.25,1.98-4.75,2.79,1.16-3.58,8.59-2.79-1.16-1.62-6.21-1.96,4.72-2.78-1.16,3.58-8.59Z"/>
      <path class="cls-6" d="m422.94,46.7l7.8,3.61-.83,1.8-4.88-2.26-.62,1.34,4.53,2.1-.8,1.72-4.53-2.1-.77,1.66,5.02,2.33-.89,1.91-7.94-3.68,3.91-8.44Z"/>
      <path class="cls-6" d="m432.7,51.26l2.66,1.37,1.12,6.36,2.35-4.58,2.69,1.38-4.25,8.28-2.69-1.38-1.12-6.32-2.33,4.55-2.68-1.38,4.25-8.28Z"/>
      <path class="cls-6" d="m443.03,56.6l8.47,4.81-1.13,2-2.84-1.62-3.46,6.09-2.79-1.58,3.46-6.09-2.84-1.61,1.13-2Z"/>
    </g>
    <g>
      <path class="cls-2" d="m252.05,71.73l-3.61-10.87,1.4-.46,3.61,10.87-1.4.46Z"/>
      <path class="cls-2" d="m262.39,64.76l1.53.03c-.02,1.33-.35,2.39-1,3.2-.65.81-1.54,1.34-2.68,1.61-1,.24-1.91.24-2.72,0s-1.55-.77-2.22-1.57c-.67-.8-1.15-1.83-1.45-3.07-.29-1.23-.31-2.32-.06-3.28.25-.96.71-1.74,1.39-2.36.67-.62,1.48-1.04,2.44-1.27,1.05-.25,2.01-.19,2.89.18.88.37,1.6,1.05,2.15,2.04l-1.32.68c-.85-1.43-2-1.97-3.44-1.63-.72.17-1.31.48-1.76.91-.46.44-.76,1.02-.92,1.76s-.12,1.61.12,2.62c.36,1.53.95,2.59,1.77,3.21.82.61,1.75.79,2.81.54.78-.19,1.4-.58,1.85-1.18.46-.6.67-1.41.63-2.4Z"/>
      <path class="cls-2" d="m266.68,68.12l-1.79-11.31,1.45-.23,1.79,11.31-1.45.23Z"/>
      <path class="cls-2" d="m277.85,66.88l-4.92-11.21,1.59-.08,3.34,8.15c.26.63.48,1.25.68,1.84.14-.64.3-1.27.49-1.9l2.57-8.47,1.5-.08-3.73,11.67-1.51.08Z"/>
      <path class="cls-2" d="m284.82,66.6l.37-11.45,8.04.26-.04,1.35-6.56-.21-.11,3.5,6.15.2-.04,1.35-6.15-.2-.13,3.9,6.82.22-.04,1.35-8.29-.27Zm3.45-12.13l1.08-2.15,1.78.06-1.74,2.13-1.13-.04Z"/>
      <path class="cls-2" d="m303.23,63.99l1.42.56c-.48,1.24-1.17,2.12-2.06,2.65-.89.53-1.92.72-3.08.58-1.02-.13-1.87-.45-2.54-.96-.67-.51-1.18-1.26-1.53-2.25-.35-.99-.44-2.12-.29-3.38.15-1.25.52-2.28,1.09-3.09.57-.81,1.28-1.39,2.12-1.73.84-.34,1.75-.46,2.73-.34,1.07.13,1.95.53,2.65,1.18.7.65,1.13,1.54,1.3,2.66l-1.47.17c-.3-1.64-1.18-2.55-2.66-2.73-.74-.09-1.39-.01-1.97.24-.58.25-1.07.69-1.48,1.33s-.67,1.46-.8,2.49c-.19,1.56-.01,2.77.54,3.62.55.86,1.37,1.36,2.44,1.49.8.1,1.51-.06,2.15-.46.64-.41,1.12-1.08,1.43-2.03Z"/>
      <path class="cls-2" d="m315.36,58.91l1.43.33-1.48,6.45c-.25,1.08-.58,1.94-.99,2.58s-.99,1.08-1.74,1.33c-.75.25-1.63.26-2.65.03-1.43-.33-2.42-.93-2.96-1.82-.55-.88-.61-2.24-.19-4.07l1.48-6.45,1.43.33-1.48,6.44c-.23,1.01-.31,1.76-.22,2.26.08.5.31.91.68,1.24.37.33.86.57,1.46.71,1.02.24,1.82.16,2.39-.22.57-.38,1.02-1.28,1.34-2.69l1.48-6.44Z"/>
      <path class="cls-2" d="m319.02,71.96l3.32-9.54-3.46-1.2.44-1.28,8.33,2.9-.44,1.28-3.48-1.21-3.32,9.54-1.39-.48Z"/>
    </g>
    <g>
      <path class="cls-6" d="m296.24,314.94l.74.11c-.14.4-.36.71-.65.92-.29.21-.63.32-1.02.32-.44,0-.78-.13-1.03-.4-.25-.26-.37-.65-.37-1.15,0-.41.08-.78.25-1.12s.39-.6.69-.77c.29-.18.61-.27.96-.27.39,0,.7.1.94.31.24.21.38.49.42.85l-.71.07c-.04-.21-.11-.36-.23-.45s-.26-.14-.45-.14c-.2,0-.39.06-.57.19-.18.12-.32.32-.42.58s-.16.53-.16.79c0,.29.07.51.21.66s.31.23.51.23c.19,0,.37-.06.52-.19.16-.12.28-.31.36-.55Z"/>
      <path class="cls-6" d="m297.79,313.64h.7l-.32,1.54c-.04.18-.06.3-.06.34,0,.08.03.14.08.19.06.05.13.08.21.08.06,0,.12-.01.18-.04s.12-.06.19-.11.12-.1.17-.17.1-.14.14-.24c.03-.08.06-.2.1-.37l.26-1.24h.7l-.54,2.59h-.65l.07-.35c-.29.28-.6.41-.94.41-.21,0-.38-.06-.5-.18-.12-.12-.18-.29-.18-.49,0-.09.03-.27.08-.53l.3-1.45Z"/>
      <path class="cls-6" d="m300.3,316.23l.75-3.58h.7l-.75,3.58h-.7Z"/>
      <path class="cls-6" d="m301.87,314.16l.11-.52h.34l.08-.42.8-.48-.19.9h.43l-.11.52h-.43l-.23,1.09c-.04.2-.06.31-.06.34,0,.05.02.1.05.13.03.03.1.04.19.04.03,0,.11,0,.23-.02l-.11.52c-.12.02-.24.04-.37.04-.25,0-.43-.05-.54-.14-.11-.09-.17-.23-.17-.4,0-.08.03-.26.09-.55l.22-1.04h-.34Z"/>
      <path class="cls-6" d="m303.9,313.64h.7l-.32,1.54c-.04.18-.06.3-.06.34,0,.08.03.14.08.19.06.05.13.08.21.08.06,0,.12-.01.18-.04s.12-.06.19-.11.12-.1.17-.17.1-.14.14-.24c.03-.08.06-.2.1-.37l.26-1.24h.7l-.54,2.59h-.65l.07-.35c-.29.28-.6.41-.94.41-.21,0-.38-.06-.5-.18-.12-.12-.18-.29-.18-.49,0-.09.03-.27.08-.53l.3-1.45Z"/>
      <path class="cls-6" d="m306.92,313.64h.65l-.11.5c.24-.38.51-.56.79-.56.1,0,.21.03.33.08l-.27.57c-.06-.02-.13-.04-.2-.04-.12,0-.24.05-.37.14-.12.09-.22.21-.29.37s-.14.39-.21.72l-.17.81h-.7l.54-2.59Z"/>
      <path class="cls-6" d="m310.89,315.15h-1.76s0,.05,0,.06c0,.17.05.31.15.42.1.11.22.16.36.16.23,0,.41-.12.54-.36l.63.11c-.12.25-.29.44-.49.57s-.43.19-.69.19c-.35,0-.63-.11-.85-.33-.22-.22-.33-.51-.33-.88s.1-.67.29-.95c.27-.38.65-.56,1.15-.56.32,0,.57.1.76.29.19.2.28.47.28.82,0,.17-.02.32-.05.46Zm-.59-.43s0-.05,0-.07c0-.19-.04-.34-.13-.43-.09-.1-.2-.14-.35-.14s-.27.05-.39.16c-.11.11-.19.27-.23.48h1.1Z"/>
      <path class="cls-6" d="m296.17,321.15h-1.76s0,.05,0,.06c0,.17.05.31.15.42.1.11.22.16.36.16.23,0,.41-.12.54-.36l.63.11c-.12.25-.29.44-.49.57s-.43.19-.69.19c-.35,0-.63-.11-.85-.33-.22-.22-.33-.51-.33-.88s.1-.67.29-.95c.27-.38.65-.56,1.15-.56.32,0,.57.1.76.29.19.2.28.47.28.82,0,.17-.02.32-.05.46Zm-.59-.43s0-.05,0-.07c0-.19-.04-.34-.13-.43-.09-.1-.2-.14-.35-.14s-.27.05-.39.16c-.11.11-.19.27-.23.48h1.1Z"/>
      <path class="cls-6" d="m296.6,320.16l.11-.52h.34l.08-.42.8-.48-.19.9h.43l-.11.52h-.43l-.23,1.09c-.04.2-.06.31-.06.34,0,.05.02.1.05.13.03.03.1.04.19.04.03,0,.11,0,.23-.02l-.11.52c-.12.02-.24.04-.37.04-.25,0-.43-.05-.54-.14-.11-.09-.17-.23-.17-.4,0-.08.03-.26.09-.55l.22-1.04h-.34Z"/>
      <path class="cls-6" d="m301.24,321.26l.68.11c-.11.3-.28.53-.5.69-.22.16-.47.24-.76.24-.33,0-.59-.1-.79-.29s-.29-.47-.29-.81c0-.28.06-.55.18-.8s.29-.45.53-.59c.24-.14.5-.22.78-.22.31,0,.55.08.73.24.18.16.29.37.31.63l-.67.07c-.02-.14-.06-.25-.13-.32s-.17-.1-.28-.1c-.13,0-.26.05-.38.15-.12.1-.21.25-.27.45s-.09.39-.09.57c0,.15.04.27.11.35.08.08.17.12.28.12s.22-.04.33-.12.19-.2.24-.37Z"/>
      <path class="cls-6" d="m302.36,321.16c0-.48.14-.86.41-1.15.27-.29.63-.43,1.07-.43.38,0,.68.11.9.32s.32.49.32.85c0,.42-.13.78-.4,1.09-.27.31-.63.46-1.08.46-.24,0-.46-.05-.65-.15s-.33-.24-.42-.41c-.09-.18-.14-.37-.14-.58Zm2-.5c0-.17-.05-.3-.15-.4-.1-.1-.22-.15-.38-.15s-.29.05-.4.14-.21.23-.27.41c-.07.18-.1.34-.1.49,0,.19.05.33.15.44s.23.16.38.16c.19,0,.35-.08.48-.25.19-.23.28-.52.28-.85Z"/>
      <path class="cls-6" d="m305.84,319.64h.66l-.07.32c.26-.25.53-.38.81-.38.2,0,.35.04.45.12.11.08.17.19.2.34.09-.13.22-.24.39-.33s.34-.13.52-.13c.21,0,.37.06.48.17.12.11.17.26.17.44,0,.09-.02.24-.07.46l-.33,1.58h-.7l.33-1.58c.04-.2.06-.31.06-.34,0-.07-.02-.13-.06-.17-.04-.04-.11-.06-.19-.06-.17,0-.33.09-.47.28-.1.13-.18.37-.25.7l-.25,1.18h-.7l.33-1.57c.04-.18.06-.3.06-.35,0-.07-.02-.12-.07-.17-.05-.04-.11-.07-.19-.07-.08,0-.16.02-.24.07-.08.05-.15.11-.21.19-.06.08-.11.18-.16.31-.02.06-.05.19-.09.4l-.25,1.19h-.7l.54-2.59Z"/>
      <path class="cls-6" d="m310.28,319.64h.66l-.07.32c.26-.25.53-.38.81-.38.2,0,.35.04.45.12.11.08.17.19.2.34.09-.13.22-.24.39-.33s.34-.13.52-.13c.21,0,.37.06.48.17.12.11.17.26.17.44,0,.09-.02.24-.07.46l-.33,1.58h-.7l.33-1.58c.04-.2.06-.31.06-.34,0-.07-.02-.13-.06-.17-.04-.04-.11-.06-.19-.06-.17,0-.33.09-.47.28-.1.13-.18.37-.25.7l-.25,1.18h-.7l.33-1.57c.04-.18.06-.3.06-.35,0-.07-.02-.12-.07-.17-.05-.04-.11-.07-.19-.07-.08,0-.16.02-.24.07-.08.05-.15.11-.21.19-.06.08-.11.18-.16.31-.02.06-.05.19-.09.4l-.25,1.19h-.7l.54-2.59Z"/>
      <path class="cls-6" d="m314.74,319.64h.7l-.32,1.54c-.04.18-.06.3-.06.34,0,.08.03.14.08.19.06.05.13.08.21.08.06,0,.12-.01.18-.04s.12-.06.19-.11.12-.1.17-.17.1-.14.14-.24c.03-.08.06-.2.1-.37l.26-1.24h.7l-.54,2.59h-.65l.07-.35c-.29.28-.6.41-.94.41-.21,0-.38-.06-.5-.18-.12-.12-.18-.29-.18-.49,0-.09.03-.27.08-.53l.3-1.45Z"/>
      <path class="cls-6" d="m317.81,319.64h.66l-.07.34c.17-.14.32-.25.46-.31.14-.06.3-.09.46-.09.21,0,.38.06.5.18s.18.28.18.49c0,.09-.03.26-.08.52l-.31,1.47h-.7l.31-1.47c.05-.22.07-.35.07-.39,0-.09-.03-.16-.08-.21-.05-.05-.13-.08-.22-.08-.1,0-.22.04-.34.13-.12.09-.22.2-.29.34-.05.1-.11.31-.18.62l-.22,1.06h-.7l.54-2.59Z"/>
      <path class="cls-6" d="m320.86,319.64h.7l-.54,2.59h-.7l.54-2.59Zm.21-.99h.7l-.13.63h-.7l.13-.63Z"/>
      <path class="cls-6" d="m323.46,321.26l.68.11c-.11.3-.28.53-.5.69-.22.16-.47.24-.76.24-.33,0-.59-.1-.79-.29s-.29-.47-.29-.81c0-.28.06-.55.18-.8s.29-.45.53-.59c.24-.14.5-.22.78-.22.31,0,.55.08.73.24.18.16.29.37.31.63l-.67.07c-.02-.14-.06-.25-.13-.32s-.17-.1-.28-.1c-.13,0-.26.05-.38.15-.12.1-.21.25-.27.45-.06.2-.09.39-.09.57,0,.15.04.27.11.35.08.08.17.12.28.12s.22-.04.33-.12.19-.2.24-.37Z"/>
      <path class="cls-6" d="m325.47,320.38l-.68-.06c.08-.23.21-.41.41-.54.19-.13.45-.2.77-.2s.58.07.74.2c.16.13.24.3.24.49,0,.08,0,.16-.02.25s-.06.32-.15.69c-.07.31-.1.53-.1.65,0,.11.02.23.06.37h-.68c-.03-.09-.04-.19-.05-.29-.1.11-.22.2-.35.26-.13.06-.27.09-.4.09-.21,0-.39-.07-.53-.21s-.21-.32-.21-.54c0-.25.08-.45.23-.59.15-.15.43-.24.82-.27.33-.03.56-.06.67-.1.03-.1.04-.18.04-.23,0-.08-.03-.14-.09-.19-.06-.05-.15-.08-.27-.08-.12,0-.22.03-.3.08-.07.05-.12.12-.15.22Zm.67.65s-.1.02-.17.03c-.35.04-.58.1-.69.19-.08.06-.11.14-.11.24,0,.08.03.15.09.21.06.06.14.08.23.08.11,0,.21-.03.3-.08.09-.05.16-.12.21-.2.05-.08.09-.21.12-.38l.02-.09Z"/>
      <path class="cls-6" d="m327.44,320.16l.11-.52h.34l.08-.42.8-.48-.19.9h.43l-.11.52h-.43l-.23,1.09c-.04.2-.06.31-.06.34,0,.05.02.1.05.13.03.03.1.04.19.04.03,0,.11,0,.23-.02l-.11.52c-.12.02-.24.04-.37.04-.25,0-.43-.05-.54-.14-.11-.09-.17-.23-.17-.4,0-.08.03-.26.09-.55l.22-1.04h-.34Z"/>
      <path class="cls-6" d="m329.47,319.64h.7l-.54,2.59h-.7l.54-2.59Zm.21-.99h.7l-.13.63h-.7l.13-.63Z"/>
      <path class="cls-6" d="m330.42,321.16c0-.48.14-.86.41-1.15.27-.29.63-.43,1.07-.43.38,0,.68.11.9.32s.32.49.32.85c0,.42-.13.78-.4,1.09-.27.31-.63.46-1.08.46-.24,0-.46-.05-.65-.15s-.33-.24-.42-.41c-.09-.18-.14-.37-.14-.58Zm2-.5c0-.17-.05-.3-.15-.4-.1-.1-.22-.15-.38-.15s-.29.05-.4.14-.21.23-.27.41c-.07.18-.1.34-.1.49,0,.19.05.33.15.44s.23.16.38.16c.19,0,.35-.08.48-.25.19-.23.28-.52.28-.85Z"/>
      <path class="cls-6" d="m333.93,319.64h.66l-.07.34c.17-.14.32-.25.46-.31.14-.06.3-.09.46-.09.21,0,.38.06.5.18s.18.28.18.49c0,.09-.03.26-.08.52l-.31,1.47h-.7l.31-1.47c.05-.22.07-.35.07-.39,0-.09-.03-.16-.08-.21-.05-.05-.13-.08-.22-.08-.1,0-.22.04-.34.13-.12.09-.22.2-.29.34-.05.1-.11.31-.18.62l-.22,1.06h-.7l.54-2.59Z"/>
      <path class="cls-6" d="m336.34,321.51l.68-.11c.06.14.13.24.22.3.09.06.21.09.37.09s.29-.04.38-.11c.07-.05.1-.11.1-.18,0-.05-.02-.09-.05-.13-.04-.04-.13-.08-.29-.13-.42-.14-.69-.25-.79-.33-.16-.13-.24-.29-.24-.5s.08-.38.23-.53c.21-.21.53-.31.95-.31.33,0,.59.06.76.18.17.12.28.29.33.5l-.65.11c-.03-.09-.09-.17-.17-.21-.1-.06-.23-.09-.38-.09s-.25.02-.32.07-.1.11-.1.17.03.12.1.16c.04.03.17.07.39.14.34.1.57.2.69.29.16.13.24.3.24.49,0,.25-.1.46-.31.64-.21.18-.5.27-.87.27s-.66-.07-.87-.21-.34-.33-.42-.58Z"/>
    </g>
  </g>
  <g id="ecritureNonVecto">
    <text class="cls-8" transform="translate(274.87 357.48) scale(1.11 1)"><tspan x="0" y="0">2017</tspan></text>
  </g>
  <g id="Calque_10" data-name="Calque 10">
    <g>
      <path class="cls-6" d="m214.69,138.92v-1.03l1.03-.29c.65-.2,1.07-.48,1.25-.86.18-.38.27-.91.27-1.59.03-1.89.05-3.79.05-5.68v-13.43c0-1.89-.02-3.79-.05-5.68,0-.69-.08-1.22-.25-1.59-.16-.38-.57-.66-1.22-.86l-1.08-.34v-1.03h13.72c3.82,0,6.77.73,8.84,2.18,2.07,1.45,3.11,3.49,3.11,6.1,0,1.44-.56,2.89-1.69,4.36-1.13,1.47-2.85,2.6-5.17,3.38l6.66,12.99c.55,1.08,1.42,1.81,2.6,2.21l.93.2v.98h-8.67l-7.3-15.29h-3.53v6.27c0,1.86.02,3.61.05,5.24,0,.65.11,1.18.32,1.57.21.39.63.67,1.25.83l1.18.34v1.03h-12.3Zm9.51-16.71h2.65c2.32,0,4.02-.59,5.1-1.76,1.08-1.18,1.62-2.97,1.62-5.39s-.51-4.21-1.54-5.37c-1.03-1.16-2.69-1.74-4.97-1.74h-2.79c0,1.27,0,2.57-.02,3.9-.02,1.32-.02,2.81-.02,4.46v5.9Z"/>
      <path class="cls-6" d="m256.73,139.61c-2.42,0-4.53-.51-6.35-1.52-1.81-1.01-3.22-2.45-4.21-4.31-1-1.86-1.5-4.08-1.5-6.66s.53-4.8,1.59-6.66c1.06-1.86,2.5-3.29,4.31-4.29,1.81-1,3.86-1.49,6.15-1.49s4.34.5,6.15,1.49c1.81,1,3.25,2.42,4.31,4.26,1.06,1.85,1.59,4.08,1.59,6.69s-.5,4.81-1.49,6.69c-1,1.88-2.39,3.32-4.19,4.31-1.8,1-3.92,1.49-6.37,1.49Zm0-1.37c1.18,0,2.13-.32,2.87-.96.74-.64,1.27-1.76,1.59-3.36.33-1.6.49-3.84.49-6.71s-.16-5.17-.49-6.79c-.33-1.62-.86-2.74-1.59-3.38-.74-.64-1.69-.96-2.87-.96s-2.12.32-2.84.96c-.72.64-1.25,1.76-1.59,3.38-.34,1.62-.51,3.88-.51,6.79s.17,5.11.51,6.71c.34,1.6.87,2.72,1.59,3.36.72.64,1.67.96,2.84.96Z"/>
      <path class="cls-6" d="m278.93,139.56l-8.04-.64v-.93l.49-.1c1.27-.29,1.91-1.11,1.91-2.45v-25.48c0-.65-.12-1.16-.37-1.52-.25-.36-.69-.62-1.35-.78l-.64-.15v-.88l8.38-2.11.64.44-.2,6.91v5.15c2.32-1.57,4.82-2.35,7.5-2.35s5.01,1,6.81,3.01c1.8,2.01,2.7,5.1,2.7,9.29,0,2.78-.46,5.1-1.37,6.98-.92,1.88-2.14,3.29-3.67,4.24-1.54.95-3.23,1.42-5.1,1.42-1.24,0-2.47-.16-3.7-.49-1.22-.33-2.31-.83-3.26-1.52l-.74,1.96Zm5.39-2.11c1.08,0,2.03-.31,2.84-.93.82-.62,1.45-1.68,1.91-3.19.46-1.5.69-3.56.69-6.17s-.21-4.66-.64-6.12c-.43-1.47-1.04-2.5-1.84-3.09-.8-.59-1.76-.88-2.87-.88-1.47,0-2.97.42-4.51,1.27v17.89c1.34.82,2.81,1.22,4.41,1.22Z"/>
      <path class="cls-6" d="m311.51,114.67c2.06,0,3.82.42,5.29,1.27,1.47.85,2.6,2.02,3.41,3.5.8,1.49,1.2,3.19,1.2,5.12,0,.42-.02.83-.05,1.2-.03.38-.1.73-.2,1.05h-14.75c.03,3.36.66,5.78,1.89,7.25,1.23,1.47,3.01,2.21,5.37,2.21,1.63,0,2.96-.27,3.97-.81,1.01-.54,1.94-1.3,2.79-2.28l.78.73c-.98,1.8-2.31,3.19-3.99,4.19s-3.68,1.49-6,1.49-4.36-.49-6.12-1.47c-1.76-.98-3.14-2.39-4.14-4.24-1-1.85-1.5-4.06-1.5-6.64s.58-4.95,1.74-6.81c1.16-1.86,2.66-3.29,4.51-4.29,1.84-1,3.78-1.49,5.81-1.49Zm-.25,1.42c-.95,0-1.77.27-2.47.81-.7.54-1.26,1.49-1.67,2.84-.41,1.36-.65,3.26-.71,5.71h8.77c.36-3.3.23-5.68-.39-7.15-.62-1.47-1.8-2.21-3.53-2.21Z"/>
      <path class="cls-6" d="m323.91,138.92v-.93l.73-.24c.65-.16,1.1-.44,1.35-.83.25-.39.37-.91.37-1.57v-14.36c-.03-.72-.16-1.27-.39-1.64-.23-.38-.67-.63-1.32-.76l-.73-.2v-.88l7.99-2.84.59.54.44,4.31v.34c.49-.91,1.11-1.76,1.86-2.55.75-.78,1.57-1.42,2.45-1.91.88-.49,1.76-.73,2.65-.73,1.24,0,2.17.33,2.79.98.62.65.93,1.49.93,2.5,0,1.11-.31,1.95-.93,2.52-.62.57-1.37.86-2.25.86-1.31,0-2.43-.59-3.38-1.76l-.1-.1c-.33-.39-.7-.61-1.1-.66-.41-.05-.81.16-1.2.61-.33.33-.63.71-.91,1.15-.28.44-.53.96-.76,1.54v12.84c0,.62.13,1.14.39,1.54.26.41.7.69,1.32.86l1.47.44v.93h-12.25Z"/>
      <path class="cls-6" d="m354.92,139.61c-2.03,0-3.62-.5-4.78-1.49-1.16-1-1.74-2.62-1.74-4.88,0-.78,0-1.53.02-2.23.02-.7.03-1.53.03-2.47v-11.61h-3.48v-1.08l1.32-.2c.95-.16,1.76-.46,2.43-.88.67-.42,1.28-1.01,1.84-1.76l3.19-4.41h1.47l-.15,6.81h5.59v1.52h-5.63v16.71c0,1.18.25,2.06.76,2.65.51.59,1.13.88,1.89.88.65,0,1.24-.15,1.76-.47.52-.31,1.04-.73,1.57-1.25l.64.73c-.62,1.08-1.49,1.92-2.6,2.52-1.11.6-2.48.91-4.12.91Z"/>
      <path class="cls-6" d="m187.91,194.92v-1.03l.78-.25c.69-.26,1.15-.6,1.4-1.03.25-.42.37-1,.37-1.71.03-1.86.05-3.73.05-5.61v-7.42c0-1.89,0-3.78-.02-5.66-.02-1.88-.02-3.76-.02-5.66,0-.78-.11-1.38-.34-1.79-.23-.41-.7-.73-1.42-.96l-.78-.24v-1.03h13.82c3.92,0,6.76.73,8.53,2.18,1.76,1.45,2.65,3.29,2.65,5.51,0,1.7-.62,3.23-1.86,4.58-1.24,1.36-3.41,2.33-6.52,2.92,3.59.39,6.19,1.32,7.79,2.79,1.6,1.47,2.4,3.27,2.4,5.39,0,1.05-.23,2.1-.69,3.16-.46,1.06-1.23,2.03-2.33,2.92s-2.57,1.59-4.43,2.13c-1.86.54-4.21.81-7.06.81h-12.3Zm9.55-17.54h2.3c2.22,0,3.83-.5,4.83-1.49s1.49-2.7,1.49-5.12-.46-4.28-1.37-5.29c-.91-1.01-2.35-1.52-4.31-1.52h-2.94v13.43Zm0,16.12h2.7c2.45,0,4.28-.6,5.49-1.81,1.21-1.21,1.81-3.15,1.81-5.83s-.58-4.4-1.74-5.46c-1.16-1.06-3.06-1.59-5.71-1.59h-2.55v14.7Z"/>
      <path class="cls-6" d="m216.13,194.92v-1.03l.98-.29c.69-.23,1.13-.53,1.32-.91.2-.38.29-.91.29-1.59v-24.79c0-.65-.1-1.17-.29-1.54-.2-.38-.62-.68-1.27-.91l-1.03-.29v-1.03h12.15v1.03l-.93.29c-.62.23-1.04.54-1.25.93-.21.39-.32.93-.32,1.62v27.05h7.2c1.11,0,1.94-.28,2.5-.83.55-.55,1.08-1.35,1.57-2.4l1.81-4.07h1.37l-.49,8.77h-23.62Z"/>
      <path class="cls-6" d="m241.81,194.92v-1.03l1.32-.39c.69-.2,1.22-.49,1.59-.88.38-.39.68-.93.91-1.62l9.9-28.62h4.07l9.85,28.81c.26.72.56,1.27.88,1.64.33.38.85.68,1.57.91l.74.2v.98h-12.45v-.98l.83-.25c.72-.23,1.15-.59,1.3-1.08.15-.49.11-1.09-.12-1.81l-2.06-6.32h-10.83l-2.11,6.22c-.23.72-.29,1.31-.2,1.76.1.46.51.82,1.22,1.08l1.08.34v1.03h-7.5Zm7.99-11.86h9.9l-4.8-14.75-5.1,14.75Z"/>
      <path class="cls-6" d="m277.58,194.92v-1.03l1.96-.39c1.37-.29,2.06-1.09,2.06-2.4v-20.24c0-2.29-.02-4.57-.05-6.86h-3.87c-1.05,0-1.81.28-2.3.83-.49.56-.98,1.34-1.47,2.35l-1.72,3.63h-1.37l.24-8.28h28.13l.25,8.28h-1.37l-1.71-3.63c-.49-1.01-.98-1.8-1.47-2.35-.49-.56-1.26-.83-2.3-.83h-3.92v27.1c0,1.34.69,2.14,2.06,2.4l2.01.39v1.03h-15.14Z"/>
      <path class="cls-6" d="m308.4,194.92v-1.03l1.96-.39c1.37-.29,2.06-1.09,2.06-2.4v-20.24c0-2.29-.02-4.57-.05-6.86h-3.87c-1.05,0-1.81.28-2.3.83-.49.56-.98,1.34-1.47,2.35l-1.72,3.63h-1.37l.24-8.28h28.13l.25,8.28h-1.37l-1.71-3.63c-.49-1.01-.98-1.8-1.47-2.35-.49-.56-1.26-.83-2.3-.83h-3.92v27.1c0,1.34.69,2.14,2.06,2.4l2.01.39v1.03h-15.14Z"/>
      <path class="cls-6" d="m332.36,194.92v-1.03l.98-.34c.59-.16,1-.45,1.22-.86.23-.41.36-.97.39-1.69v-24.65c-.03-.69-.15-1.22-.34-1.59-.2-.38-.6-.66-1.22-.86l-1.03-.34v-1.03h23.32l.34,7.84h-1.37l-1.96-4.41c-.26-.62-.56-1.1-.88-1.45-.33-.34-.82-.51-1.47-.51h-8.33c-.03,2.03-.05,4.11-.05,6.25v7.23h4.85c.65,0,1.15-.17,1.49-.51.34-.34.66-.81.96-1.4l.83-1.86h1.08v9.06h-1.08l-.88-1.86c-.26-.59-.56-1.06-.88-1.42-.33-.36-.82-.54-1.47-.54h-4.9v6.08c0,1.7,0,3.21.02,4.53.02,1.32.02,2.62.02,3.9h9.41c.65,0,1.16-.17,1.52-.51.36-.34.65-.82.88-1.45l1.81-4.41h1.37l-.34,7.84h-24.3Z"/>
      <path class="cls-6" d="m359.5,194.92v-1.03l1.03-.29c.65-.2,1.07-.48,1.25-.86.18-.38.27-.91.27-1.59.03-1.89.05-3.79.05-5.68v-13.43c0-1.89-.02-3.79-.05-5.68,0-.69-.08-1.22-.25-1.59-.16-.38-.57-.66-1.22-.86l-1.08-.34v-1.03h13.72c3.82,0,6.77.73,8.84,2.18,2.07,1.45,3.11,3.49,3.11,6.1,0,1.44-.56,2.89-1.69,4.36-1.13,1.47-2.85,2.6-5.17,3.38l6.66,12.99c.55,1.08,1.42,1.81,2.6,2.21l.93.2v.98h-8.67l-7.3-15.29h-3.53v6.27c0,1.86.02,3.61.05,5.24,0,.65.11,1.18.32,1.57.21.39.63.67,1.25.83l1.18.34v1.03h-12.3Zm9.51-16.71h2.65c2.32,0,4.02-.59,5.1-1.76,1.08-1.18,1.62-2.97,1.62-5.39s-.51-4.21-1.54-5.37c-1.03-1.16-2.69-1.74-4.97-1.74h-2.79c0,1.27,0,2.57-.02,3.9-.02,1.32-.02,2.81-.02,4.46v5.9Z"/>
    </g>
    <g>
      <path class="cls-6" d="m242,236.36c-1.55-1.13-2.75-2.42-3.6-3.87-.85-1.45-1.27-3.04-1.27-4.76s.42-3.31,1.27-4.77c.85-1.46,2.05-2.74,3.6-3.86l.42.34c-.78.94-1.39,1.84-1.83,2.71-.44.87-.76,1.75-.94,2.65s-.28,1.88-.28,2.93.09,2.01.28,2.93.5,1.8.94,2.67c.44.87,1.06,1.78,1.83,2.73l-.42.3Z"/>
      <path class="cls-6" d="m243.88,233.01v-.36l.83-.23c.54-.15.81-.47.83-.95v-9.04l-1.76.21v-.44c.79-.13,1.56-.31,2.32-.56.76-.25,1.47-.55,2.15-.9l.25.19-.08,2.72v5.4c0,.33,0,.71.01,1.15,0,.44.01.86.01,1.26,0,.49.27.82.81.97l.87.23v.36h-6.23Z"/>
      <path class="cls-6" d="m251.21,230.35c0-.66.28-1.23.83-1.72.55-.49,1.26-.9,2.14-1.24-1.77-.84-2.65-1.96-2.65-3.38,0-.7.19-1.29.58-1.79.39-.49.92-.88,1.6-1.15.68-.27,1.43-.41,2.27-.41,1.29,0,2.26.27,2.92.81.66.54,1,1.18,1,1.93,0,.56-.23,1.09-.7,1.59-.47.5-1.07.92-1.82,1.24,1.06.46,1.85.98,2.38,1.57.53.59.79,1.29.79,2.12,0,.67-.2,1.26-.59,1.77-.4.51-.95.9-1.67,1.18s-1.56.42-2.52.42c-1.45,0-2.58-.26-3.37-.77-.79-.51-1.19-1.23-1.19-2.16Zm2.22-.15c0,.75.23,1.36.68,1.83.45.47,1.04.71,1.76.71s1.24-.2,1.61-.61c.37-.41.55-.92.55-1.54,0-.41-.1-.76-.3-1.07s-.53-.62-1.01-.92-1.13-.63-1.98-.97l-.06-.02c-.48.39-.81.77-.99,1.14-.18.37-.26.85-.26,1.44Zm.49-7.14c0,.35.08.69.23,1,.16.31.44.62.85.93s1.01.64,1.8,1c.47-.44.77-.86.91-1.25.14-.39.21-.8.21-1.22,0-.79-.18-1.37-.55-1.74-.37-.37-.86-.56-1.48-.56-.54,0-1,.16-1.39.48-.39.32-.58.78-.58,1.36Z"/>
      <path class="cls-6" d="m271.65,225.72c0,1.28-.32,2.44-.97,3.5-.65,1.05-1.6,1.93-2.86,2.65s-2.8,1.23-4.64,1.53l-.15-.49c1.23-.28,2.23-.65,3-1.1.77-.46,1.36-1.02,1.77-1.69.41-.67.69-1.47.83-2.39-.33.19-.7.34-1.13.45-.43.11-.92.16-1.47.16-.78,0-1.48-.14-2.12-.43-.64-.28-1.14-.7-1.5-1.24s-.55-1.2-.55-1.98c0-.82.22-1.53.66-2.13.44-.59,1.03-1.06,1.77-1.39.74-.33,1.55-.49,2.43-.49,1.6,0,2.82.45,3.68,1.35s1.28,2.13,1.28,3.71Zm-6.95-1.29c0,1.09.18,1.88.55,2.38.37.49.95.74,1.76.74.64,0,1.19-.11,1.67-.34.04-.47.06-.98.06-1.54,0-1.13-.07-2.01-.2-2.66-.13-.65-.35-1.1-.65-1.38-.3-.27-.69-.41-1.19-.41-.65,0-1.15.25-1.49.75-.35.5-.52,1.32-.52,2.46Z"/>
      <path class="cls-6" d="m282.82,225.72c0,1.28-.32,2.44-.97,3.5-.65,1.05-1.6,1.93-2.86,2.65s-2.8,1.23-4.64,1.53l-.15-.49c1.23-.28,2.23-.65,3-1.1.77-.46,1.36-1.02,1.77-1.69.41-.67.69-1.47.83-2.39-.33.19-.7.34-1.13.45-.43.11-.92.16-1.47.16-.78,0-1.48-.14-2.12-.43-.64-.28-1.14-.7-1.5-1.24s-.55-1.2-.55-1.98c0-.82.22-1.53.66-2.13.44-.59,1.03-1.06,1.77-1.39.74-.33,1.55-.49,2.43-.49,1.6,0,2.82.45,3.68,1.35s1.28,2.13,1.28,3.71Zm-6.95-1.29c0,1.09.18,1.88.55,2.38.37.49.95.74,1.76.74.64,0,1.19-.11,1.67-.34.04-.47.06-.98.06-1.54,0-1.13-.07-2.01-.2-2.66-.13-.65-.35-1.1-.65-1.38-.3-.27-.69-.41-1.19-.41-.65,0-1.15.25-1.49.75-.35.5-.52,1.32-.52,2.46Z"/>
      <path class="cls-6" d="m284.34,228.6v-.8h5.3v.8h-5.3Z"/>
      <path class="cls-6" d="m291.1,233.01v-.36l.83-.23c.54-.15.81-.47.83-.95v-9.04l-1.76.21v-.44c.79-.13,1.56-.31,2.32-.56s1.47-.55,2.15-.9l.25.19-.08,2.72v5.4c0,.33,0,.71.01,1.15,0,.44,0,.86,0,1.26,0,.49.27.82.81.97l.87.23v.36h-6.23Z"/>
      <path class="cls-6" d="m308.3,225.72c0,1.28-.33,2.44-.97,3.5-.65,1.05-1.6,1.93-2.86,2.65s-2.8,1.23-4.64,1.53l-.15-.49c1.23-.28,2.23-.65,3-1.1s1.36-1.02,1.77-1.69c.41-.67.68-1.47.83-2.39-.33.19-.7.34-1.13.45s-.92.16-1.47.16c-.78,0-1.48-.14-2.12-.43-.64-.28-1.14-.7-1.5-1.24s-.55-1.2-.55-1.98c0-.82.22-1.53.66-2.13.44-.59,1.03-1.06,1.77-1.39.74-.33,1.55-.49,2.43-.49,1.6,0,2.82.45,3.67,1.35s1.28,2.13,1.28,3.71Zm-6.95-1.29c0,1.09.18,1.88.55,2.38.37.49.95.74,1.76.74.64,0,1.19-.11,1.67-.34.04-.47.06-.98.06-1.54,0-1.13-.07-2.01-.2-2.66-.13-.65-.35-1.1-.65-1.38s-.69-.41-1.19-.41c-.65,0-1.15.25-1.49.75-.35.5-.52,1.32-.52,2.46Z"/>
      <path class="cls-6" d="m319.47,225.72c0,1.28-.33,2.44-.97,3.5-.65,1.05-1.6,1.93-2.86,2.65s-2.8,1.23-4.64,1.53l-.15-.49c1.23-.28,2.23-.65,3-1.1s1.36-1.02,1.77-1.69c.41-.67.68-1.47.83-2.39-.33.19-.7.34-1.13.45s-.92.16-1.47.16c-.78,0-1.48-.14-2.12-.43-.64-.28-1.14-.7-1.5-1.24s-.55-1.2-.55-1.98c0-.82.22-1.53.66-2.13.44-.59,1.03-1.06,1.77-1.39.74-.33,1.55-.49,2.43-.49,1.6,0,2.82.45,3.67,1.35s1.28,2.13,1.28,3.71Zm-6.95-1.29c0,1.09.18,1.88.55,2.38.37.49.95.74,1.76.74.64,0,1.19-.11,1.67-.34.04-.47.06-.98.06-1.54,0-1.13-.07-2.01-.2-2.66-.13-.65-.35-1.1-.65-1.38s-.69-.41-1.19-.41c-.65,0-1.15.25-1.49.75-.35.5-.52,1.32-.52,2.46Z"/>
      <path class="cls-6" d="m320.76,230.35c0-.66.28-1.23.83-1.72.55-.49,1.26-.9,2.14-1.24-1.77-.84-2.65-1.96-2.65-3.38,0-.7.19-1.29.58-1.79.39-.49.92-.88,1.6-1.15.68-.27,1.43-.41,2.27-.41,1.29,0,2.26.27,2.92.81.66.54,1,1.18,1,1.93,0,.56-.23,1.09-.7,1.59-.47.5-1.07.92-1.82,1.24,1.06.46,1.85.98,2.38,1.57s.79,1.29.79,2.12c0,.67-.2,1.26-.59,1.77s-.95.9-1.67,1.18c-.72.28-1.56.42-2.52.42-1.46,0-2.58-.26-3.37-.77-.79-.51-1.19-1.23-1.19-2.16Zm2.22-.15c0,.75.23,1.36.68,1.83.45.47,1.04.71,1.76.71s1.24-.2,1.61-.61.55-.92.55-1.54c0-.41-.1-.76-.3-1.07-.2-.31-.53-.62-1.01-.92-.47-.3-1.13-.63-1.98-.97l-.06-.02c-.48.39-.81.77-.99,1.14-.18.37-.26.85-.26,1.44Zm.49-7.14c0,.35.08.69.23,1,.16.31.44.62.85.93.41.31,1.01.64,1.8,1,.47-.44.77-.86.91-1.25.14-.39.21-.8.21-1.22,0-.79-.18-1.37-.55-1.74-.37-.37-.86-.56-1.48-.56-.54,0-1,.16-1.39.48-.39.32-.58.78-.58,1.36Z"/>
      <path class="cls-6" d="m331.99,219.1c1.55,1.13,2.75,2.42,3.6,3.87.85,1.45,1.27,3.04,1.27,4.76s-.42,3.31-1.27,4.77c-.85,1.46-2.05,2.74-3.6,3.86l-.42-.34c.78-.94,1.39-1.84,1.83-2.71.45-.87.76-1.75.94-2.65s.28-1.87.28-2.93-.09-2.01-.28-2.93-.5-1.8-.94-2.67c-.45-.87-1.06-1.78-1.83-2.73l.42-.3Z"/>
    </g>
    <g>
      <path class="cls-6" d="m108.45,270.98v-7.87h4.86v.93h-3.9v2.44h3.38v.93h-3.38v3.58h-.95Z"/>
      <path class="cls-6" d="m114.71,270.98v-7.87h.95v7.87h-.95Z"/>
      <path class="cls-6" d="m120.72,267.89v-.93h3.05s0,2.92,0,2.92c-.47.41-.95.71-1.45.92s-1.01.31-1.54.31c-.7,0-1.33-.16-1.88-.47-.55-.32-.99-.78-1.31-1.38-.32-.61-.48-1.33-.48-2.18s.16-1.61.48-2.25c.32-.64.75-1.11,1.27-1.41s1.14-.45,1.86-.45c.53,0,.99.09,1.38.26.4.18.72.42.98.75.26.32.45.76.57,1.33l-.86.26c-.12-.44-.26-.78-.44-1-.18-.22-.41-.39-.69-.52-.29-.12-.61-.19-.97-.19-.52,0-.97.11-1.35.34-.38.23-.68.58-.91,1.06-.23.48-.34,1.07-.34,1.76,0,1.05.25,1.84.74,2.37.49.53,1.13.79,1.92.79.38,0,.76-.08,1.15-.24.39-.16.71-.35.94-.57v-1.47h-2.11Z"/>
      <path class="cls-6" d="m129.85,263.1h.95v4.55c0,.76-.08,1.39-.25,1.88-.17.49-.47.87-.9,1.16-.44.28-.99.42-1.67.42-.95,0-1.66-.25-2.13-.76-.47-.51-.71-1.41-.71-2.7v-4.55h.95v4.54c0,.71.06,1.23.19,1.55.12.32.33.56.61.73.28.17.62.25,1.03.25.68,0,1.17-.17,1.48-.52.31-.34.46-1.01.46-2.01v-4.54Z"/>
      <path class="cls-6" d="m132.41,270.98v-7.87h3.19c.67,0,1.16.07,1.48.22s.58.39.78.73.31.74.31,1.19c0,.59-.17,1.08-.52,1.44-.35.37-.85.6-1.51.7.27.14.47.29.61.44.28.3.53.64.75,1l1.26,2.14h-1.2l-.96-1.64c-.37-.64-.65-1.07-.84-1.29s-.37-.37-.55-.45c-.18-.08-.43-.12-.74-.12h-1.1v3.5h-.95Zm.95-4.4h2.05c.45,0,.79-.05,1.02-.14s.42-.25.55-.46c.14-.21.2-.45.2-.72,0-.4-.13-.71-.39-.94-.26-.23-.65-.34-1.16-.34h-2.28v2.6Z"/>
      <path class="cls-6" d="m139.69,270.98v-7.87h5.2v.93h-4.25v2.41h3.98v.93h-3.98v2.68h4.42v.93h-5.37Z"/>
      <path class="cls-6" d="m149.14,270.98v-7.87h1.43l1.71,5.58.34,1.17c.08-.29.21-.71.38-1.26l1.73-5.48h1.28v7.87h-.92v-6.59l-2.1,6.59h-.86l-2.09-6.7v6.7h-.92Z"/>
      <path class="cls-6" d="m156.76,270.98l2.78-7.87h1.02l2.95,7.87h-1.09l-.84-2.38h-3.03l-.78,2.38h-1Zm2.07-3.23h2.45l-.75-2.18c-.23-.67-.4-1.21-.51-1.63-.09.5-.22,1.01-.39,1.5l-.8,2.31Z"/>
      <path class="cls-6" d="m164.25,270.98v-7.87h3.19c.67,0,1.16.07,1.48.22s.58.39.78.73.31.74.31,1.19c0,.59-.17,1.08-.52,1.44-.35.37-.85.6-1.51.7.27.14.47.29.61.44.28.3.53.64.75,1l1.26,2.14h-1.2l-.96-1.64c-.37-.64-.65-1.07-.84-1.29s-.37-.37-.55-.45c-.18-.08-.43-.12-.74-.12h-1.1v3.5h-.95Zm.95-4.4h2.05c.45,0,.79-.05,1.02-.14s.42-.25.55-.46c.14-.21.2-.45.2-.72,0-.4-.13-.71-.39-.94-.26-.23-.65-.34-1.16-.34h-2.28v2.6Z"/>
      <path class="cls-6" d="m177,270.13c.44.33.85.58,1.22.73l-.28.73c-.53-.21-1.04-.53-1.54-.97-.53.33-1.12.49-1.76.49-1.06,0-1.91-.41-2.56-1.24-.59-.75-.88-1.69-.88-2.83,0-.85.16-1.59.47-2.22s.73-1.09,1.24-1.4c.51-.31,1.09-.46,1.73-.46s1.21.16,1.73.48.94.79,1.24,1.4c.31.61.46,1.34.46,2.18,0,.66-.09,1.25-.28,1.78-.19.53-.45.97-.79,1.33Zm-2.1-1.33c.55.17,1,.42,1.36.75.56-.57.84-1.41.84-2.53,0-.68-.11-1.25-.32-1.73s-.51-.83-.89-1.08c-.38-.24-.79-.37-1.24-.37-.71,0-1.3.27-1.77.8-.47.54-.7,1.33-.7,2.38s.24,1.83.71,2.37,1.06.81,1.76.81c.34,0,.66-.07.96-.21-.3-.21-.61-.36-.95-.45l.23-.76Z"/>
      <path class="cls-6" d="m184.05,263.1h.95v4.55c0,.76-.08,1.39-.25,1.88-.17.49-.47.87-.9,1.16-.44.28-.99.42-1.67.42-.95,0-1.66-.25-2.13-.76-.47-.51-.71-1.41-.71-2.7v-4.55h.95v4.54c0,.71.06,1.23.19,1.55.12.32.33.56.61.73.28.17.62.25,1.03.25.68,0,1.17-.17,1.48-.52.31-.34.46-1.01.46-2.01v-4.54Z"/>
      <path class="cls-6" d="m185.81,270.98l2.78-7.87h1.02l2.95,7.87h-1.09l-.84-2.38h-3.03l-.78,2.38h-1Zm2.07-3.23h2.45l-.75-2.18c-.23-.67-.4-1.21-.51-1.63-.09.5-.22,1.01-.39,1.5l-.8,2.31Z"/>
      <path class="cls-6" d="m193.28,270.98v-7.87h.98l3.79,6.19v-6.19h.91v7.87h-.98l-3.78-6.2v6.2h-.92Z"/>
      <path class="cls-6" d="m202.42,270.98v-6.95h-2.37v-.93h5.71v.93h-2.38v6.95h-.95Z"/>
      <path class="cls-6" d="m206.73,270.98v-7.87h5.2v.93h-4.25v2.41h3.98v.93h-3.98v2.68h4.42v.93h-5.37Z"/>
      <path class="cls-6" d="m216.2,270.98v-7.87h2.49c.61,0,1.08.05,1.4.14.42.13.78.35,1.09.69s.55.75.72,1.26c.17.51.26,1.11.26,1.8,0,.89-.15,1.65-.44,2.27-.29.62-.67,1.06-1.12,1.32s-1.06.39-1.79.39h-2.6Zm.95-.93h1.53c.62,0,1.09-.09,1.41-.27.32-.18.56-.47.74-.87.23-.53.34-1.17.34-1.92,0-.8-.12-1.43-.36-1.88-.24-.46-.55-.76-.93-.92-.26-.1-.66-.16-1.22-.16h-1.51v6.02Z"/>
      <path class="cls-6" d="m223.5,270.98v-7.87h5.2v.93h-4.25v2.41h3.98v.93h-3.98v2.68h4.42v.93h-5.37Z"/>
      <path class="cls-6" d="m232.92,270.98v-7.87h.95v6.94h3.54v.93h-4.5Z"/>
      <path class="cls-6" d="m237.83,264.23v-1.13h.95v.89c0,.51-.07.88-.2,1.13-.14.24-.34.43-.61.56l-.22-.38c.35-.16.53-.52.54-1.07h-.47Z"/>
      <path class="cls-6" d="m239.47,270.98l2.78-7.87h1.02l2.95,7.87h-1.09l-.84-2.38h-3.03l-.78,2.38h-1Zm2.07-3.23h2.45l-.75-2.18c-.23-.67-.4-1.21-.51-1.63-.09.5-.22,1.01-.39,1.5l-.8,2.31Z"/>
      <path class="cls-6" d="m246.96,270.98v-7.87h3.19c.67,0,1.16.07,1.48.22s.58.39.78.73c.2.34.3.74.3,1.19,0,.59-.17,1.08-.52,1.44-.35.37-.85.6-1.51.7.27.14.47.29.61.44.28.3.53.64.75,1l1.26,2.14h-1.2l-.96-1.64c-.37-.64-.65-1.07-.84-1.29-.19-.22-.37-.37-.55-.45s-.43-.12-.75-.12h-1.1v3.5h-.95Zm.95-4.4h2.05c.45,0,.79-.05,1.02-.14s.42-.25.55-.46c.14-.21.2-.45.2-.72,0-.4-.13-.71-.39-.94s-.64-.34-1.16-.34h-2.28v2.6Z"/>
      <path class="cls-6" d="m259.33,268.22l.96.26c-.21.88-.58,1.54-1.11,1.98-.53.44-1.17.65-1.93.65-.67,0-1.24-.15-1.71-.44-.47-.29-.86-.76-1.16-1.41-.3-.65-.45-1.41-.45-2.28s.15-1.6.45-2.2c.3-.6.71-1.05,1.23-1.36.52-.31,1.09-.46,1.73-.46.7,0,1.29.19,1.79.58.5.39.85.96,1.05,1.71l-.93.24c-.32-1.09-.96-1.64-1.92-1.64-.48,0-.9.11-1.25.33-.35.22-.63.56-.84,1.03-.21.47-.32,1.06-.32,1.77,0,1.08.21,1.89.63,2.43.42.54.99.81,1.69.81.52,0,.97-.17,1.34-.5.38-.33.63-.83.76-1.51Z"/>
      <path class="cls-6" d="m261.48,270.98v-7.87h.95v3.23h3.74v-3.23h.95v7.87h-.95v-3.71h-3.74v3.71h-.95Z"/>
      <path class="cls-6" d="m268.92,270.98v-7.87h.95v7.87h-.95Z"/>
      <path class="cls-6" d="m273.38,270.98v-6.95h-2.37v-.93h5.71v.93h-2.38v6.95h-.95Z"/>
      <path class="cls-6" d="m277.7,270.98v-7.87h5.2v.93h-4.25v2.41h3.98v.93h-3.98v2.68h4.42v.93h-5.37Z"/>
      <path class="cls-6" d="m289.5,268.22l.96.26c-.21.88-.58,1.54-1.11,1.98-.53.44-1.17.65-1.93.65-.67,0-1.24-.15-1.71-.44-.47-.29-.86-.76-1.16-1.41-.3-.65-.45-1.41-.45-2.28s.15-1.6.45-2.2c.3-.6.71-1.05,1.23-1.36.52-.31,1.09-.46,1.73-.46.7,0,1.29.19,1.79.58.5.39.85.96,1.05,1.71l-.93.24c-.32-1.09-.96-1.64-1.92-1.64-.48,0-.9.11-1.25.33-.35.22-.63.56-.84,1.03-.21.47-.32,1.06-.32,1.77,0,1.08.21,1.89.63,2.43.42.54.99.81,1.69.81.52,0,.97-.17,1.34-.5.38-.33.63-.83.76-1.51Z"/>
      <path class="cls-6" d="m293.49,270.98v-6.95h-2.37v-.93h5.71v.93h-2.38v6.95h-.95Z"/>
      <path class="cls-6" d="m302.49,263.1h.95v4.55c0,.76-.08,1.39-.25,1.88-.17.49-.47.87-.9,1.16-.44.28-.99.42-1.67.42-.95,0-1.66-.25-2.13-.76-.47-.51-.71-1.41-.71-2.7v-4.55h.95v4.54c0,.71.06,1.23.19,1.55.12.32.33.56.61.73.28.17.62.25,1.03.25.68,0,1.17-.17,1.48-.52s.46-1.01.46-2.01v-4.54Z"/>
      <path class="cls-6" d="m305.05,270.98v-7.87h3.19c.67,0,1.16.07,1.48.22s.58.39.78.73c.2.34.3.74.3,1.19,0,.59-.17,1.08-.52,1.44-.35.37-.85.6-1.51.7.27.14.47.29.61.44.28.3.53.64.75,1l1.26,2.14h-1.2l-.96-1.64c-.37-.64-.65-1.07-.84-1.29-.19-.22-.37-.37-.55-.45s-.43-.12-.75-.12h-1.1v3.5h-.95Zm.95-4.4h2.05c.45,0,.79-.05,1.02-.14s.42-.25.55-.46c.14-.21.2-.45.2-.72,0-.4-.13-.71-.39-.94s-.64-.34-1.16-.34h-2.28v2.6Z"/>
      <path class="cls-6" d="m312.33,270.98v-7.87h5.2v.93h-4.25v2.41h3.98v.93h-3.98v2.68h4.42v.93h-5.37Z"/>
      <path class="cls-6" d="m327.3,270.13c.44.33.85.58,1.22.73l-.28.73c-.53-.21-1.04-.53-1.54-.97-.53.33-1.12.49-1.76.49-1.06,0-1.91-.41-2.56-1.24-.59-.75-.88-1.69-.88-2.83,0-.85.16-1.59.47-2.22.31-.62.73-1.09,1.24-1.4.51-.31,1.09-.46,1.73-.46s1.21.16,1.73.48c.52.32.93.79,1.24,1.4.31.61.46,1.34.46,2.18,0,.66-.09,1.25-.28,1.78-.19.53-.45.97-.8,1.33Zm-2.1-1.33c.55.17,1,.42,1.36.75.56-.57.84-1.41.84-2.53,0-.68-.11-1.25-.32-1.73s-.51-.83-.89-1.08c-.38-.24-.79-.37-1.24-.37-.71,0-1.3.27-1.77.8-.47.54-.7,1.33-.7,2.38s.24,1.83.71,2.37c.48.54,1.06.81,1.76.81.33,0,.66-.07.96-.21-.3-.21-.61-.36-.95-.45l.23-.76Z"/>
      <path class="cls-6" d="m334.34,263.1h.95v4.55c0,.76-.08,1.39-.25,1.88-.17.49-.47.87-.9,1.16-.44.28-.99.42-1.67.42-.95,0-1.66-.25-2.13-.76-.47-.51-.71-1.41-.71-2.7v-4.55h.95v4.54c0,.71.06,1.23.19,1.55.12.32.33.56.61.73.28.17.62.25,1.03.25.68,0,1.17-.17,1.48-.52s.46-1.01.46-2.01v-4.54Z"/>
      <path class="cls-6" d="m336.92,270.98v-7.87h5.2v.93h-4.25v2.41h3.98v.93h-3.98v2.68h4.42v.93h-5.37Zm1.98-8.41l.65-1.5h1.16l-1.08,1.5h-.73Z"/>
      <path class="cls-6" d="m343.57,270.98v-7.87h2.7c.55,0,.98.08,1.3.23.32.15.58.39.79.71.2.32.31.68.31,1.07,0,.36-.09.69-.26.98-.18.29-.42.52-.74.7.42.14.75.37.99.7.24.33.36.73.36,1.21s-.11.89-.33,1.25c-.22.36-.51.62-.87.78s-.86.25-1.5.25h-2.74Zm.95-4.57h1.56c.41,0,.7-.03.87-.08.25-.08.44-.2.57-.38.13-.18.2-.42.2-.72,0-.28-.06-.52-.18-.71-.12-.19-.28-.32-.49-.39-.2-.07-.56-.11-1.09-.11h-1.45v2.38Zm0,3.64h1.79c.4,0,.69-.03.88-.1.27-.09.48-.25.62-.46.14-.21.21-.48.21-.8,0-.3-.07-.55-.2-.75s-.32-.36-.55-.45-.59-.14-1.08-.14h-1.67v2.71Z"/>
      <path class="cls-6" d="m350.33,270.98v-7.87h5.2v.93h-4.25v2.41h3.98v.93h-3.98v2.68h4.42v.93h-5.37Zm1.98-8.41l.65-1.5h1.16l-1.08,1.5h-.73Z"/>
      <path class="cls-6" d="m362.13,268.22l.96.26c-.21.88-.58,1.54-1.11,1.98-.53.44-1.17.65-1.93.65-.67,0-1.24-.15-1.71-.44-.47-.29-.86-.76-1.16-1.41-.3-.65-.45-1.41-.45-2.28s.15-1.6.45-2.2c.3-.6.71-1.05,1.23-1.36.52-.31,1.09-.46,1.73-.46.7,0,1.29.19,1.79.58.5.39.85.96,1.05,1.71l-.93.24c-.32-1.09-.96-1.64-1.92-1.64-.48,0-.9.11-1.25.33-.35.22-.63.56-.84,1.03-.21.47-.32,1.06-.32,1.77,0,1.08.21,1.89.63,2.43.42.54.99.81,1.69.81.52,0,.97-.17,1.34-.5.38-.33.63-.83.76-1.51Z"/>
      <path class="cls-6" d="m364.01,267.14c0-1.34.33-2.38.99-3.1.66-.72,1.48-1.08,2.46-1.08.63,0,1.21.16,1.74.48.52.32.94.79,1.24,1.4.31.61.46,1.35.46,2.19,0,1.17-.3,2.12-.89,2.85-.65.81-1.5,1.21-2.56,1.21s-1.92-.42-2.56-1.25c-.59-.75-.88-1.66-.88-2.72Zm.98.01c0,.97.24,1.72.72,2.26.48.54,1.06.8,1.74.8s1.29-.27,1.76-.81c.47-.54.71-1.34.71-2.39,0-.68-.12-1.28-.37-1.82-.19-.41-.47-.74-.85-.98-.38-.25-.79-.37-1.24-.37-.72,0-1.31.27-1.78.81-.46.54-.7,1.37-.7,2.5Z"/>
      <path class="cls-6" d="m372.29,270.98v-7.87h.95v7.87h-.95Z"/>
      <path class="cls-6" d="m374.58,268.44l.9-.09c.05.43.16.77.33,1.01.17.24.41.44.73.58.32.15.67.22,1.07.22.57,0,1.01-.12,1.32-.37.31-.25.47-.57.47-.97,0-.23-.06-.44-.17-.61-.11-.17-.29-.32-.52-.43-.23-.11-.73-.27-1.49-.47-.68-.18-1.16-.36-1.45-.54-.29-.18-.51-.41-.67-.7-.16-.28-.24-.6-.24-.95,0-.64.23-1.16.69-1.56.46-.4,1.08-.61,1.86-.61.54,0,1,.09,1.41.28.4.19.71.46.93.82s.34.77.36,1.25l-.92.08c-.05-.51-.22-.89-.51-1.14-.29-.25-.71-.37-1.24-.37s-.95.11-1.23.33c-.28.22-.43.5-.43.84,0,.32.1.57.31.74.21.18.67.35,1.4.53.71.18,1.21.33,1.5.46.44.2.77.47,1,.79.22.33.34.72.34,1.17s-.12.86-.35,1.23-.56.65-.96.85c-.41.19-.89.29-1.46.29-.89,0-1.6-.24-2.13-.72-.53-.48-.8-1.13-.82-1.95Z"/>
      <path class="cls-6" d="m381.63,270.98v-7.87h5.2v.93h-4.25v2.41h3.98v.93h-3.98v2.68h4.42v.93h-5.37Z"/>
      <path class="cls-6" d="m388.47,270.98v-1.1h1.01v1.1h-1.01Z"/>
      <path class="cls-6" d="m394.09,270.98v-7.87h.95v7.87h-.95Z"/>
      <path class="cls-6" d="m396.65,270.98v-7.87h.95v6.94h3.54v.93h-4.5Z"/>
      <path class="cls-6" d="m404.8,270.98v-7.87h4.86v.93h-3.9v2.44h3.38v.93h-3.38v3.58h-.95Z"/>
      <path class="cls-6" d="m415.58,263.1h.95v4.55c0,.76-.08,1.39-.25,1.88-.17.49-.47.87-.9,1.16-.44.28-.99.42-1.67.42-.95,0-1.66-.25-2.13-.76-.47-.51-.71-1.41-.71-2.7v-4.55h.95v4.54c0,.71.06,1.23.19,1.55.12.32.33.56.61.73.28.17.62.25,1.03.25.68,0,1.17-.17,1.48-.52s.46-1.01.46-2.01v-4.54Z"/>
      <path class="cls-6" d="m419.98,270.98v-6.95h-2.37v-.93h5.71v.93h-2.38v6.95h-.95Z"/>
      <path class="cls-6" d="m426.9,270.98v-7.87h3.19c.67,0,1.16.07,1.48.22s.58.39.78.73c.2.34.3.74.3,1.19,0,.59-.17,1.08-.52,1.44-.35.37-.85.6-1.51.7.27.14.47.29.61.44.28.3.53.64.75,1l1.26,2.14h-1.2l-.96-1.64c-.37-.64-.65-1.07-.84-1.29-.19-.22-.37-.37-.55-.45s-.43-.12-.75-.12h-1.1v3.5h-.95Zm.95-4.4h2.05c.45,0,.79-.05,1.02-.14s.42-.25.55-.46c.14-.21.2-.45.2-.72,0-.4-.13-.71-.39-.94s-.64-.34-1.16-.34h-2.28v2.6Z"/>
      <path class="cls-6" d="m434.18,270.98v-7.87h5.2v.93h-4.25v2.41h3.98v.93h-3.98v2.68h4.42v.93h-5.37Z"/>
      <path class="cls-6" d="m440.84,270.98v-7.87h.98l3.79,6.19v-6.19h.91v7.87h-.98l-3.78-6.2v6.2h-.92Z"/>
      <path class="cls-6" d="m447.86,267.14c0-1.34.33-2.38.99-3.1.66-.72,1.48-1.08,2.46-1.08.63,0,1.21.16,1.74.48.52.32.94.79,1.24,1.4.31.61.46,1.35.46,2.19,0,1.17-.3,2.12-.89,2.85-.65.81-1.5,1.21-2.56,1.21s-1.92-.42-2.56-1.25c-.59-.75-.88-1.66-.88-2.72Zm.98.01c0,.97.24,1.72.72,2.26.48.54,1.06.8,1.74.8s1.29-.27,1.76-.81c.47-.54.71-1.34.71-2.39,0-.68-.12-1.28-.37-1.82-.19-.41-.47-.74-.85-.98-.38-.25-.79-.37-1.24-.37-.72,0-1.31.27-1.78.81-.46.54-.7,1.37-.7,2.5Z"/>
      <path class="cls-6" d="m455.93,270.98v-7.87h1.43l1.71,5.58.34,1.17c.08-.29.21-.71.38-1.26l1.73-5.48h1.28v7.87h-.92v-6.59l-2.1,6.59h-.86l-2.09-6.7v6.7h-.92Z"/>
      <path class="cls-6" d="m463.87,268.61v-.97h2.71v.97h-2.71Z"/>
      <path class="cls-6" d="m130.88,286.98v-7.87h1.43l1.71,5.58.34,1.17c.08-.29.21-.71.38-1.26l1.73-5.48h1.28v7.87h-.92v-6.59l-2.1,6.59h-.86l-2.09-6.7v6.7h-.92Z"/>
      <path class="cls-6" d="m139.3,286.98v-7.87h5.2v.93h-4.25v2.41h3.98v.93h-3.98v2.68h4.42v.93h-5.37Zm1.98-8.41l.65-1.5h1.16l-1.08,1.5h-.73Z"/>
      <path class="cls-6" d="m148.78,286.98v-7.87h2.71c.64,0,1.11.05,1.41.15.42.14.75.39.99.76.25.37.37.82.37,1.36,0,.71-.2,1.29-.6,1.73-.4.45-1.1.67-2.09.67h-1.84v3.2h-.95Zm.95-4.13h1.86c.59,0,1.02-.12,1.29-.36.27-.24.41-.6.41-1.08,0-.31-.07-.58-.2-.8-.13-.22-.3-.37-.49-.46-.19-.08-.53-.12-1.03-.12h-1.84v2.81Z"/>
      <path class="cls-6" d="m155.23,283.14c0-1.34.33-2.38.99-3.1s1.48-1.08,2.46-1.08c.63,0,1.21.16,1.74.48s.94.79,1.24,1.4c.31.61.46,1.35.46,2.19,0,1.17-.3,2.12-.89,2.85-.65.81-1.5,1.21-2.56,1.21s-1.92-.42-2.56-1.25c-.59-.75-.88-1.66-.88-2.72Zm.98.01c0,.97.24,1.72.72,2.26.48.54,1.06.8,1.74.8s1.28-.27,1.76-.81.71-1.34.71-2.39c0-.68-.12-1.28-.37-1.82-.19-.41-.47-.74-.85-.98-.38-.25-.79-.37-1.24-.37-.72,0-1.31.27-1.78.81-.47.54-.7,1.37-.7,2.5Z"/>
      <path class="cls-6" d="m168.02,279.1h.95v4.55c0,.76-.08,1.39-.25,1.88-.17.49-.47.87-.9,1.16-.44.28-.99.42-1.67.42-.95,0-1.66-.25-2.13-.76-.47-.51-.71-1.41-.71-2.7v-4.55h.95v4.54c0,.71.06,1.23.19,1.55.12.32.33.56.61.73.28.17.62.25,1.03.25.68,0,1.17-.17,1.48-.52.31-.34.46-1.01.46-2.01v-4.54Z"/>
      <path class="cls-6" d="m170.58,286.98v-7.87h3.19c.67,0,1.16.07,1.48.22s.58.39.78.73.31.74.31,1.19c0,.59-.17,1.08-.52,1.44-.35.37-.85.6-1.51.7.27.14.47.29.61.44.28.3.53.64.75,1l1.26,2.14h-1.2l-.96-1.64c-.37-.64-.65-1.07-.84-1.29s-.37-.37-.55-.45c-.18-.08-.43-.12-.74-.12h-1.1v3.5h-.95Zm.95-4.4h2.05c.45,0,.79-.05,1.02-.14s.42-.25.55-.46c.14-.21.2-.45.2-.72,0-.4-.13-.71-.39-.94-.26-.23-.65-.34-1.16-.34h-2.28v2.6Z"/>
      <path class="cls-6" d="m180.58,286.98v-7.87h.95v6.94h3.55v.93h-4.5Z"/>
      <path class="cls-6" d="m185.44,286.98l2.78-7.87h1.02l2.95,7.87h-1.09l-.84-2.38h-3.03l-.78,2.38h-1Zm2.07-3.23h2.45l-.75-2.18c-.23-.67-.4-1.21-.51-1.63-.09.5-.22,1.01-.39,1.5l-.8,2.31Z"/>
      <path class="cls-6" d="m200.29,284.22l.96.26c-.21.88-.58,1.54-1.11,1.98-.53.44-1.17.65-1.93.65-.67,0-1.24-.15-1.71-.44-.47-.29-.86-.76-1.16-1.41-.3-.65-.45-1.41-.45-2.28s.15-1.6.45-2.2c.3-.6.71-1.05,1.23-1.36.52-.31,1.09-.46,1.73-.46.7,0,1.29.19,1.79.58.5.39.85.96,1.05,1.71l-.93.24c-.32-1.09-.96-1.64-1.92-1.64-.48,0-.9.11-1.25.33-.35.22-.63.56-.84,1.03-.21.47-.32,1.06-.32,1.77,0,1.08.21,1.89.63,2.43.42.54.99.81,1.69.81.52,0,.97-.17,1.34-.5.38-.33.63-.83.76-1.51Z"/>
      <path class="cls-6" d="m202.17,283.14c0-1.34.33-2.38.99-3.1.66-.72,1.48-1.08,2.46-1.08.63,0,1.21.16,1.74.48.52.32.94.79,1.24,1.4.31.61.46,1.35.46,2.19,0,1.17-.3,2.12-.89,2.85-.65.81-1.5,1.21-2.56,1.21s-1.92-.42-2.56-1.25c-.59-.75-.88-1.66-.88-2.72Zm.98.01c0,.97.24,1.72.72,2.26.48.54,1.06.8,1.74.8s1.29-.27,1.76-.81c.47-.54.71-1.34.71-2.39,0-.68-.12-1.28-.37-1.82-.19-.41-.47-.74-.85-.98-.38-.25-.79-.37-1.24-.37-.72,0-1.31.27-1.78.81-.46.54-.7,1.37-.7,2.5Z"/>
      <path class="cls-6" d="m210.24,286.98v-7.87h.98l3.79,6.19v-6.19h.91v7.87h-.98l-3.78-6.2v6.2h-.92Z"/>
      <path class="cls-6" d="m222.64,284.22l.96.26c-.21.88-.58,1.54-1.11,1.98-.53.44-1.17.65-1.93.65-.67,0-1.24-.15-1.71-.44-.47-.29-.86-.76-1.16-1.41-.3-.65-.45-1.41-.45-2.28s.15-1.6.45-2.2c.3-.6.71-1.05,1.23-1.36.52-.31,1.09-.46,1.73-.46.7,0,1.29.19,1.79.58.5.39.85.96,1.05,1.71l-.93.24c-.32-1.09-.96-1.64-1.92-1.64-.48,0-.9.11-1.25.33-.35.22-.63.56-.84,1.03-.21.47-.32,1.06-.32,1.77,0,1.08.21,1.89.63,2.43.42.54.99.81,1.69.81.52,0,.97-.17,1.34-.5.38-.33.63-.83.76-1.51Z"/>
      <path class="cls-6" d="m224.81,286.98v-7.87h5.2v.93h-4.25v2.41h3.98v.93h-3.98v2.68h4.42v.93h-5.37Z"/>
      <path class="cls-6" d="m231.49,286.98v-7.87h2.71c.64,0,1.11.05,1.41.15.42.14.75.39.99.76.25.37.37.82.37,1.36,0,.71-.2,1.29-.61,1.73-.4.45-1.1.67-2.09.67h-1.84v3.2h-.95Zm.95-4.13h1.86c.59,0,1.02-.12,1.29-.36.27-.24.41-.6.41-1.08,0-.31-.07-.58-.2-.8-.13-.22-.29-.37-.48-.46-.19-.08-.53-.12-1.03-.12h-1.84v2.81Z"/>
      <path class="cls-6" d="m240.05,286.98v-6.95h-2.37v-.93h5.71v.93h-2.38v6.95h-.95Z"/>
      <path class="cls-6" d="m244.53,286.98v-7.87h.95v7.87h-.95Z"/>
      <path class="cls-6" d="m246.87,283.14c0-1.34.33-2.38.99-3.1.66-.72,1.48-1.08,2.46-1.08.63,0,1.21.16,1.74.48.52.32.94.79,1.24,1.4.31.61.46,1.35.46,2.19,0,1.17-.3,2.12-.89,2.85-.65.81-1.5,1.21-2.56,1.21s-1.92-.42-2.56-1.25c-.59-.75-.88-1.66-.88-2.72Zm.98.01c0,.97.24,1.72.72,2.26.48.54,1.06.8,1.74.8s1.29-.27,1.76-.81c.47-.54.71-1.34.71-2.39,0-.68-.12-1.28-.37-1.82-.19-.41-.47-.74-.85-.98-.38-.25-.79-.37-1.24-.37-.72,0-1.31.27-1.78.81-.46.54-.7,1.37-.7,2.5Z"/>
      <path class="cls-6" d="m254.94,286.98v-7.87h.98l3.79,6.19v-6.19h.91v7.87h-.98l-3.78-6.2v6.2h-.92Z"/>
      <path class="cls-6" d="m265,286.98v-7.87h2.49c.61,0,1.08.05,1.4.14.42.13.78.35,1.09.69s.55.75.72,1.26c.17.51.26,1.11.26,1.8,0,.89-.15,1.65-.44,2.27-.29.62-.67,1.06-1.12,1.32s-1.06.39-1.79.39h-2.6Zm.95-.93h1.53c.62,0,1.09-.09,1.41-.27.32-.18.56-.47.74-.87.23-.53.34-1.17.34-1.92,0-.8-.12-1.43-.36-1.88-.24-.46-.55-.76-.93-.92-.26-.1-.66-.16-1.22-.16h-1.51v6.02Z"/>
      <path class="cls-6" d="m272.3,286.98v-7.87h5.2v.93h-4.25v2.41h3.98v.93h-3.98v2.68h4.42v.93h-5.37Z"/>
      <path class="cls-6" d="m281.78,286.98v-7.87h3.19c.67,0,1.16.07,1.48.22s.58.39.78.73c.2.34.3.74.3,1.19,0,.59-.17,1.08-.52,1.44-.35.37-.85.6-1.51.7.27.14.47.29.61.44.28.3.53.64.75,1l1.26,2.14h-1.2l-.96-1.64c-.37-.64-.65-1.07-.84-1.29-.19-.22-.37-.37-.55-.45s-.43-.12-.75-.12h-1.1v3.5h-.95Zm.95-4.4h2.05c.45,0,.79-.05,1.02-.14s.42-.25.55-.46c.14-.21.2-.45.2-.72,0-.4-.13-.71-.39-.94s-.64-.34-1.16-.34h-2.28v2.6Z"/>
      <path class="cls-6" d="m289.07,286.98v-7.87h5.2v.93h-4.25v2.41h3.98v.93h-3.98v2.68h4.42v.93h-5.37Zm1.98-8.41l.65-1.5h1.16l-1.08,1.5h-.73Z"/>
      <path class="cls-6" d="m295.43,284.44l.9-.09c.05.43.16.77.33,1.01.17.24.41.44.73.58.32.15.67.22,1.07.22.57,0,1.01-.12,1.32-.37.31-.25.47-.57.47-.97,0-.23-.06-.44-.17-.61-.11-.17-.29-.32-.52-.43-.23-.11-.73-.27-1.49-.47-.68-.18-1.16-.36-1.45-.54-.29-.18-.51-.41-.67-.7-.16-.28-.24-.6-.24-.95,0-.64.23-1.16.69-1.56.46-.4,1.08-.61,1.86-.61.54,0,1,.09,1.41.28.4.19.71.46.93.82s.34.77.36,1.25l-.92.08c-.05-.51-.22-.89-.51-1.14-.29-.25-.71-.37-1.24-.37s-.95.11-1.23.33c-.28.22-.43.5-.43.84,0,.32.1.57.31.74.21.18.67.35,1.4.53.71.18,1.21.33,1.5.46.44.2.77.47,1,.79.22.33.34.72.34,1.17s-.12.86-.35,1.23-.56.65-.96.85c-.41.19-.89.29-1.46.29-.89,0-1.6-.24-2.13-.72-.53-.48-.8-1.13-.82-1.95Z"/>
      <path class="cls-6" d="m302.64,286.98v-7.87h.95v7.87h-.95Z"/>
      <path class="cls-6" d="m305.23,286.98v-7.87h2.49c.61,0,1.08.05,1.4.14.42.13.78.35,1.09.69s.55.75.72,1.26c.17.51.26,1.11.26,1.8,0,.89-.15,1.65-.44,2.27-.29.62-.67,1.06-1.12,1.32s-1.06.39-1.79.39h-2.6Zm.95-.93h1.53c.62,0,1.09-.09,1.41-.27.32-.18.56-.47.74-.87.23-.53.34-1.17.34-1.92,0-.8-.12-1.43-.36-1.88-.24-.46-.55-.76-.93-.92-.26-.1-.66-.16-1.22-.16h-1.51v6.02Z"/>
      <path class="cls-6" d="m312.54,286.98v-7.87h5.2v.93h-4.25v2.41h3.98v.93h-3.98v2.68h4.42v.93h-5.37Z"/>
      <path class="cls-6" d="m319.19,286.98v-7.87h.98l3.79,6.19v-6.19h.91v7.87h-.98l-3.78-6.2v6.2h-.92Z"/>
      <path class="cls-6" d="m331.59,284.22l.96.26c-.21.88-.58,1.54-1.11,1.98-.53.44-1.17.65-1.93.65-.67,0-1.24-.15-1.71-.44-.47-.29-.86-.76-1.16-1.41-.3-.65-.45-1.41-.45-2.28s.15-1.6.45-2.2c.3-.6.71-1.05,1.23-1.36.52-.31,1.09-.46,1.73-.46.7,0,1.29.19,1.79.58.5.39.85.96,1.05,1.71l-.93.24c-.32-1.09-.96-1.64-1.92-1.64-.48,0-.9.11-1.25.33-.35.22-.63.56-.84,1.03-.21.47-.32,1.06-.32,1.77,0,1.08.21,1.89.63,2.43.42.54.99.81,1.69.81.52,0,.97-.17,1.34-.5.38-.33.63-.83.76-1.51Z"/>
      <path class="cls-6" d="m333.76,286.98v-7.87h5.2v.93h-4.25v2.41h3.98v.93h-3.98v2.68h4.42v.93h-5.37Z"/>
      <path class="cls-6" d="m340.13,284.44l.9-.09c.05.43.16.77.33,1.01.17.24.41.44.73.58.32.15.67.22,1.07.22.57,0,1.01-.12,1.32-.37.31-.25.47-.57.47-.97,0-.23-.06-.44-.17-.61-.11-.17-.29-.32-.52-.43-.23-.11-.73-.27-1.49-.47-.68-.18-1.16-.36-1.45-.54-.29-.18-.51-.41-.67-.7-.16-.28-.24-.6-.24-.95,0-.64.23-1.16.69-1.56.46-.4,1.08-.61,1.86-.61.54,0,1,.09,1.41.28.4.19.71.46.93.82s.34.77.36,1.25l-.92.08c-.05-.51-.22-.89-.51-1.14-.29-.25-.71-.37-1.24-.37s-.95.11-1.23.33c-.28.22-.43.5-.43.84,0,.32.1.57.31.74.21.18.67.35,1.4.53.71.18,1.21.33,1.5.46.44.2.77.47,1,.79.22.33.34.72.34,1.17s-.12.86-.35,1.23-.56.65-.96.85c-.41.19-.89.29-1.46.29-.89,0-1.6-.24-2.13-.72-.53-.48-.8-1.13-.82-1.95Z"/>
      <path class="cls-6" d="m348.61,286.98l2.78-7.87h1.02l2.95,7.87h-1.09l-.84-2.38h-3.03l-.78,2.38h-1Zm2.07-3.23h2.45l-.75-2.18c-.23-.67-.4-1.21-.51-1.63-.09.5-.22,1.01-.39,1.5l-.8,2.31Z"/>
      <path class="cls-6" d="m357.44,286.98l-2.79-7.87h1.03l1.88,5.72c.14.44.27.87.38,1.29.11-.43.24-.86.38-1.29l1.95-5.72h.97l-2.81,7.87h-.98Z"/>
      <path class="cls-6" d="m360.55,286.98l2.78-7.87h1.02l2.95,7.87h-1.09l-.84-2.38h-3.03l-.78,2.38h-1Zm2.07-3.23h2.45l-.75-2.18c-.23-.67-.4-1.21-.51-1.63-.09.5-.22,1.01-.39,1.5l-.8,2.31Z"/>
      <path class="cls-6" d="m368.02,286.98v-7.87h.98l3.79,6.19v-6.19h.91v7.87h-.98l-3.78-6.2v6.2h-.92Z"/>
      <path class="cls-6" d="m377.15,286.98v-6.95h-2.37v-.93h5.71v.93h-2.38v6.95h-.95Z"/>
      <path class="cls-6" d="m380.44,284.61v-.97h2.71v.97h-2.71Z"/>
      <path class="cls-6" d="m387.64,283.89v-.93h3.05s0,2.92,0,2.92c-.47.41-.95.71-1.45.92-.5.21-1.01.31-1.54.31-.7,0-1.33-.16-1.88-.47s-.99-.78-1.31-1.38c-.32-.61-.48-1.33-.48-2.18s.16-1.61.49-2.25c.32-.64.75-1.11,1.27-1.41s1.14-.45,1.86-.45c.53,0,.99.09,1.38.26.4.18.72.42.98.75.26.32.45.76.58,1.33l-.86.26c-.12-.44-.26-.78-.44-1-.17-.22-.41-.39-.69-.52-.29-.12-.61-.19-.97-.19-.52,0-.97.11-1.35.34-.38.23-.68.58-.91,1.06-.23.48-.34,1.07-.34,1.76,0,1.05.25,1.84.74,2.37.49.53,1.13.79,1.92.79.38,0,.76-.08,1.15-.24s.71-.35.94-.57v-1.47h-2.11Z"/>
      <path class="cls-6" d="m391.29,286.98l2.78-7.87h1.02l2.95,7.87h-1.09l-.84-2.38h-3.03l-.78,2.38h-1Zm2.07-3.23h2.45l-.75-2.18c-.23-.67-.4-1.21-.51-1.63-.09.5-.22,1.01-.39,1.5l-.8,2.31Z"/>
      <path class="cls-6" d="m398.78,286.98v-7.87h3.19c.67,0,1.16.07,1.48.22s.58.39.78.73c.2.34.3.74.3,1.19,0,.59-.17,1.08-.52,1.44-.35.37-.85.6-1.51.7.27.14.47.29.61.44.28.3.53.64.75,1l1.26,2.14h-1.2l-.96-1.64c-.37-.64-.65-1.07-.84-1.29-.19-.22-.37-.37-.55-.45s-.43-.12-.75-.12h-1.1v3.5h-.95Zm.95-4.4h2.05c.45,0,.79-.05,1.02-.14s.42-.25.55-.46c.14-.21.2-.45.2-.72,0-.4-.13-.71-.39-.94s-.64-.34-1.16-.34h-2.28v2.6Z"/>
      <path class="cls-6" d="m406.02,286.98v-7.87h2.49c.61,0,1.08.05,1.4.14.42.13.78.35,1.09.69s.55.75.72,1.26c.17.51.26,1.11.26,1.8,0,.89-.15,1.65-.44,2.27-.29.62-.67,1.06-1.12,1.32s-1.06.39-1.79.39h-2.6Zm.95-.93h1.53c.62,0,1.09-.09,1.41-.27.32-.18.56-.47.74-.87.23-.53.34-1.17.34-1.92,0-.8-.12-1.43-.36-1.88-.24-.46-.55-.76-.93-.92-.26-.1-.66-.16-1.22-.16h-1.51v6.02Z"/>
      <path class="cls-6" d="m413.48,286.98v-7.87h.95v7.87h-.95Z"/>
      <path class="cls-6" d="m415.77,284.44l.9-.09c.05.43.16.77.33,1.01.17.24.41.44.73.58.32.15.67.22,1.07.22.57,0,1.01-.12,1.32-.37.31-.25.47-.57.47-.97,0-.23-.06-.44-.17-.61-.11-.17-.29-.32-.52-.43-.23-.11-.73-.27-1.49-.47-.68-.18-1.16-.36-1.45-.54-.29-.18-.51-.41-.67-.7-.16-.28-.24-.6-.24-.95,0-.64.23-1.16.69-1.56.46-.4,1.08-.61,1.86-.61.54,0,1,.09,1.41.28.4.19.71.46.93.82s.34.77.36,1.25l-.92.08c-.05-.51-.22-.89-.51-1.14-.29-.25-.71-.37-1.24-.37s-.95.11-1.23.33c-.28.22-.43.5-.43.84,0,.32.1.57.31.74.21.18.67.35,1.4.53.71.18,1.21.33,1.5.46.44.2.77.47,1,.79.22.33.34.72.34,1.17s-.12.86-.35,1.23-.56.65-.96.85c-.41.19-.89.29-1.46.29-.89,0-1.6-.24-2.13-.72-.53-.48-.8-1.13-.82-1.95Z"/>
      <path class="cls-6" d="m424.65,286.98v-6.95h-2.37v-.93h5.71v.93h-2.38v6.95h-.95Z"/>
      <path class="cls-6" d="m428.97,286.98v-7.87h5.2v.93h-4.25v2.41h3.98v.93h-3.98v2.68h4.42v.93h-5.37Z"/>
      <path class="cls-6" d="m435.33,284.44l.9-.09c.05.43.16.77.33,1.01.17.24.41.44.73.58.32.15.67.22,1.07.22.57,0,1.01-.12,1.32-.37.31-.25.47-.57.47-.97,0-.23-.06-.44-.17-.61-.11-.17-.29-.32-.52-.43-.23-.11-.73-.27-1.49-.47-.68-.18-1.16-.36-1.45-.54-.29-.18-.51-.41-.67-.7-.16-.28-.24-.6-.24-.95,0-.64.23-1.16.69-1.56.46-.4,1.08-.61,1.86-.61.54,0,1,.09,1.41.28.4.19.71.46.93.82s.34.77.36,1.25l-.92.08c-.05-.51-.22-.89-.51-1.14-.29-.25-.71-.37-1.24-.37s-.95.11-1.23.33c-.28.22-.43.5-.43.84,0,.32.1.57.31.74.21.18.67.35,1.4.53.71.18,1.21.33,1.5.46.44.2.77.47,1,.79.22.33.34.72.34,1.17s-.12.86-.35,1.23-.56.65-.96.85c-.41.19-.89.29-1.46.29-.89,0-1.6-.24-2.13-.72-.53-.48-.8-1.13-.82-1.95Z"/>
      <path class="cls-6" d="m442.51,286.98v-1.1h1.01v1.1h-1.01Z"/>
    </g>
  </g>
  <g id="logoQc">
    <g>
      <g>
        <path class="cls-6" d="m320.76,333.83v-5.53h-.04c-.2.18-.92.2-1.23.2h-.53v.05c.62.38.53.94.53,1.63v2.34c0,1.17-1.15,1.99-2.07,1.99-1.22,0-1.73-.87-1.73-2.26v-3.94h-.04c-.2.18-.93.2-1.23.2h-.53v.04c.62.38.53.94.53,1.63v2.33c0,2.13.93,3.15,2.58,3.15.98,0,1.99-.35,2.49-1.18v1.01h1.81v-.05c-.62-.35-.53-.91-.53-1.61Z"/>
        <path class="cls-6" d="m323.56,330.88c.17-.95.87-1.55,1.81-1.55,1.01,0,1.65.5,1.81,1.55h-3.62Zm5.09.88c.06-1.95-1.25-3.42-3.16-3.42-2.09,0-3.51,1.52-3.51,3.62s1.64,3.73,4.02,3.73c.66,0,1.33-.1,1.94-.37l.7-1.42h-.04c-.65.55-1.46.81-2.3.81-1.58,0-2.78-1.08-2.8-2.94h5.15Z"/>
        <path class="cls-6" d="m329.76,325.1c.34,0,1.02-.02,1.23-.23h.04v9.57c.38.11.77.18,1.16.18,1.53,0,2.41-1.07,2.41-2.57s-.68-2.6-2.09-2.6c-.45,0-.79.12-1.17.33l.75-1.29c.32-.12.65-.17.99-.17,1.59,0,2.94,1.38,2.94,3.45,0,2.37-1.6,3.9-4.14,3.9-.95,0-1.86-.17-2.54-.27v-.05c.46-.21.42-.71.42-1.21v-6.96c0-.7.08-1.68-.52-2.06v-.05h.52Z"/>
        <path class="cls-6" d="m338.51,330.88c.17-.95.87-1.55,1.81-1.55,1.01,0,1.65.5,1.81,1.55h-3.62Zm5.09.88c.06-1.95-1.25-3.42-3.16-3.42-2.09,0-3.51,1.52-3.51,3.62s1.64,3.73,4.02,3.73c.66,0,1.33-.1,1.94-.37l.7-1.42h-.04c-.65.55-1.46.81-2.3.81-1.58,0-2.78-1.08-2.81-2.94h5.15Z"/>
        <path class="cls-6" d="m349.87,330.07h-.04c-.41-.5-1.08-.74-1.71-.74-1.36,0-2.34,1.03-2.34,2.47,0,1.75,1.36,2.9,2.92,2.9.72,0,1.5-.3,2.05-.74h.04l-.73,1.43c-.59.24-1.23.3-1.85.3-2.16,0-3.85-1.52-3.85-3.49,0-2.61,1.88-3.86,4-3.86.51,0,1.02.06,1.51.18v1.55Z"/>
        <path class="cls-7" d="m326.9,327.08v-1.52c-.92.41-1.77,1.18-2.34,1.93v.59c1.36-.92,2.34-.96,2.34-1Z"/>
        <path class="cls-6" d="m308.1,334.64c-2.12,0-3.59-2.39-3.59-4.42,0-.02,0-.21,0-.23.03-1.97,1.3-3.81,3.52-3.81,2.34,0,3.54,2.21,3.56,4.31v.22c0,2.23-1.39,3.93-3.49,3.93Zm7.26,2.32c-1.56.26-3.07-.24-4.66-2.06,1.54-.77,2.5-2.7,2.5-4.5,0-.02,0-.2,0-.22-.03-3.07-2.33-5.09-5.08-5.09s-5.18,2.11-5.2,5.2c0,.01,0,.19,0,.21,0,3.01,2.23,5.24,4.97,5.24.39,0,.77-.06,1.15-.15,1.79,1.68,3.39,2.39,4.77,2.23.65-.08,1.35-.34,1.76-.88l-.2.03Z"/>
      </g>
      <g>
        <rect class="cls-6" x="353.29" y="325.1" width="6.84" height="4.19"/>
        <path class="cls-11" d="m356.71,325.32c-.05.09-.16.22-.35.46-.22.27-.18.64-.08.85.12.25.19.45.24.65.07.28.03.66.03.63h-.19c0-.46-.14-.9-.49-1.09-.5-.27-.99.2-.83.7.08.26.23.35.27.35,0,0-.07-.29.14-.43.19-.14.43-.05.55.11.11.16.12.37.12.37h-.36v.26h.72s-.02.37-.41.34c0,0,.05.29.41.14,0,0-.02.31.23.46h0c.25-.15.23-.46.23-.46.36.15.41-.14.41-.14-.39.04-.41-.34-.41-.34h.72s0-.26,0-.26h-.36s.02-.21.12-.37c.11-.16.35-.25.55-.11.21.15.14.43.14.43.04,0,.19-.09.27-.35.16-.5-.33-.97-.83-.7-.35.19-.49.63-.49,1.09h-.19s-.05-.34.03-.63c.05-.2.12-.4.24-.65.1-.21.14-.58-.08-.85-.19-.24-.3-.37-.35-.46Z"/>
        <rect class="cls-6" x="362.13" y="325.1" width="6.84" height="4.19"/>
        <path class="cls-11" d="m365.55,325.32c-.05.09-.16.22-.35.46-.22.27-.18.64-.08.85.12.25.19.45.24.65.07.28.03.66.03.63h-.19c0-.46-.14-.9-.49-1.09-.5-.27-.98.2-.83.7.08.26.23.35.27.35,0,0-.07-.29.14-.43.19-.14.43-.05.55.11.11.16.12.37.12.37h-.36v.26h.72s-.02.37-.41.34c0,0,.05.29.41.14,0,0-.02.31.23.46h0c.25-.15.23-.46.23-.46.36.15.41-.14.41-.14-.39.04-.41-.34-.41-.34h.72s0-.26,0-.26h-.36s.02-.21.12-.37c.11-.16.35-.25.55-.11.21.15.14.43.14.43.04,0,.19-.09.27-.35.16-.5-.33-.97-.83-.7-.35.19-.49.63-.49,1.09h-.19s-.05-.34.03-.63c.05-.2.12-.4.24-.65.1-.21.14-.58-.08-.85-.19-.24-.3-.37-.35-.46Z"/>
      </g>
      <g>
        <rect class="cls-6" x="353.29" y="331.29" width="6.84" height="4.19"/>
        <path class="cls-11" d="m356.71,331.51c-.05.09-.16.22-.35.46-.22.27-.18.63-.08.85.12.25.19.45.24.65.07.28.03.66.03.63h-.19c0-.46-.14-.9-.49-1.09-.5-.28-.99.2-.83.7.08.26.23.35.27.35,0,0-.07-.29.14-.43.19-.14.43-.05.55.11.11.16.12.37.12.37h-.36v.26h.72s-.02.37-.41.34c0,0,.05.29.41.14,0,0-.02.31.23.46h0c.25-.15.23-.46.23-.46.36.15.41-.14.41-.14-.39.04-.41-.34-.41-.34h.72v-.26h-.36s.02-.21.12-.37c.11-.16.35-.25.55-.11.21.15.14.43.14.43.04,0,.19-.09.27-.35.16-.49-.33-.97-.83-.7-.35.19-.49.63-.49,1.09h-.19s-.05-.34.03-.63c.05-.2.12-.4.24-.65.1-.21.14-.58-.08-.85-.19-.24-.3-.37-.35-.46Z"/>
        <rect class="cls-6" x="362.13" y="331.29" width="6.84" height="4.19"/>
        <path class="cls-11" d="m365.55,331.51c-.05.09-.16.22-.35.46-.22.27-.18.63-.08.85.12.25.19.45.24.65.07.28.03.66.03.63h-.19c0-.46-.14-.9-.49-1.09-.5-.28-.98.2-.83.7.08.26.23.35.27.35,0,0-.07-.29.14-.43.19-.14.43-.05.55.11.11.16.12.37.12.37h-.36v.26h.72s-.02.37-.41.34c0,0,.05.29.41.14,0,0-.02.31.23.46h0c.25-.15.23-.46.23-.46.36.15.41-.14.41-.14-.39.04-.41-.34-.41-.34h.72v-.26h-.36s.02-.21.12-.37c.11-.16.35-.25.55-.11.21.15.14.43.14.43.04,0,.19-.09.27-.35.16-.49-.33-.97-.83-.7-.35.19-.49.63-.49,1.09h-.19s-.05-.34.03-.63c.05-.2.12-.4.24-.65.1-.21.14-.58-.08-.85-.19-.24-.3-.37-.35-.46Z"/>
      </g>
    </g>
    <g>
      <g>
        <path class="cls-6" d="m243.31,319.31c0,.09.43.13.43.35v3.46h2.99l.26-1s-.08-.02-.15.05c-.14.15-.27.6-.94.6h-1.43v-1.54h1.6v-.36h-1.6v-1.29h1.55c.31,0,.44.22.62.28.04.01.09,0,.09,0l-.24-.62h-3.19v.06Z"/>
        <path class="cls-6" d="m240.6,323.12c.41,0,.8-.06,1.13-.21.7-.32,1.17-.96,1.17-1.75,0-1.15-.86-1.91-2.49-1.91h-1.49v.06c0,.09.43.13.43.35v3.46h1.24Zm.86-.49c-.22.11-.5.15-.7.15h-.67v-3.18h.09c1.75,0,2.1.99,2.1,1.68,0,.64-.35,1.12-.82,1.35Z"/>
        <path class="cls-6" d="m219.14,318.43c0,.09.38.07.5.37l1.82,4.33h.54l1.81-4.75h-1.04v.06c0,.09.38.05.38.26,0,.09-.08.32-.15.5l-1.16,3.1h-.02l-1.59-3.92h-1.11v.06Z"/>
        <path class="cls-6" d="m233.25,319.31c0,.09.43.13.43.35v3.46h2.99l.26-1s-.08-.02-.15.05c-.14.15-.27.6-.94.6h-1.43v-1.54h1.6v-.36h-1.6v-1.29h1.55c.31,0,.44.22.62.28.04.01.09,0,.09,0l-.24-.62h-3.18v.06Z"/>
        <path class="cls-6" d="m229.67,319.25v.06c0,.09.43.13.43.35v3.46h2.8l.26-1s-.08-.02-.15.05c-.14.15-.27.6-.94.6h-1.24v-3.53h-1.16Z"/>
        <path class="cls-6" d="m226.06,319.25v.06c0,.09.43.13.43.35v3.46h2.8l.26-1s-.08-.02-.15.05c-.14.15-.27.6-.94.6h-1.24v-3.53h-1.16Z"/>
        <path class="cls-6" d="m225.24,323.12v-3.87h-1.16v.06c0,.09.43.13.43.35v3.46h.73Z"/>
      </g>
      <g>
        <path class="cls-6" d="m243.53,326.49c.44-.1,2.04-.98,3.07-1.52h-1.8l-1.6,1.44s.13.13.33.08Z"/>
        <path class="cls-6" d="m236.96,327.24v.12c0,.18.9.26.9.69v4.24c0,1.28-.99,2.07-2.24,2.07s-2.24-.84-2.24-2.12v-5.01h-2.24v.12c0,.2.73.26.73.79v3.92c0,1.87,1.28,2.95,3.64,2.95.89,0,1.76-.35,2.35-.89v.76h2.24v-.12c0-.2-.72-.26-.72-.79v-6.74h-2.41Z"/>
        <path class="cls-6" d="m272.48,329.24c-.07-.6-.13-1.21-.14-1.81-.67-.27-1.46-.37-2.2-.37-2.4,0-5.1,1.27-5.1,4.06s2.59,3.98,4.47,3.98c1.23,0,2.43-.3,3.2-.93l.06-.68c-.81.44-1.78.78-2.78.78-2.04,0-3.62-1.7-3.62-3.56,0-1.59,1.25-2.91,3.37-2.91.71,0,1.52.16,2.05.64.27.23.42.8.57.8h.12Z"/>
        <path class="cls-6" d="m240.79,327.36c0,.18.9.26.9.69v6.84h6.22l.55-1.98s-.17-.03-.32.11c-.3.3-.56,1.19-1.96,1.19h-2.98v-3.04h3.33v-.7h-3.33v-2.56h3.22c.64,0,.92.44,1.29.55.09.02.19,0,.19,0l-.49-1.22h-6.62v.12Z"/>
        <path class="cls-6" d="m256.84,327.36c0,.18.9.26.9.69v6.84h6.22l.55-1.98s-.17-.03-.32.11c-.3.3-.56,1.19-1.96,1.19h-2.98v-3.04h3.33v-.7h-3.33v-2.56h3.22c.64,0,.92.44,1.29.55.09.02.19,0,.19,0l-.49-1.22h-6.62v.12Z"/>
        <path class="cls-6" d="m248.73,327.24v.12c0,.18.9.26.9.69v6.84h2.91c.69,0,1.3-.05,1.81-.19,1.45-.37,2.16-1.23,2.16-2.08,0-1.28-1.25-1.76-2.64-1.9v-.02c1.04-.27,1.83-.72,1.83-1.68,0-1.38-1.39-1.79-3.29-1.79h-3.68Zm3.65.67c.33,0,.64.02.91.08.63.15,1.07.51,1.07,1.17,0,.6-.46,1.05-1.33,1.24-.33.07-.73.09-1.19.09h-.7v-2.58h1.24Zm.13,3.26c.39,0,.73,0,1.04.06.98.19,1.54.7,1.54,1.53,0,.71-.59,1.18-1.63,1.37-.41.07-.89.08-1.42.08h-.91v-3.04h1.37Z"/>
        <path class="cls-6" d="m236.9,336.86c0,.09-.07.13-.16.17-.81.42-2.33,1.08-4.26,1.08-2.03,0-3.46-.58-5.69-1.96l-1.62-1.02c-.21.01-.41.02-.63.01-3.07-.09-5.41-2.38-5.23-5.12.18-2.74,2.81-4.9,5.88-4.81,3.07.09,5.41,2.38,5.23,5.13-.13,1.99-1.55,3.67-3.5,4.41l1.49.85c2.84,1.56,4.63,1.72,5.54,1.72.7,0,1.69-.12,2.62-.51.08-.03.15-.07.2-.07.07,0,.12.06.12.13Zm-12.23-10.6c-2.18,0-3.86,1.75-3.75,3.92.11,2.16,1.96,3.92,4.14,3.92,2.18,0,3.86-1.75,3.75-3.92-.11-2.17-1.96-3.92-4.14-3.92Z"/>
      </g>
      <g>
        <path class="cls-6" d="m256.36,312.96c-.98-1.4-1.27-3.28.93-3.91l3.59-.7c-.84.79-1.1,2.07-.01,3.86-2.13-1.04-4.7-.89-4.51.75Z"/>
        <path class="cls-6" d="m267.3,311.04c-1.25-1.9-.71-3.42-.03-4.11l-4.76,1.02c-2.11.9-1.58,2.89-.82,4.03-.15-1.47,2.08-2.22,5.6-.93Z"/>
        <path class="cls-6" d="m263.24,318.65c-4.16-3.49-2.6-5.81-1.17-6.52l5.28-.98c-2.38,2.44-1.48,5.28-.3,6.71-2.07-1.15-4.95-1.26-3.81.79Z"/>
        <path class="cls-6" d="m258.75,317.37c-.73.05-1.07.5-.99,1.05-1.67-1.24-2.73-3.34-1.37-5.2l4.52-.84c-1.07,1-1.75,3.36,1.6,6.21-1.09-.32-2.28-1.32-3.77-1.23Z"/>
        <path class="cls-6" d="m271.4,310.61c-2.61.55-7.1,2.69-3.75,7.03-.57-1.72,1.22-1.88,3.78-1.49-1.57-1.03-2.65-3.14-.03-5.54Z"/>
        <path class="cls-6" d="m265.83,319.22l.14-.42.85-.06.32-.66,2.55-.76.24-.57,2.22-.73c.38.87.12,1.76-.32,2.47-.26.43-.61.78-.86,1.08-.66.81-.47,2.16.24,3.54h-12.28c-1.03-.96-1.4-1.88-1.87-2.84-.47-.95-1.03-1.37-2.5-2.36-.35-.23-.16-.57.21-.34l1.08.65c2.91,1.05,6.67,1.09,9.98.99Z"/>
        <path class="cls-6" d="m251.89,314.67l.51.02c-.77-.53-1.43-1.01-1.59-1.12-.25-.17-.3.05-.15.16l1.24.95Z"/>
        <path class="cls-6" d="m254.22,315.95s-.2.37-.04.6l1.44,1.21,1.48.39-2.88-2.21Z"/>
        <path class="cls-6" d="m258.47,305.54c.01-.22.1-.25.12-.03.02.21.24,2.52.25,2.71,0,.19-.02.24-.08.25-.06.02-.17.03-.23.04-.07,0-.1-.02-.11-.13,0-.11.04-2.44.06-2.84Z"/>
        <path class="cls-6" d="m264.74,303.62c0-.1.02-.17.07-.17.05,0,.07.06.08.13.01.17.22,3.38.23,3.47,0,.1-.01.13-.09.15-.09.03-.12.03-.21.05-.08,0-.14-.02-.14-.11s.06-3.36.06-3.52Z"/>
        <path class="cls-6" d="m268.89,307.42c0-.15.1-.18.11-.03.01.15.18,3.4.18,3.58s-.01.2-.07.24c-.06.04-.1.05-.18.09-.08.04-.12.03-.12-.07s.04-2.85.08-3.8Z"/>
        <path class="cls-6" d="m267.03,308.6c-.06-.1,0-.1.03-.1.12.02.41.06.63-.06.22-.11.43-.25.65-.3.29-.06.42-.01.29.14-.21.26-.23.63-.05.93.06.1.06.15-.04.14-.62-.07-.87-.22-1.37.07-.11.06-.14.02-.1-.04.11-.17.24-.29.4-.39.08-.05.06-.08,0-.1-.24-.08-.4-.21-.45-.3Z"/>
        <path class="cls-6" d="m264.48,304.46c-.4.19-.65.15-.86.05-.09-.05-.19-.1-.27-.12-.34-.13-.5-.06-.73.11-.27.2-.54.28-.84.36-.19.05-.39.12-.53.22-.2.15-.3.33-.35.48-.04.12-.02.14.07.11.33-.12.42-.19.87-.09.52.12.76.16,1.26-.02.5-.18.73-.22,1.03-.05.12.07.27.19.32.13.05-.06-.08-.16-.11-.25-.11-.36.04-.67.17-.84.03-.04.02-.11-.05-.08Z"/>
        <path class="cls-6" d="m258.19,306.78c-.11-.19-.07-.5.02-.73.05-.14-.16-.2-.47-.1-.31.1-.51.27-.93.31-.34.03-.64-.03-.76-.06-.09-.02-.08.03.01.13.05.06.2.17.34.24.06.03.04.08-.03.15-.06.06-.16.15-.33.23-.03.02-.09.06.07.13.21.1.63.2,1.14.02.25-.09.41-.2.67-.19.31.01.37.03.28-.14Z"/>
        <path class="cls-6" d="m272.6,314.18c0,.23-.19.41-.41.41s-.41-.19-.41-.41.19-.41.41-.41.41.19.41.41Z"/>
        <path class="cls-6" d="m272.73,314.49c-.11.19-.31.32-.55.32s-.44-.13-.55-.32c-.16.16-.18.24-.18.24l.21.16.19.97h.66l.19-.97.21-.16s-.03-.08-.18-.24Z"/>
        <path class="cls-6" d="m271.08,320.06c-.32.67-.17,1.72.45,2.9l.09.17h.74s.05-.45-.6-1.36c-.61-.84-.66-1.53-.67-1.7Z"/>
        <path class="cls-6" d="m254.93,318.77c.06.04.05.08-.02.04-.06-.04-.41-.25-.6-.35-2.58,2.32-5.75-1.69-3.31-3.52l3.34-.1c-1.07,1.92-.37,3.2.59,3.92Zm-.69-.35c-1.17-.65-2.32-.75-2.54-.16-.3.8,1.61,1.13,2.54.16Z"/>
      </g>
    </g>
  </g>
</svg>