<?xml version="1.0" encoding="UTF-8"?>
<svg id="Calque_2" data-name="Calque 2" xmlns="http://www.w3.org/2000/svg" xmlns:xlink="http://www.w3.org/1999/xlink" viewBox="0 0 575.94 416.7">
  <defs>
    <style>
      .cls-1 {
        fill: url(#Dégradé_sans_nom_612);
        stroke: url(#Dégradé_sans_nom_605);
      }

      .cls-1, .cls-2, .cls-3, .cls-4 {
        stroke-miterlimit: 10;
      }

      .cls-1, .cls-3 {
        stroke-width: 2px;
      }

      .cls-5 {
        opacity: .7;
      }

      .cls-6, .cls-7, .cls-2, .cls-8 {
        fill: #fff;
      }

      .cls-9 {
        opacity: .5;
      }

      .cls-10 {
        fill: #a77fff;
      }

      .cls-7, .cls-11 {
        fill-rule: evenodd;
      }

      .cls-2 {
        stroke-width: .5px;
      }

      .cls-2, .cls-3 {
        stroke: #fff;
      }

      .cls-8 {
        font-family: DMSerifText-Regular, 'DM Serif Text';
        font-size: 11px;
      }

      .cls-3, .cls-12 {
        fill: none;
      }

      .cls-4 {
        fill: url(#Dégradé_sans_nom_22);
        stroke: #001cc9;
        stroke-width: 3px;
      }

      .cls-13 {
        fill: url(#Dégradé_sans_nom_22-2);
      }

      .cls-11 {
        fill: #1e00aa;
      }
    </style>
    <radialGradient id="Dégradé_sans_nom_22" data-name="Dégradé sans nom 22" cx="287.97" cy="208.35" fx="287.97" fy="208.35" r="249.85" gradientUnits="userSpaceOnUse">
      <stop offset="0" stop-color="#1300bf"/>
      <stop offset=".19" stop-color="#1200b9"/>
      <stop offset=".43" stop-color="#1000a9"/>
      <stop offset=".71" stop-color="#0d008e"/>
      <stop offset="1" stop-color="#0a006a"/>
    </radialGradient>
    <radialGradient id="Dégradé_sans_nom_22-2" data-name="Dégradé sans nom 22" cx="288.3" cy="208.35" fx="288.3" fy="208.35" r="233.82" xlink:href="#Dégradé_sans_nom_22"/>
    <radialGradient id="Dégradé_sans_nom_612" data-name="Dégradé sans nom 612" cx="285.3" cy="212.43" fx="285.3" fy="212.43" r="232.03" gradientTransform="translate(1.52 38.76) rotate(.46) scale(1 .79) skewX(-.04)" gradientUnits="userSpaceOnUse">
      <stop offset="0" stop-color="#0a006a"/>
      <stop offset=".23" stop-color="#0e0070"/>
      <stop offset=".47" stop-color="#19007d"/>
      <stop offset=".71" stop-color="#27008f"/>
      <stop offset="1" stop-color="#3c00aa"/>
    </radialGradient>
    <radialGradient id="Dégradé_sans_nom_605" data-name="Dégradé sans nom 605" cx="285.3" cy="210.13" fx="285.3" fy="210.13" r="213.26" gradientTransform="translate(0 2.5) scale(1 .99)" gradientUnits="userSpaceOnUse">
      <stop offset="0" stop-color="#0a006a"/>
      <stop offset=".11" stop-color="#0c026c"/>
      <stop offset=".18" stop-color="#130b74"/>
      <stop offset=".25" stop-color="#1f1b81"/>
      <stop offset=".3" stop-color="#303093"/>
      <stop offset=".36" stop-color="#474cab"/>
      <stop offset=".41" stop-color="#626ec9"/>
      <stop offset=".46" stop-color="#8296eb"/>
      <stop offset=".48" stop-color="#94adff"/>
      <stop offset=".56" stop-color="#8a9af5"/>
      <stop offset=".71" stop-color="#7168dd"/>
      <stop offset=".93" stop-color="#491ab7"/>
      <stop offset="1" stop-color="#3c00aa"/>
    </radialGradient>
  </defs>
  <g id="pierre">
    <ellipse class="cls-4" cx="287.97" cy="208.35" rx="286.47" ry="206.85"/>
    <g class="cls-9">
      <path class="cls-13" d="m555.13,207.39c0,105.01-123.15,196.27-268.58,196.27S21.47,308.17,21.47,203.17,139.36,13.04,284.78,13.04s270.35,89.34,270.35,194.35Z"/>
      <path class="cls-10" d="m555.33,207.39c.17,46.2-24.39,89.1-57.45,120.08-73.04,67.87-181.2,90.93-277.57,70.75-66.46-14.32-130.98-49.53-170.38-106.09-17.21-25.11-28.66-54.69-29.51-85.34-1.11-30.7,8.59-61.25,25.55-86.71C89.25,55.91,166.36,22.67,241.17,13.5c90.24-10.78,187.67,12.37,255.86,74.34,33.43,30.55,58.54,73.3,58.3,119.55h0Zm-.4,0c.09-62.18-44.61-114.34-95.54-145.08C381.73,15.29,284.78,3.97,197.23,25.97,112.57,46.42,21.24,111.39,22.63,206.72c.54,30.25,11.5,59.74,28.47,84.61,43.31,62.82,117.74,98.57,192.09,108.05,89.27,10.77,185.65-12.51,253.49-73.21,33.45-30.23,58.45-72.73,58.25-118.78h0Z"/>
    </g>
    <ellipse class="cls-1" cx="285.3" cy="209.64" rx="246.88" ry="168.37"/>
    <text/>
    <ellipse class="cls-12" cx="283.93" cy="209.3" rx="247.73" ry="170.36"/>
    <ellipse class="cls-3" cx="285.66" cy="209.48" rx="244.81" ry="166.93"/>
  </g>
  <g id="lumiere">
    <g id="lumiere2" class="cls-5">
      <path class="cls-6" d="m85.06,77.36C125.38,41.62,178.54,20.59,231.8,14.5c9.87-.99,20.01-1.53,29.91-1.47-63.33,4.13-126.11,25.54-176.64,64.33h0Z"/>
    </g>
    <g id="lumiere1" class="cls-5">
      <path class="cls-6" d="m295.34,404.98c46.86-3.22,93.88-12.16,136.51-32.43,14.11-6.78,27.68-14.78,40.26-24.25-5.91,5.21-12.23,9.96-18.78,14.37-46.41,30.43-103.05,42.34-158,42.31h0Z"/>
    </g>
  </g>
  <g id="deco">
    <path class="cls-6" d="m28.79,196.79c-1.07,0-1.99.63-2.43,1.53-.64-.06-4.9-.78-9.81-8.8-.62.5-2.72,2.1-2.72,2.1,0,0,3.26,4.33,8.25,6.35-.66.21-6.02-.5-10.44-4.66-.21.21-2.68,1.9-2.68,1.9,0,0,4.58,3.29,10.85,3.75-.87.25-7.88.37-13.61-1.82-.7.58-3.26,2.52-3.26,2.52l3.3,2.31s12.58-2.57,13.57-2.16c0,0-9.82,2.37-10.81,4.18.62.54,2.64,1.86,2.64,1.86,0,0,5.4-4.54,10.27-5.07-.37.62-4.21,1.9-7.63,6.52.95.66,3.09,2.19,3.09,2.19,0,0,2.05-6.32,8.91-8.95.41.98,1.37,1.68,2.51,1.68,1.5,0,2.71-1.21,2.71-2.71s-1.21-2.71-2.71-2.71Z"/>
    <path class="cls-6" d="m540.17,202.22c1.07,0,1.99-.63,2.43-1.53.64.06,4.9.78,9.81,8.8.62-.5,2.72-2.1,2.72-2.1,0,0-3.26-4.33-8.25-6.35.66-.21,6.02.5,10.44,4.66.21-.21,2.68-1.9,2.68-1.9,0,0-4.58-3.29-10.85-3.75.87-.25,7.88-.37,13.61,1.82.7-.58,3.26-2.52,3.26-2.52l-3.3-2.31s-12.58,2.57-13.57,2.16c0,0,9.82-2.37,10.81-4.18-.62-.54-2.64-1.86-2.64-1.86,0,0-5.4,4.54-10.27,5.07.37-.62,4.21-1.9,7.63-6.52-.95-.66-3.09-2.19-3.09-2.19,0,0-2.05,6.32-8.91,8.95-.41-.98-1.37-1.68-2.51-1.68-1.5,0-2.71,1.21-2.71,2.71s1.21,2.71,2.71,2.71Z"/>
    <path class="cls-6" d="m288.07,387.79c0,1.07-.63,1.99-1.53,2.43.06.64.78,4.9,8.8,9.81-.5.62-2.1,2.72-2.1,2.72,0,0-4.33-3.26-6.35-8.25-.21.66.5,6.02,4.66,10.44-.21.21-1.9,2.68-1.9,2.68,0,0-3.29-4.58-3.75-10.85-.25.87-.37,7.88,1.82,13.61-.58.7-2.52,3.26-2.52,3.26l-2.31-3.3s2.57-12.58,2.16-13.57c0,0-2.37,9.82-4.18,10.81-.54-.62-1.86-2.64-1.86-2.64,0,0,4.54-5.4,5.07-10.27-.62.37-1.9,4.21-6.52,7.63-.66-.95-2.19-3.09-2.19-3.09,0,0,6.32-2.05,8.95-8.91-.98-.41-1.68-1.37-1.68-2.51,0-1.5,1.21-2.71,2.71-2.71s2.71,1.21,2.71,2.71Z"/>
  </g>
  <g id="ecritureVecto">
    <g>
      <path class="cls-6" d="m274.08,353.45l.09-1.55c.25-.12.55-.23.93-.31s.78-.13,1.23-.13c.95,0,1.64.18,2.06.54.42.36.64.81.64,1.35,0,.51-.25,1-.76,1.47s-1.23,1.03-2.18,1.65c-.18.12-.39.26-.62.42s-.46.33-.68.5h4.46v1.21h-5.35v-.89c.6-.53,1.17-1.03,1.68-1.51.6-.55,1.04-1.04,1.32-1.47.29-.43.43-.88.43-1.36s-.1-.87-.31-1.17c-.2-.29-.5-.44-.9-.44-.26,0-.49.05-.69.17-.2.11-.37.3-.5.56l-.48.95h-.38Z"/>
      <path class="cls-6" d="m282.79,358.77c-.48,0-.94-.12-1.36-.37-.43-.25-.77-.64-1.03-1.17s-.39-1.24-.39-2.1.13-1.58.39-2.11.6-.93,1.03-1.18c.43-.25.88-.37,1.36-.37s.94.12,1.36.37c.42.25.77.64,1.03,1.18.26.54.39,1.24.39,2.11s-.13,1.57-.39,2.1c-.26.54-.61.93-1.03,1.17-.43.25-.88.37-1.36.37Zm0-.31c.21,0,.39-.05.54-.14.15-.1.27-.26.36-.5.09-.24.16-.58.21-1.01s.07-1,.07-1.68-.02-1.25-.07-1.69c-.04-.44-.11-.78-.21-1.02-.09-.24-.21-.41-.36-.51-.15-.09-.33-.14-.54-.14s-.38.05-.53.14-.27.26-.36.5c-.09.24-.16.58-.2,1.02-.04.44-.07,1-.07,1.69s.02,1.24.07,1.68.11.78.2,1.02c.09.24.21.41.36.5.15.09.33.14.53.14Z"/>
      <path class="cls-6" d="m286.2,358.61v-.21l.48-.13c.31-.09.47-.27.48-.55v-5.24l-1.02.12v-.25c.46-.07.91-.18,1.34-.33.44-.14.85-.32,1.25-.52l.15.11-.05,1.57v3.12c0,.19,0,.41,0,.67,0,.25,0,.5,0,.73,0,.29.16.47.47.56l.5.13v.21h-3.61Z"/>
      <path class="cls-6" d="m291.33,358.61l-.12-.11,3.97-5.75h-4.77v-1.13h5.36v.71l-2.89,6.28h-1.55Z"/>
    </g>
    <g>
      <path class="cls-6" d="m128.34,55.24l2.85-1.46,3.2,6.24,4.45-2.29,1.05,2.04-7.3,3.75-4.25-8.28Z"/>
      <path class="cls-6" d="m137.19,50.74l7.79-3.63.84,1.8-4.87,2.27.63,1.34,4.52-2.11.8,1.72-4.52,2.11.77,1.66,5.02-2.34.89,1.91-7.93,3.7-3.93-8.43Z"/>
      <path class="cls-6" d="m148.86,52.19l2.74-1.34c.23.38.49.64.77.78.45.22.96.21,1.52-.03.42-.18.71-.4.86-.68.15-.27.18-.53.08-.76-.09-.22-.29-.38-.58-.46-.29-.08-.87-.04-1.72.14-1.41.28-2.48.33-3.21.13-.74-.2-1.25-.63-1.53-1.3-.19-.44-.22-.92-.1-1.43s.42-1,.9-1.47c.48-.46,1.21-.91,2.21-1.33,1.22-.51,2.24-.7,3.05-.56.81.14,1.47.62,1.96,1.46l-2.72,1.32c-.24-.36-.51-.57-.82-.65-.31-.08-.67-.03-1.09.15-.34.14-.58.32-.69.52-.12.2-.14.4-.06.59.06.14.18.23.37.28.19.05.56.02,1.12-.1,1.4-.29,2.43-.43,3.09-.41.67.02,1.21.17,1.62.44s.72.64.92,1.11c.23.55.28,1.13.13,1.74-.14.61-.47,1.16-.98,1.65-.51.5-1.22.94-2.15,1.33-1.63.68-2.87.88-3.73.58-.86-.3-1.52-.86-1.97-1.69Z"/>
      <path class="cls-6" d="m168.4,44.15l-.65-1.82,4.67-1.67,1.33,3.74c-.7.86-1.36,1.52-1.97,1.96-.62.44-1.39.83-2.34,1.17-1.16.41-2.17.57-3.03.48-.86-.09-1.61-.42-2.27-.98-.65-.56-1.14-1.29-1.47-2.2-.34-.96-.42-1.87-.23-2.73.19-.86.64-1.63,1.36-2.3.56-.52,1.4-.98,2.52-1.38,1.08-.39,1.92-.59,2.52-.6.6-.02,1.14.1,1.62.34.49.24.92.61,1.3,1.12l-2.75,1.51c-.24-.29-.53-.47-.88-.54-.35-.07-.75-.03-1.19.13-.66.24-1.12.63-1.36,1.18-.25.55-.21,1.28.11,2.17.34.95.78,1.56,1.32,1.82s1.17.27,1.88.02c.34-.12.64-.28.92-.48s.57-.47.89-.82l-.29-.83-2.02.72Z"/>
      <path class="cls-6" d="m173.13,36.23l8.19-2.58.6,1.9-5.13,1.62.44,1.41,4.76-1.5.57,1.81-4.76,1.5.55,1.75,5.28-1.67.63,2.01-8.34,2.63-2.8-8.87Z"/>
      <path class="cls-6" d="m183.4,33.02l2.89-.8,5.14,3.92-1.37-4.96,2.91-.8,2.48,8.97-2.91.8-5.11-3.89,1.36,4.92-2.91.8-2.48-8.97Z"/>
      <path class="cls-6" d="m196.18,35.99l2.93-.88c.17.42.38.72.63.89.41.29.91.36,1.51.22.44-.11.77-.28.96-.53.2-.24.26-.49.21-.74-.06-.23-.22-.42-.49-.55-.27-.13-.85-.18-1.72-.14-1.43.05-2.5-.08-3.19-.4-.7-.32-1.13-.83-1.3-1.54-.11-.46-.07-.94.14-1.43.2-.49.58-.92,1.12-1.3.55-.38,1.35-.7,2.4-.95,1.29-.31,2.32-.33,3.1-.06.78.27,1.35.86,1.7,1.76l-2.9.86c-.18-.39-.41-.65-.7-.77-.29-.13-.66-.14-1.1-.03-.36.09-.62.22-.77.4-.15.18-.2.37-.16.57.03.14.14.26.32.33.18.08.55.11,1.13.08,1.43-.06,2.47-.03,3.12.1.65.13,1.16.36,1.53.7.36.34.6.75.72,1.24.14.58.09,1.16-.15,1.73-.24.58-.65,1.07-1.23,1.47-.58.41-1.36.73-2.34.96-1.72.41-2.98.4-3.78-.04-.8-.44-1.36-1.1-1.66-1.99Z"/>
      <path class="cls-6" d="m210.56,26.33l4.68-.88c.92-.17,1.69-.2,2.3-.08.61.12,1.14.35,1.59.7.45.35.81.79,1.08,1.31.27.53.47,1.1.58,1.72.18.98.2,1.76.06,2.34-.15.59-.41,1.1-.78,1.55-.37.45-.8.78-1.28.99-.66.3-1.27.5-1.83.6l-4.68.88-1.73-9.14Zm3.54,1.48l.94,5,.77-.15c.66-.12,1.11-.28,1.37-.46.25-.18.43-.45.52-.81.1-.36.07-.9-.06-1.63-.18-.97-.48-1.6-.9-1.89-.42-.29-1.04-.36-1.85-.21l-.79.15Z"/>
      <path class="cls-6" d="m221.82,24.25l8.49-1.32.31,1.96-5.31.83.23,1.46,4.93-.77.29,1.88-4.93.77.28,1.81,5.47-.85.32,2.08-8.64,1.35-1.43-9.2Z"/>
      <path class="cls-6" d="m247.32,28.9c.43.21.7.33.83.38.19.07.45.15.77.24l-.71,1.7c-.47-.15-.93-.33-1.4-.55-.46-.22-.79-.39-.98-.5-.67.35-1.54.58-2.6.7-1.57.17-2.84-.06-3.83-.7-1.16-.75-1.83-1.91-2-3.48-.17-1.52.17-2.76,1.02-3.7.84-.94,2.11-1.51,3.79-1.69,1.71-.19,3.08.08,4.1.81,1.02.72,1.61,1.85,1.78,3.39.15,1.37-.11,2.5-.77,3.4Zm-2.6-1.2c.21-.44.27-1.06.18-1.87-.1-.93-.37-1.58-.8-1.94-.43-.36-.99-.5-1.67-.43-.63.07-1.12.33-1.48.78-.35.45-.48,1.11-.38,1.98.11,1.01.38,1.7.81,2.06.43.37.98.51,1.65.44.22-.02.42-.06.61-.12-.29-.2-.74-.38-1.34-.52l.39-1.08c.29.02.51.05.68.1.16.05.49.19.98.43.12.06.24.11.37.17Z"/>
      <path class="cls-6" d="m256.29,20.21l3.19-.24.41,5.53c.04.55-.02,1.07-.17,1.57-.15.5-.42.95-.8,1.34-.38.39-.79.68-1.23.86-.61.25-1.34.41-2.21.47-.5.04-1.06.05-1.66.03-.6-.02-1.11-.11-1.52-.27-.41-.16-.8-.4-1.16-.72-.36-.32-.61-.66-.76-1.02-.24-.58-.38-1.09-.41-1.55l-.41-5.53,3.19-.23.42,5.66c.04.51.22.89.56,1.15.33.26.78.37,1.33.33.55-.04.97-.21,1.26-.52.29-.3.42-.71.38-1.23l-.42-5.66Z"/>
      <path class="cls-6" d="m261.8,19.85l8.58-.36.08,1.98-5.37.23.06,1.48,4.99-.21.08,1.9-4.99.21.08,1.83,5.53-.23.09,2.11-8.74.37-.39-9.3Zm4-2.63l2.47-.1-2.2,1.99-1.38.06,1.11-1.95Z"/>
      <path class="cls-6" d="m272.5,19.43l6-.07c1-.01,1.77.2,2.31.64.54.44.82.98.82,1.64,0,.55-.18,1.02-.56,1.42-.25.26-.62.48-1.11.64.75.15,1.3.42,1.66.81.36.39.54.88.55,1.47,0,.48-.11.92-.36,1.31-.25.39-.58.7-1.01.93-.27.14-.67.25-1.21.32-.72.09-1.2.14-1.44.14l-5.53.07-.11-9.31Zm3.28,3.61l1.39-.02c.5,0,.85-.09,1.04-.24.19-.16.29-.38.29-.67,0-.27-.1-.48-.3-.63-.2-.15-.54-.22-1.02-.22l-1.42.02.02,1.77Zm.04,3.66l1.63-.02c.55,0,.94-.1,1.16-.28.22-.18.34-.42.33-.71,0-.27-.12-.49-.34-.66-.23-.16-.62-.24-1.18-.24l-1.63.02.02,1.89Z"/>
      <path class="cls-6" d="m283.93,19.36l8.59.09-.02,1.99-5.38-.05v1.48s4.97.05,4.97.05l-.02,1.9-4.99-.05-.02,1.83,5.53.06-.02,2.11-8.75-.09.09-9.31Z"/>
      <path class="cls-6" d="m301.3,25.36l2.77.89c-.22.7-.55,1.27-.97,1.73-.43.45-.95.79-1.56,1-.61.21-1.38.3-2.31.25-1.13-.05-2.04-.24-2.74-.57-.7-.33-1.29-.87-1.78-1.64-.48-.76-.7-1.72-.64-2.88.07-1.54.58-2.7,1.53-3.48s2.26-1.14,3.93-1.06c1.31.06,2.32.35,3.05.85s1.25,1.26,1.56,2.26l-2.85.43c-.09-.29-.18-.5-.28-.64-.17-.23-.38-.41-.63-.54-.25-.13-.54-.2-.86-.22-.73-.03-1.29.2-1.7.71-.31.37-.49.98-.53,1.81-.05,1.03.09,1.74.42,2.14.33.4.81.61,1.44.64.61.03,1.08-.1,1.41-.4.33-.29.58-.73.75-1.31Z"/>
      <path class="cls-6" d="m309.92,26.63l3.05.1c.03.45.13.8.31,1.05.29.4.75.63,1.36.69.46.04.82-.02,1.08-.19.26-.17.41-.38.43-.63.02-.24-.08-.47-.29-.68-.22-.21-.75-.44-1.59-.69-1.38-.41-2.34-.87-2.89-1.4-.56-.52-.81-1.15-.74-1.87.04-.48.24-.91.58-1.31.35-.4.84-.69,1.48-.87.64-.19,1.5-.23,2.57-.13,1.32.12,2.31.43,2.96.93.65.5,1,1.24,1.05,2.21l-3.02-.11c-.04-.42-.18-.74-.42-.96-.24-.21-.58-.34-1.03-.38-.37-.03-.66.01-.86.14-.2.12-.31.29-.33.49-.01.15.05.29.2.42.14.14.49.28,1.04.44,1.37.4,2.35.76,2.93,1.09.58.33.99.71,1.23,1.15.24.43.33.9.29,1.41-.05.59-.29,1.13-.7,1.59-.41.47-.96.8-1.64,1-.68.2-1.52.25-2.52.16-1.76-.16-2.95-.57-3.57-1.24-.62-.67-.93-1.47-.94-2.42Z"/>
      <path class="cls-6" d="m321.65,21.47l8.53,1.02-.24,1.97-5.34-.64-.18,1.47,4.95.59-.23,1.88-4.95-.59-.22,1.82,5.5.66-.25,2.09-8.69-1.04,1.11-9.24Z"/>
      <path class="cls-6" d="m335.58,29.54l3.04.33c0,.45.07.81.23,1.07.26.42.7.69,1.3.79.45.07.81.04,1.09-.11.28-.15.43-.35.48-.6.04-.24-.04-.47-.24-.7-.2-.23-.71-.49-1.53-.8-1.34-.51-2.27-1.04-2.79-1.6-.52-.56-.72-1.2-.6-1.92.08-.47.3-.89.68-1.26.38-.37.89-.62,1.54-.76.65-.14,1.51-.12,2.58.05,1.31.22,2.27.6,2.88,1.15.62.55.91,1.31.88,2.28l-3.01-.33c-.01-.43-.13-.75-.35-.98-.22-.23-.56-.38-1-.45-.37-.06-.66-.04-.87.07-.21.11-.33.26-.36.46-.02.15.03.29.17.43.13.15.46.32,1.01.51,1.34.49,2.29.93,2.84,1.3.55.37.93.78,1.14,1.23.21.45.27.93.19,1.43-.1.59-.37,1.1-.81,1.54-.44.44-1.01.73-1.71.88-.7.15-1.54.14-2.53-.02-1.74-.29-2.9-.78-3.47-1.5-.57-.71-.83-1.54-.76-2.48Z"/>
      <path class="cls-6" d="m346.41,29.74c.3-1.49.99-2.56,2.08-3.21,1.09-.65,2.46-.81,4.11-.48,1.69.34,2.92,1,3.67,2,.75,1,.99,2.23.7,3.7-.21,1.07-.58,1.9-1.12,2.51-.54.6-1.22,1.02-2.05,1.25-.83.23-1.81.23-2.94,0-1.15-.23-2.07-.58-2.75-1.06-.69-.48-1.19-1.12-1.52-1.92-.33-.8-.38-1.74-.17-2.8Zm3.14.64c-.18.92-.12,1.62.18,2.1.3.48.78.78,1.44.91.68.13,1.24.04,1.69-.28.45-.32.77-.99.97-2.01.17-.86.1-1.53-.21-2-.31-.47-.79-.78-1.46-.91-.63-.13-1.18-.03-1.65.3-.46.33-.79.96-.97,1.88Z"/>
      <path class="cls-6" d="m366.36,29.23l3.11.73-1.27,5.4c-.13.54-.34,1.02-.64,1.45-.3.43-.69.78-1.17,1.04-.48.26-.96.41-1.43.46-.65.06-1.41-.01-2.26-.21-.49-.12-1.02-.27-1.59-.47-.57-.2-1.02-.44-1.37-.71-.35-.27-.64-.62-.89-1.03-.25-.41-.38-.81-.42-1.2-.06-.62-.03-1.15.07-1.6l1.27-5.4,3.11.73-1.3,5.52c-.12.49-.05.92.19,1.27s.63.59,1.17.72c.54.13.99.09,1.36-.11.37-.2.61-.55.73-1.06l1.3-5.53Z"/>
      <path class="cls-6" d="m370.79,30.29l3.23.88.49,7.08,3.99-5.85,3.14.86-6.17,7.96-3.35-.92-1.33-10.01Z"/>
      <path class="cls-6" d="m382.93,33.68l3.08.93-2.68,8.91-3.08-.93,2.69-8.91Z"/>
      <path class="cls-6" d="m388.39,35.32l8.16,2.69-.62,1.89-5.11-1.68-.46,1.4,4.74,1.56-.59,1.8-4.74-1.56-.57,1.74,5.26,1.73-.66,2-8.31-2.74,2.91-8.84Z"/>
      <path class="cls-6" d="m398.59,38.71l2.81,1.04,1.88,6.18,1.79-4.83,2.83,1.05-3.23,8.73-2.83-1.05-1.87-6.14-1.77,4.79-2.83-1.05,3.23-8.73Z"/>
      <path class="cls-6" d="m410.18,43.05l2.76,1.15,1.62,6.25,1.98-4.75,2.79,1.16-3.58,8.59-2.79-1.16-1.62-6.21-1.96,4.72-2.78-1.16,3.58-8.59Z"/>
      <path class="cls-6" d="m421.52,47.84l7.8,3.61-.83,1.8-4.88-2.26-.62,1.34,4.53,2.1-.8,1.72-4.53-2.1-.77,1.66,5.02,2.33-.89,1.91-7.94-3.68,3.91-8.44Z"/>
      <path class="cls-6" d="m431.29,52.4l2.66,1.37,1.12,6.36,2.35-4.58,2.69,1.38-4.25,8.28-2.69-1.38-1.12-6.32-2.33,4.55-2.68-1.38,4.25-8.28Z"/>
      <path class="cls-6" d="m441.62,57.75l8.47,4.81-1.13,2-2.84-1.62-3.46,6.09-2.79-1.58,3.46-6.09-2.84-1.61,1.13-2Z"/>
    </g>
    <g>
      <path class="cls-2" d="m250.63,72.88l-3.61-10.87,1.4-.46,3.61,10.87-1.4.46Z"/>
      <path class="cls-2" d="m260.98,65.9l1.53.03c-.02,1.33-.35,2.39-1,3.2-.65.81-1.54,1.34-2.68,1.61-1,.24-1.91.24-2.72,0s-1.55-.77-2.22-1.57c-.67-.8-1.15-1.83-1.45-3.07-.29-1.23-.31-2.32-.06-3.28.25-.96.71-1.74,1.39-2.36.67-.62,1.48-1.04,2.44-1.27,1.05-.25,2.01-.19,2.89.18.88.37,1.6,1.05,2.15,2.04l-1.32.68c-.85-1.43-2-1.97-3.44-1.63-.72.17-1.31.48-1.76.91-.46.44-.76,1.02-.92,1.76s-.12,1.61.12,2.62c.36,1.53.95,2.59,1.77,3.21.82.61,1.75.79,2.81.54.78-.19,1.4-.58,1.85-1.18.46-.6.67-1.41.63-2.4Z"/>
      <path class="cls-2" d="m265.27,69.26l-1.79-11.31,1.45-.23,1.79,11.31-1.45.23Z"/>
      <path class="cls-2" d="m276.44,68.02l-4.92-11.21,1.59-.08,3.34,8.15c.26.63.48,1.25.68,1.84.14-.64.3-1.27.49-1.9l2.57-8.47,1.5-.08-3.73,11.67-1.51.08Z"/>
      <path class="cls-2" d="m283.4,67.75l.37-11.45,8.04.26-.04,1.35-6.56-.21-.11,3.5,6.15.2-.04,1.35-6.15-.2-.13,3.9,6.82.22-.04,1.35-8.29-.27Zm3.45-12.13l1.08-2.15,1.78.06-1.74,2.13-1.13-.04Z"/>
      <path class="cls-2" d="m301.82,65.14l1.42.56c-.48,1.24-1.17,2.12-2.06,2.65-.89.53-1.92.72-3.08.58-1.02-.13-1.87-.45-2.54-.96-.67-.51-1.18-1.26-1.53-2.25-.35-.99-.44-2.12-.29-3.38.15-1.25.52-2.28,1.09-3.09.57-.81,1.28-1.39,2.12-1.73.84-.34,1.75-.46,2.73-.34,1.07.13,1.95.53,2.65,1.18.7.65,1.13,1.54,1.3,2.66l-1.47.17c-.3-1.64-1.18-2.55-2.66-2.73-.74-.09-1.39-.01-1.97.24-.58.25-1.07.69-1.48,1.33s-.67,1.46-.8,2.49c-.19,1.56-.01,2.77.54,3.62.55.86,1.37,1.36,2.44,1.49.8.1,1.51-.06,2.15-.46.64-.41,1.12-1.08,1.43-2.03Z"/>
      <path class="cls-2" d="m313.94,60.05l1.43.33-1.48,6.45c-.25,1.08-.58,1.94-.99,2.58s-.99,1.08-1.74,1.33c-.75.25-1.63.26-2.65.03-1.43-.33-2.42-.93-2.96-1.82-.55-.88-.61-2.24-.19-4.07l1.48-6.45,1.43.33-1.48,6.44c-.23,1.01-.31,1.76-.22,2.26.08.5.31.91.68,1.24.37.33.86.57,1.46.71,1.02.24,1.82.16,2.39-.22.57-.38,1.02-1.28,1.34-2.69l1.48-6.44Z"/>
      <path class="cls-2" d="m317.6,73.11l3.32-9.54-3.46-1.2.44-1.28,8.33,2.9-.44,1.28-3.48-1.21-3.32,9.54-1.39-.48Z"/>
    </g>
    <g>
      <path class="cls-6" d="m294.83,316.09l.74.11c-.14.4-.36.71-.65.92-.29.21-.63.32-1.02.32-.44,0-.78-.13-1.03-.4-.25-.26-.37-.65-.37-1.15,0-.41.08-.78.25-1.12s.39-.6.69-.77c.29-.18.61-.27.96-.27.39,0,.7.1.94.31.24.21.38.49.42.85l-.71.07c-.04-.21-.11-.36-.23-.45s-.26-.14-.45-.14c-.2,0-.39.06-.57.19-.18.12-.32.32-.42.58s-.16.53-.16.79c0,.29.07.51.21.66s.31.23.51.23c.19,0,.37-.06.52-.19.16-.12.28-.31.36-.55Z"/>
      <path class="cls-6" d="m296.38,314.78h.7l-.32,1.54c-.04.18-.06.3-.06.34,0,.08.03.14.08.19.06.05.13.08.21.08.06,0,.12-.01.18-.04s.12-.06.19-.11.12-.1.17-.17.1-.14.14-.24c.03-.08.06-.2.1-.37l.26-1.24h.7l-.54,2.59h-.65l.07-.35c-.29.28-.6.41-.94.41-.21,0-.38-.06-.5-.18-.12-.12-.18-.29-.18-.49,0-.09.03-.27.08-.53l.3-1.45Z"/>
      <path class="cls-6" d="m298.89,317.38l.75-3.58h.7l-.75,3.58h-.7Z"/>
      <path class="cls-6" d="m300.46,315.3l.11-.52h.34l.08-.42.8-.48-.19.9h.43l-.11.52h-.43l-.23,1.09c-.04.2-.06.31-.06.34,0,.05.02.1.05.13.03.03.1.04.19.04.03,0,.11,0,.23-.02l-.11.52c-.12.02-.24.04-.37.04-.25,0-.43-.05-.54-.14-.11-.09-.17-.23-.17-.4,0-.08.03-.26.09-.55l.22-1.04h-.34Z"/>
      <path class="cls-6" d="m302.49,314.78h.7l-.32,1.54c-.04.18-.06.3-.06.34,0,.08.03.14.08.19.06.05.13.08.21.08.06,0,.12-.01.18-.04s.12-.06.19-.11.12-.1.17-.17.1-.14.14-.24c.03-.08.06-.2.1-.37l.26-1.24h.7l-.54,2.59h-.65l.07-.35c-.29.28-.6.41-.94.41-.21,0-.38-.06-.5-.18-.12-.12-.18-.29-.18-.49,0-.09.03-.27.08-.53l.3-1.45Z"/>
      <path class="cls-6" d="m305.51,314.78h.65l-.11.5c.24-.38.51-.56.79-.56.1,0,.21.03.33.08l-.27.57c-.06-.02-.13-.04-.2-.04-.12,0-.24.05-.37.14-.12.09-.22.21-.29.37s-.14.39-.21.72l-.17.81h-.7l.54-2.59Z"/>
      <path class="cls-6" d="m309.47,316.3h-1.76s0,.05,0,.06c0,.17.05.31.15.42.1.11.22.16.36.16.23,0,.41-.12.54-.36l.63.11c-.12.25-.29.44-.49.57s-.43.19-.69.19c-.35,0-.63-.11-.85-.33-.22-.22-.33-.51-.33-.88s.1-.67.29-.95c.27-.38.65-.56,1.15-.56.32,0,.57.1.76.29.19.2.28.47.28.82,0,.17-.02.32-.05.46Zm-.59-.43s0-.05,0-.07c0-.19-.04-.34-.13-.43-.09-.1-.2-.14-.35-.14s-.27.05-.39.16c-.11.11-.19.27-.23.48h1.1Z"/>
      <path class="cls-6" d="m294.76,322.3h-1.76s0,.05,0,.06c0,.17.05.31.15.42.1.11.22.16.36.16.23,0,.41-.12.54-.36l.63.11c-.12.25-.29.44-.49.57s-.43.19-.69.19c-.35,0-.63-.11-.85-.33-.22-.22-.33-.51-.33-.88s.1-.67.29-.95c.27-.38.65-.56,1.15-.56.32,0,.57.1.76.29.19.2.28.47.28.82,0,.17-.02.32-.05.46Zm-.59-.43s0-.05,0-.07c0-.19-.04-.34-.13-.43-.09-.1-.2-.14-.35-.14s-.27.05-.39.16c-.11.11-.19.27-.23.48h1.1Z"/>
      <path class="cls-6" d="m295.19,321.3l.11-.52h.34l.08-.42.8-.48-.19.9h.43l-.11.52h-.43l-.23,1.09c-.04.2-.06.31-.06.34,0,.05.02.1.05.13.03.03.1.04.19.04.03,0,.11,0,.23-.02l-.11.52c-.12.02-.24.04-.37.04-.25,0-.43-.05-.54-.14-.11-.09-.17-.23-.17-.4,0-.08.03-.26.09-.55l.22-1.04h-.34Z"/>
      <path class="cls-6" d="m299.82,322.4l.68.11c-.11.3-.28.53-.5.69-.22.16-.47.24-.76.24-.33,0-.59-.1-.79-.29s-.29-.47-.29-.81c0-.28.06-.55.18-.8s.29-.45.53-.59c.24-.14.5-.22.78-.22.31,0,.55.08.73.24.18.16.29.37.31.63l-.67.07c-.02-.14-.06-.25-.13-.32s-.17-.1-.28-.1c-.13,0-.26.05-.38.15-.12.1-.21.25-.27.45s-.09.39-.09.57c0,.15.04.27.11.35.08.08.17.12.28.12s.22-.04.33-.12.19-.2.24-.37Z"/>
      <path class="cls-6" d="m300.95,322.3c0-.48.14-.86.41-1.15.27-.29.63-.43,1.07-.43.38,0,.68.11.9.32s.32.49.32.85c0,.42-.13.78-.4,1.09-.27.31-.63.46-1.08.46-.24,0-.46-.05-.65-.15s-.33-.24-.42-.41c-.09-.18-.14-.37-.14-.58Zm2-.5c0-.17-.05-.3-.15-.4-.1-.1-.22-.15-.38-.15s-.29.05-.4.14-.21.23-.27.41c-.07.18-.1.34-.1.49,0,.19.05.33.15.44s.23.16.38.16c.19,0,.35-.08.48-.25.19-.23.28-.52.28-.85Z"/>
      <path class="cls-6" d="m304.42,320.78h.66l-.07.32c.26-.25.53-.38.81-.38.2,0,.35.04.45.12.11.08.17.19.2.34.09-.13.22-.24.39-.33s.34-.13.52-.13c.21,0,.37.06.48.17.12.11.17.26.17.44,0,.09-.02.24-.07.46l-.33,1.58h-.7l.33-1.58c.04-.2.06-.31.06-.34,0-.07-.02-.13-.06-.17-.04-.04-.11-.06-.19-.06-.17,0-.33.09-.47.28-.1.13-.18.37-.25.7l-.25,1.18h-.7l.33-1.57c.04-.18.06-.3.06-.35,0-.07-.02-.12-.07-.17-.05-.04-.11-.07-.19-.07-.08,0-.16.02-.24.07-.08.05-.15.11-.21.19-.06.08-.11.18-.16.31-.02.06-.05.19-.09.4l-.25,1.19h-.7l.54-2.59Z"/>
      <path class="cls-6" d="m308.87,320.78h.66l-.07.32c.26-.25.53-.38.81-.38.2,0,.35.04.45.12.11.08.17.19.2.34.09-.13.22-.24.39-.33s.34-.13.52-.13c.21,0,.37.06.48.17.12.11.17.26.17.44,0,.09-.02.24-.07.46l-.33,1.58h-.7l.33-1.58c.04-.2.06-.31.06-.34,0-.07-.02-.13-.06-.17-.04-.04-.11-.06-.19-.06-.17,0-.33.09-.47.28-.1.13-.18.37-.25.7l-.25,1.18h-.7l.33-1.57c.04-.18.06-.3.06-.35,0-.07-.02-.12-.07-.17-.05-.04-.11-.07-.19-.07-.08,0-.16.02-.24.07-.08.05-.15.11-.21.19-.06.08-.11.18-.16.31-.02.06-.05.19-.09.4l-.25,1.19h-.7l.54-2.59Z"/>
      <path class="cls-6" d="m313.33,320.78h.7l-.32,1.54c-.04.18-.06.3-.06.34,0,.08.03.14.08.19.06.05.13.08.21.08.06,0,.12-.01.18-.04s.12-.06.19-.11.12-.1.17-.17.1-.14.14-.24c.03-.08.06-.2.1-.37l.26-1.24h.7l-.54,2.59h-.65l.07-.35c-.29.28-.6.41-.94.41-.21,0-.38-.06-.5-.18-.12-.12-.18-.29-.18-.49,0-.09.03-.27.08-.53l.3-1.45Z"/>
      <path class="cls-6" d="m316.4,320.78h.66l-.07.34c.17-.14.32-.25.46-.31.14-.06.3-.09.46-.09.21,0,.38.06.5.18s.18.28.18.49c0,.09-.03.26-.08.52l-.31,1.47h-.7l.31-1.47c.05-.22.07-.35.07-.39,0-.09-.03-.16-.08-.21-.05-.05-.13-.08-.22-.08-.1,0-.22.04-.34.13-.12.09-.22.2-.29.34-.05.1-.11.31-.18.62l-.22,1.06h-.7l.54-2.59Z"/>
      <path class="cls-6" d="m319.44,320.78h.7l-.54,2.59h-.7l.54-2.59Zm.21-.99h.7l-.13.63h-.7l.13-.63Z"/>
      <path class="cls-6" d="m322.05,322.4l.68.11c-.11.3-.28.53-.5.69-.22.16-.47.24-.76.24-.33,0-.59-.1-.79-.29s-.29-.47-.29-.81c0-.28.06-.55.18-.8s.29-.45.53-.59c.24-.14.5-.22.78-.22.31,0,.55.08.73.24.18.16.29.37.31.63l-.67.07c-.02-.14-.06-.25-.13-.32s-.17-.1-.28-.1c-.13,0-.26.05-.38.15-.12.1-.21.25-.27.45-.06.2-.09.39-.09.57,0,.15.04.27.11.35.08.08.17.12.28.12s.22-.04.33-.12.19-.2.24-.37Z"/>
      <path class="cls-6" d="m324.06,321.52l-.68-.06c.08-.23.21-.41.41-.54.19-.13.45-.2.77-.2s.58.07.74.2c.16.13.24.3.24.49,0,.08,0,.16-.02.25s-.06.32-.15.69c-.07.31-.1.53-.1.65,0,.11.02.23.06.37h-.68c-.03-.09-.04-.19-.05-.29-.1.11-.22.2-.35.26-.13.06-.27.09-.4.09-.21,0-.39-.07-.53-.21s-.21-.32-.21-.54c0-.25.08-.45.23-.59.15-.15.43-.24.82-.27.33-.03.56-.06.67-.1.03-.1.04-.18.04-.23,0-.08-.03-.14-.09-.19-.06-.05-.15-.08-.27-.08-.12,0-.22.03-.3.08-.07.05-.12.12-.15.22Zm.67.65s-.1.02-.17.03c-.35.04-.58.1-.69.19-.08.06-.11.14-.11.24,0,.08.03.15.09.21.06.06.14.08.23.08.11,0,.21-.03.3-.08.09-.05.16-.12.21-.2.05-.08.09-.21.12-.38l.02-.09Z"/>
      <path class="cls-6" d="m326.03,321.3l.11-.52h.34l.08-.42.8-.48-.19.9h.43l-.11.52h-.43l-.23,1.09c-.04.2-.06.31-.06.34,0,.05.02.1.05.13.03.03.1.04.19.04.03,0,.11,0,.23-.02l-.11.52c-.12.02-.24.04-.37.04-.25,0-.43-.05-.54-.14-.11-.09-.17-.23-.17-.4,0-.08.03-.26.09-.55l.22-1.04h-.34Z"/>
      <path class="cls-6" d="m328.06,320.78h.7l-.54,2.59h-.7l.54-2.59Zm.21-.99h.7l-.13.63h-.7l.13-.63Z"/>
      <path class="cls-6" d="m329.01,322.3c0-.48.14-.86.41-1.15.27-.29.63-.43,1.07-.43.38,0,.68.11.9.32s.32.49.32.85c0,.42-.13.78-.4,1.09-.27.31-.63.46-1.08.46-.24,0-.46-.05-.65-.15s-.33-.24-.42-.41c-.09-.18-.14-.37-.14-.58Zm2-.5c0-.17-.05-.3-.15-.4-.1-.1-.22-.15-.38-.15s-.29.05-.4.14-.21.23-.27.41c-.07.18-.1.34-.1.49,0,.19.05.33.15.44s.23.16.38.16c.19,0,.35-.08.48-.25.19-.23.28-.52.28-.85Z"/>
      <path class="cls-6" d="m332.51,320.78h.66l-.07.34c.17-.14.32-.25.46-.31.14-.06.3-.09.46-.09.21,0,.38.06.5.18s.18.28.18.49c0,.09-.03.26-.08.52l-.31,1.47h-.7l.31-1.47c.05-.22.07-.35.07-.39,0-.09-.03-.16-.08-.21-.05-.05-.13-.08-.22-.08-.1,0-.22.04-.34.13-.12.09-.22.2-.29.34-.05.1-.11.31-.18.62l-.22,1.06h-.7l.54-2.59Z"/>
      <path class="cls-6" d="m334.93,322.65l.68-.11c.06.14.13.24.22.3.09.06.21.09.37.09s.29-.04.38-.11c.07-.05.1-.11.1-.18,0-.05-.02-.09-.05-.13-.04-.04-.13-.08-.29-.13-.42-.14-.69-.25-.79-.33-.16-.13-.24-.29-.24-.5s.08-.38.23-.53c.21-.21.53-.31.95-.31.33,0,.59.06.76.18.17.12.28.29.33.5l-.65.11c-.03-.09-.09-.17-.17-.21-.1-.06-.23-.09-.38-.09s-.25.02-.32.07-.1.11-.1.17.03.12.1.16c.04.03.17.07.39.14.34.1.57.2.69.29.16.13.24.3.24.49,0,.25-.1.46-.31.64-.21.18-.5.27-.87.27s-.66-.07-.87-.21-.34-.33-.42-.58Z"/>
    </g>
  </g>
  <g id="ecritureNonVecto">
    <text class="cls-8" transform="translate(273.45 358.62) scale(1.11 1)"><tspan x="0" y="0">2017</tspan></text>
  </g>
  <g id="Calque_10" data-name="Calque 10">
    <g>
      <path class="cls-6" d="m214.05,140.56c-1.57,0-2.76-.29-3.58-.88-.82-.59-1.23-1.39-1.23-2.4,0-.88.3-1.57.91-2.06.6-.49,1.31-.74,2.13-.74s1.59.18,2.23.54c.64.36,1.25.96,1.84,1.81l.64,1.13c.23.23.49.33.78.29.29-.03.51-.21.64-.54.2-.65.33-1.54.42-2.67.08-1.13.12-2.49.12-4.09,0-1.96-.04-4.51-.12-7.64-.08-3.14-.17-7.15-.27-12.05-.03-.69-.17-1.24-.42-1.67-.25-.42-.66-.74-1.25-.93l-1.08-.29v-1.03h12.5v1.03l-1.03.29c-.62.2-1.04.49-1.25.88-.21.39-.32.92-.32,1.57v9.6c0,3.17-.13,5.77-.39,7.79-.26,2.03-.7,3.77-1.32,5.24-.82,2.22-2.13,3.91-3.94,5.07-1.81,1.16-3.81,1.74-6,1.74Z"/>
      <path class="cls-6" d="m241.49,140.41c-2.42,0-4.53-.51-6.35-1.52-1.81-1.01-3.22-2.45-4.21-4.31-1-1.86-1.5-4.08-1.5-6.66s.53-4.8,1.59-6.66c1.06-1.86,2.5-3.29,4.31-4.29,1.81-1,3.86-1.49,6.15-1.49s4.34.5,6.15,1.49c1.81,1,3.25,2.42,4.31,4.26,1.06,1.85,1.59,4.08,1.59,6.69s-.5,4.81-1.49,6.69c-1,1.88-2.39,3.32-4.19,4.31-1.8,1-3.92,1.49-6.37,1.49Zm0-1.37c1.18,0,2.13-.32,2.87-.96.74-.64,1.27-1.76,1.59-3.36.33-1.6.49-3.84.49-6.71s-.16-5.17-.49-6.79c-.33-1.62-.86-2.74-1.59-3.38-.74-.64-1.69-.96-2.87-.96s-2.12.32-2.84.96c-.72.64-1.25,1.76-1.59,3.38-.34,1.62-.51,3.88-.51,6.79s.17,5.11.51,6.71c.34,1.6.87,2.72,1.59,3.36.72.64,1.67.96,2.84.96Z"/>
      <path class="cls-6" d="m255.65,139.73v-.98l.64-.2c1.18-.36,1.76-1.18,1.76-2.45v-25.23c0-.69-.12-1.2-.34-1.54-.23-.34-.67-.6-1.32-.76l-.74-.2v-.93l8.28-2.11.78.44-.2,6.91v6.27c1.14-.95,2.39-1.76,3.75-2.45s2.82-1.03,4.39-1.03c2.16,0,3.85.6,5.07,1.81,1.23,1.21,1.84,3.07,1.84,5.59v13.28c0,.65.13,1.18.39,1.57.26.39.72.69,1.37.88l.44.15v.98h-11.17v-.98l.59-.2c1.18-.33,1.76-1.14,1.76-2.45v-14.16c0-1.34-.23-2.27-.69-2.79-.46-.52-1.26-.78-2.4-.78-.78,0-1.61.15-2.47.44-.87.29-1.77.78-2.72,1.47v15.93c0,.65.13,1.18.39,1.57.26.39.7.67,1.32.83l.44.15v.98h-11.17Z"/>
      <path class="cls-6" d="m283.73,139.73v-.93l.78-.2c1.08-.33,1.62-1.13,1.62-2.4v-14.46c-.03-.69-.15-1.22-.34-1.59-.2-.38-.62-.63-1.27-.76l-.78-.2v-.88l7.94-2.84.59.54.34,3.04c1.18-1.04,2.49-1.9,3.94-2.57,1.45-.67,2.88-1,4.29-1,2.16,0,3.81.59,4.97,1.76,1.16,1.18,1.74,2.97,1.74,5.39v13.62c0,1.27.59,2.07,1.76,2.4l.54.15v.93h-11.27v-.93l.74-.2c1.08-.36,1.62-1.16,1.62-2.4v-14.55c0-1.14-.24-1.98-.73-2.5-.49-.52-1.31-.78-2.45-.78-1.6,0-3.27.7-5,2.11v15.78c0,1.27.57,2.07,1.71,2.4l.49.15v.93h-11.22Z"/>
      <path class="cls-6" d="m311.86,139.73v-.93l.78-.2c1.08-.33,1.62-1.13,1.62-2.4v-14.46c-.03-.69-.15-1.22-.34-1.59-.2-.38-.62-.63-1.27-.76l-.78-.2v-.88l7.94-2.84.59.54.34,3.04c1.18-1.04,2.49-1.9,3.94-2.57,1.45-.67,2.88-1,4.29-1,2.16,0,3.81.59,4.97,1.76,1.16,1.18,1.74,2.97,1.74,5.39v13.62c0,1.27.59,2.07,1.76,2.4l.54.15v.93h-11.27v-.93l.74-.2c1.08-.36,1.62-1.16,1.62-2.4v-14.55c0-1.14-.24-1.98-.73-2.5-.49-.52-1.31-.78-2.45-.78-1.6,0-3.27.7-5,2.11v15.78c0,1.27.57,2.07,1.71,2.4l.49.15v.93h-11.22Z"/>
      <path class="cls-6" d="m342.82,151.53c-1.31,0-2.34-.31-3.09-.93-.75-.62-1.13-1.44-1.13-2.45,0-.92.32-1.64.96-2.18.64-.54,1.35-.81,2.13-.81s1.49.15,2.01.44.98.72,1.37,1.27l.29.39c.75.91,1.45.9,2.11-.05.42-.56.84-1.24,1.25-2.06.41-.82.86-1.9,1.35-3.23l-9.31-22.25c-.23-.62-.49-1.1-.78-1.45-.29-.34-.74-.63-1.32-.86l-.83-.29v-.88h12.1v.88l-1.03.29c-.72.23-1.1.58-1.15,1.05-.05.47.06,1.09.32,1.84l5,13.03,4.8-13.13c.26-.72.36-1.32.29-1.81-.07-.49-.47-.82-1.22-.98l-1.08-.29v-.88h7.3v.88l-1.08.34c-.72.2-1.23.48-1.54.86-.31.38-.6.92-.86,1.64l-7.84,21.07c-1.31,3.59-2.64,6.25-3.99,7.96-1.36,1.72-3.03,2.57-5.02,2.57Z"/>
      <path class="cls-6" d="m197.32,195.73v-1.03l.93-.25c.65-.2,1.08-.49,1.27-.88.2-.39.31-.93.34-1.62.03-1.86.05-3.75.05-5.66v-13.45c0-1.89-.02-3.79-.05-5.68-.03-.69-.13-1.22-.29-1.59-.16-.38-.56-.66-1.18-.86l-1.08-.34v-1.03h23.57l.34,8.28h-1.32l-2.55-4.85c-.33-.62-.69-1.1-1.08-1.45-.39-.34-.96-.51-1.71-.51h-7.55c-.03,2.19-.06,4.43-.07,6.74-.02,2.3-.02,4.6-.02,6.88h4.7c.75,0,1.31-.17,1.67-.51.36-.34.7-.82,1.03-1.45l.98-1.81h1.08v8.97h-1.08l-.98-1.76c-.36-.65-.71-1.15-1.05-1.49-.34-.34-.89-.51-1.64-.51h-4.7v6.2c0,1.98.02,3.91.05,5.81,0,1.34.6,2.17,1.81,2.5l1.47.34v1.03h-12.94Z"/>
      <path class="cls-6" d="m218.39,195.73v-1.03l1.32-.39c.69-.2,1.22-.49,1.59-.88.38-.39.68-.93.91-1.62l9.9-28.62h4.07l9.85,28.81c.26.72.56,1.27.88,1.64.33.38.85.68,1.57.91l.74.2v.98h-12.45v-.98l.83-.25c.72-.23,1.15-.59,1.3-1.08.15-.49.11-1.09-.12-1.81l-2.06-6.32h-10.83l-2.11,6.22c-.23.72-.29,1.31-.2,1.76.1.46.51.82,1.22,1.08l1.08.34v1.03h-7.5Zm7.99-11.86h9.9l-4.8-14.75-5.1,14.75Z"/>
      <path class="cls-6" d="m250.73,195.73v-1.03l1.03-.29c.65-.2,1.07-.48,1.25-.86.18-.38.27-.91.27-1.59.03-1.89.05-3.79.05-5.68v-13.43c0-1.89-.02-3.79-.05-5.68,0-.69-.08-1.22-.25-1.59-.16-.38-.57-.66-1.22-.86l-1.08-.34v-1.03h13.72c3.82,0,6.77.73,8.84,2.18,2.07,1.45,3.11,3.49,3.11,6.1,0,1.44-.56,2.89-1.69,4.36-1.13,1.47-2.85,2.6-5.17,3.38l6.66,12.99c.55,1.08,1.42,1.81,2.6,2.21l.93.2v.98h-8.67l-7.3-15.29h-3.53v6.27c0,1.86.02,3.61.05,5.24,0,.65.11,1.18.32,1.57.21.39.63.67,1.25.83l1.18.34v1.03h-12.3Zm9.51-16.71h2.65c2.32,0,4.02-.59,5.1-1.76,1.08-1.18,1.62-2.97,1.62-5.39s-.51-4.21-1.54-5.37c-1.03-1.16-2.69-1.74-4.97-1.74h-2.79c0,1.27,0,2.57-.02,3.9-.02,1.32-.02,2.81-.02,4.46v5.9Z"/>
      <path class="cls-6" d="m281.06,195.73v-1.03l1.32-.39c.69-.2,1.22-.49,1.59-.88.38-.39.68-.93.91-1.62l9.9-28.62h4.07l9.85,28.81c.26.72.56,1.27.88,1.64.33.38.85.68,1.57.91l.74.2v.98h-12.45v-.98l.83-.25c.72-.23,1.15-.59,1.3-1.08.15-.49.11-1.09-.12-1.81l-2.06-6.32h-10.83l-2.11,6.22c-.23.72-.29,1.31-.2,1.76.1.46.51.82,1.22,1.08l1.08.34v1.03h-7.5Zm7.99-11.86h9.9l-4.8-14.75-5.1,14.75Z"/>
      <path class="cls-6" d="m328.88,196.56c-3.33,0-6.26-.7-8.77-2.11-2.52-1.4-4.48-3.39-5.91-5.95-1.42-2.56-2.13-5.58-2.13-9.04s.69-6.37,2.08-8.92,3.41-4.53,6.05-5.95c2.65-1.42,5.81-2.13,9.51-2.13,1.76,0,3.41.2,4.92.59,1.52.39,2.95.96,4.29,1.72l.2,7.01h-1.32l-2.45-4.95c-.39-.78-.77-1.35-1.13-1.71-.36-.36-.83-.62-1.42-.78-.42-.16-.83-.27-1.22-.32-.39-.05-.9-.07-1.52-.07-2.06,0-3.87.53-5.44,1.59-1.57,1.06-2.79,2.74-3.65,5.02-.87,2.29-1.3,5.26-1.3,8.92,0,5.52.91,9.51,2.72,11.98,1.81,2.47,4.24,3.7,7.28,3.7.72,0,1.34-.1,1.86-.29.62-.1,1.04-.35,1.27-.76.23-.41.34-.92.34-1.54,0-1.34,0-2.8-.02-4.39s-.02-3.03-.02-4.34-.67-2.06-2.01-2.35l-2.21-.49v-1.03h13.52v1.03l-.59.15c-.62.2-1.1.48-1.42.86-.33.38-.49.89-.49,1.54,0,1.31,0,2.64-.02,3.99-.02,1.36-.03,2.72-.03,4.09v2.11c-1.7.91-3.42,1.62-5.17,2.11-1.75.49-3.68.73-5.81.73Z"/>
      <path class="cls-6" d="m360.05,196.56c-1.99,0-3.9-.36-5.73-1.08s-3.47-1.79-4.92-3.21c-1.45-1.42-2.61-3.19-3.46-5.32-.85-2.12-1.27-4.61-1.27-7.45s.42-5.23,1.27-7.35c.85-2.12,2-3.9,3.46-5.34,1.45-1.44,3.1-2.52,4.95-3.26s3.75-1.1,5.71-1.1,3.86.36,5.71,1.08c1.85.72,3.49,1.79,4.92,3.21s2.58,3.19,3.43,5.32c.85,2.12,1.27,4.61,1.27,7.45s-.42,5.23-1.27,7.35c-.85,2.12-1.99,3.9-3.43,5.34-1.44,1.44-3.07,2.52-4.9,3.26-1.83.73-3.74,1.1-5.73,1.1Zm0-1.47c1.86,0,3.36-.48,4.51-1.45,1.14-.96,1.98-2.59,2.5-4.88.52-2.29.78-5.37.78-9.26s-.26-6.97-.78-9.24c-.52-2.27-1.36-3.89-2.5-4.85-1.14-.96-2.65-1.45-4.51-1.45s-3.32.48-4.48,1.45c-1.16.96-2,2.58-2.52,4.85-.52,2.27-.78,5.35-.78,9.24s.26,6.98.78,9.26c.52,2.29,1.36,3.91,2.52,4.88,1.16.96,2.65,1.45,4.48,1.45Z"/>
    </g>
    <g>
      <path class="cls-6" d="m240.1,238.16c-1.55-1.13-2.75-2.42-3.6-3.87-.85-1.45-1.27-3.04-1.27-4.76s.42-3.31,1.27-4.77c.85-1.46,2.05-2.74,3.6-3.86l.42.34c-.78.94-1.39,1.84-1.83,2.71-.44.87-.76,1.75-.94,2.65s-.28,1.88-.28,2.93.09,2.01.28,2.93.5,1.8.94,2.67c.44.87,1.06,1.78,1.83,2.73l-.42.3Z"/>
      <path class="cls-6" d="m241.98,234.82v-.36l.83-.23c.54-.15.81-.47.83-.95v-9.04l-1.76.21v-.44c.79-.13,1.56-.31,2.32-.56.76-.25,1.47-.55,2.15-.9l.25.19-.08,2.72v5.4c0,.33,0,.71.01,1.15,0,.44.01.86.01,1.26,0,.49.27.82.81.97l.87.23v.36h-6.23Z"/>
      <path class="cls-6" d="m259.19,227.52c0,1.28-.32,2.45-.97,3.5-.65,1.05-1.6,1.94-2.86,2.65-1.26.72-2.8,1.23-4.64,1.53l-.15-.49c1.23-.28,2.23-.65,3-1.1.77-.46,1.36-1.02,1.77-1.69.41-.67.69-1.47.83-2.39-.33.19-.7.34-1.13.45-.43.11-.92.16-1.47.16-.78,0-1.48-.14-2.12-.43-.64-.29-1.14-.7-1.5-1.25-.37-.54-.55-1.2-.55-1.98,0-.82.22-1.53.66-2.13s1.03-1.06,1.77-1.39c.74-.33,1.55-.49,2.43-.49,1.6,0,2.82.45,3.68,1.35s1.28,2.13,1.28,3.71Zm-6.95-1.29c0,1.09.18,1.88.55,2.38.37.49.95.74,1.76.74.64,0,1.19-.11,1.67-.34.04-.47.06-.98.06-1.54,0-1.13-.07-2.01-.2-2.66-.13-.65-.35-1.11-.65-1.38-.3-.27-.69-.41-1.19-.41-.65,0-1.15.25-1.49.75-.35.5-.52,1.32-.52,2.46Z"/>
      <path class="cls-6" d="m265.99,234.82v-3.1h-5.59v-1.16l6.21-7.96h1.97v7.66h2.03v1.46h-2.03v3.1h-2.58Zm-4.47-4.56h4.47v-5.74l-4.47,5.74Z"/>
      <path class="cls-6" d="m277.3,234.82v-3.1h-5.59v-1.16l6.21-7.96h1.97v7.66h2.03v1.46h-2.03v3.1h-2.58Zm-4.47-4.56h4.47v-5.74l-4.47,5.74Z"/>
      <path class="cls-6" d="m283.34,230.41v-.8h5.3v.8h-5.3Z"/>
      <path class="cls-6" d="m290.09,234.82v-.36l.83-.23c.54-.15.81-.47.83-.95v-9.04l-1.76.21v-.44c.79-.13,1.56-.31,2.32-.56s1.47-.55,2.15-.9l.25.19-.08,2.72v5.4c0,.33,0,.71.01,1.15,0,.44,0,.86,0,1.26,0,.49.27.82.81.97l.87.23v.36h-6.23Z"/>
      <path class="cls-6" d="m307.3,227.52c0,1.28-.33,2.45-.97,3.5-.65,1.05-1.6,1.94-2.86,2.65-1.26.72-2.8,1.23-4.64,1.53l-.15-.49c1.23-.28,2.23-.65,3-1.1s1.36-1.02,1.77-1.69c.41-.67.68-1.47.83-2.39-.33.19-.7.34-1.13.45-.43.11-.92.16-1.47.16-.78,0-1.48-.14-2.12-.43s-1.14-.7-1.5-1.25c-.37-.54-.55-1.2-.55-1.98,0-.82.22-1.53.66-2.13.44-.6,1.03-1.06,1.77-1.39s1.55-.49,2.43-.49c1.6,0,2.82.45,3.67,1.35s1.28,2.13,1.28,3.71Zm-6.95-1.29c0,1.09.18,1.88.55,2.38.37.49.95.74,1.76.74.64,0,1.19-.11,1.67-.34.04-.47.06-.98.06-1.54,0-1.13-.07-2.01-.2-2.66-.13-.65-.35-1.11-.65-1.38-.3-.27-.69-.41-1.19-.41-.65,0-1.15.25-1.49.75-.35.5-.52,1.32-.52,2.46Z"/>
      <path class="cls-6" d="m318.46,227.52c0,1.28-.33,2.45-.97,3.5-.65,1.05-1.6,1.94-2.86,2.65-1.26.72-2.8,1.23-4.64,1.53l-.15-.49c1.23-.28,2.23-.65,3-1.1s1.36-1.02,1.77-1.69c.41-.67.68-1.47.83-2.39-.33.19-.7.34-1.13.45-.43.11-.92.16-1.47.16-.78,0-1.48-.14-2.12-.43s-1.14-.7-1.5-1.25c-.37-.54-.55-1.2-.55-1.98,0-.82.22-1.53.66-2.13.44-.6,1.03-1.06,1.77-1.39s1.55-.49,2.43-.49c1.6,0,2.82.45,3.67,1.35s1.28,2.13,1.28,3.71Zm-6.95-1.29c0,1.09.18,1.88.55,2.38.37.49.95.74,1.76.74.64,0,1.19-.11,1.67-.34.04-.47.06-.98.06-1.54,0-1.13-.07-2.01-.2-2.66-.13-.65-.35-1.11-.65-1.38-.3-.27-.69-.41-1.19-.41-.65,0-1.15.25-1.49.75-.35.5-.52,1.32-.52,2.46Z"/>
      <path class="cls-6" d="m321.3,234.82l-.21-.19,6.86-9.94h-8.24v-1.96h9.26v1.24l-5,10.85h-2.67Z"/>
      <path class="cls-6" d="m330.7,220.91c1.55,1.13,2.75,2.42,3.6,3.87s1.27,3.04,1.27,4.76-.42,3.31-1.27,4.77-2.05,2.74-3.6,3.86l-.42-.34c.78-.94,1.39-1.84,1.83-2.71s.76-1.75.94-2.65.28-1.88.28-2.93-.09-2.01-.28-2.93-.5-1.8-.94-2.67c-.45-.87-1.06-1.78-1.83-2.73l.42-.3Z"/>
    </g>
    <g>
      <path class="cls-6" d="m230.32,277.02l.96.26c-.21.88-.58,1.54-1.11,1.98-.53.44-1.17.65-1.93.65-.67,0-1.24-.15-1.71-.44-.47-.29-.86-.76-1.16-1.41-.3-.64-.45-1.41-.45-2.28s.15-1.6.45-2.2c.3-.6.71-1.05,1.23-1.36s1.09-.46,1.73-.46c.7,0,1.29.19,1.79.58.5.39.85.96,1.05,1.71l-.93.24c-.32-1.09-.96-1.64-1.92-1.64-.48,0-.9.11-1.25.33-.35.22-.63.56-.84,1.03s-.32,1.06-.32,1.77c0,1.08.21,1.89.63,2.43.42.54.99.81,1.69.81.52,0,.97-.17,1.34-.5.38-.33.63-.83.76-1.51Z"/>
      <path class="cls-6" d="m232.47,279.78v-7.87h.95v3.23h3.74v-3.23h.95v7.87h-.95v-3.71h-3.74v3.71h-.95Z"/>
      <path class="cls-6" d="m238.94,279.78l2.78-7.87h1.02l2.95,7.87h-1.09l-.84-2.38h-3.03l-.78,2.38h-1Zm2.07-3.23h2.45l-.75-2.18c-.23-.67-.4-1.21-.51-1.63-.09.5-.22,1.01-.39,1.5l-.8,2.31Z"/>
      <path class="cls-6" d="m246.41,279.78v-7.87h.98l3.79,6.19v-6.19h.91v7.87h-.98l-3.78-6.2v6.2h-.92Z"/>
      <path class="cls-6" d="m255.54,279.78v-6.94h-2.37v-.93h5.71v.93h-2.38v6.94h-.95Z"/>
      <path class="cls-6" d="m259.86,279.78v-7.87h5.2v.93h-4.25v2.41h3.98v.93h-3.98v2.68h4.42v.93h-5.37Z"/>
      <path class="cls-6" d="m271.25,271.91h.95v4.55c0,.76-.08,1.39-.25,1.88-.17.49-.47.88-.9,1.16-.44.28-.99.42-1.67.42-.95,0-1.66-.25-2.13-.76-.47-.51-.71-1.41-.71-2.7v-4.55h.95v4.54c0,.71.06,1.23.19,1.55.12.32.33.56.61.73.28.17.62.25,1.03.25.68,0,1.17-.17,1.48-.52s.46-1.01.46-2.01v-4.54Z"/>
      <path class="cls-6" d="m273.8,279.78v-7.87h3.19c.67,0,1.16.07,1.48.22.32.15.58.39.78.73.2.34.3.74.3,1.19,0,.59-.17,1.08-.52,1.44-.35.37-.85.6-1.51.7.27.14.47.29.61.44.28.3.53.64.75,1l1.26,2.14h-1.2l-.96-1.64c-.37-.64-.65-1.07-.84-1.29-.19-.22-.37-.37-.55-.45s-.43-.12-.75-.12h-1.1v3.5h-.95Zm.95-4.4h2.05c.45,0,.79-.05,1.02-.15s.42-.25.55-.46c.14-.21.2-.45.2-.73,0-.4-.13-.71-.39-.94-.26-.23-.64-.34-1.16-.34h-2.28v2.61Z"/>
      <path class="cls-6" d="m283.86,279.78v-7.87h2.71c.64,0,1.11.05,1.41.15.42.14.75.39.99.76.25.37.37.82.37,1.36,0,.71-.2,1.29-.61,1.74-.4.45-1.1.67-2.09.67h-1.85v3.2h-.95Zm.95-4.13h1.86c.59,0,1.02-.12,1.29-.36s.41-.6.41-1.08c0-.31-.07-.58-.2-.8-.13-.22-.29-.37-.48-.46-.19-.08-.53-.12-1.03-.12h-1.85v2.81Z"/>
      <path class="cls-6" d="m290.3,275.94c0-1.34.33-2.38.99-3.1.66-.72,1.48-1.08,2.46-1.08.63,0,1.21.16,1.74.48.52.32.94.79,1.24,1.4.31.61.46,1.35.46,2.19,0,1.17-.3,2.12-.89,2.85-.65.81-1.5,1.21-2.56,1.21s-1.92-.42-2.56-1.25c-.59-.75-.88-1.66-.88-2.72Zm.98.01c0,.97.24,1.72.72,2.26.48.54,1.06.8,1.74.8s1.29-.27,1.76-.81c.47-.54.71-1.34.71-2.39,0-.68-.12-1.28-.37-1.82-.19-.41-.47-.74-.85-.98-.38-.25-.79-.37-1.24-.37-.72,0-1.31.27-1.78.81-.46.54-.7,1.37-.7,2.49Z"/>
      <path class="cls-6" d="m298.39,279.78v-7.87h2.71c.64,0,1.11.05,1.41.15.42.14.75.39.99.76.25.37.37.82.37,1.36,0,.71-.2,1.29-.61,1.74-.4.45-1.1.67-2.09.67h-1.84v3.2h-.95Zm.95-4.13h1.86c.59,0,1.02-.12,1.29-.36s.41-.6.41-1.08c0-.31-.07-.58-.2-.8-.13-.22-.29-.37-.48-.46-.19-.08-.53-.12-1.03-.12h-1.84v2.81Z"/>
      <path class="cls-6" d="m309.81,271.91h.95v4.55c0,.76-.08,1.39-.25,1.88-.17.49-.47.88-.9,1.16-.44.28-.99.42-1.67.42-.95,0-1.66-.25-2.13-.76-.47-.51-.71-1.41-.71-2.7v-4.55h.95v4.54c0,.71.06,1.23.19,1.55.12.32.33.56.61.73.28.17.62.25,1.03.25.68,0,1.17-.17,1.48-.52s.46-1.01.46-2.01v-4.54Z"/>
      <path class="cls-6" d="m312.31,279.78v-7.87h.95v6.95h3.54v.93h-4.5Z"/>
      <path class="cls-6" d="m317.17,279.78l2.78-7.87h1.02l2.95,7.87h-1.09l-.84-2.38h-3.03l-.78,2.38h-1Zm2.07-3.23h2.45l-.75-2.18c-.23-.67-.4-1.21-.51-1.63-.09.5-.22,1.01-.39,1.5l-.8,2.31Z"/>
      <path class="cls-6" d="m324.85,279.78v-7.87h.95v7.87h-.95Z"/>
      <path class="cls-6" d="m327.46,279.78v-7.87h3.19c.67,0,1.16.07,1.48.22.32.15.58.39.78.73.2.34.3.74.3,1.19,0,.59-.17,1.08-.52,1.44-.35.37-.85.6-1.51.7.27.14.47.29.61.44.28.3.53.64.75,1l1.26,2.14h-1.2l-.96-1.64c-.37-.64-.65-1.07-.84-1.29-.19-.22-.37-.37-.55-.45s-.43-.12-.75-.12h-1.1v3.5h-.95Zm.95-4.4h2.05c.45,0,.79-.05,1.02-.15s.42-.25.55-.46c.14-.21.2-.45.2-.73,0-.4-.13-.71-.39-.94-.26-.23-.64-.34-1.16-.34h-2.28v2.61Z"/>
      <path class="cls-6" d="m334.74,279.78v-7.87h5.2v.93h-4.25v2.41h3.98v.93h-3.98v2.68h4.42v.93h-5.37Z"/>
      <path class="cls-6" d="m341.58,279.78v-1.1h1.01v1.1h-1.01Z"/>
    </g>
  </g>
  <g id="logoQc">
    <g>
      <g>
        <path class="cls-6" d="m319.34,334.97v-5.53h-.04c-.2.18-.92.2-1.23.2h-.53v.05c.62.38.53.94.53,1.63v2.34c0,1.17-1.15,1.99-2.07,1.99-1.22,0-1.73-.87-1.73-2.26v-3.94h-.04c-.2.18-.93.2-1.23.2h-.53v.04c.62.38.53.94.53,1.63v2.33c0,2.13.93,3.15,2.58,3.15.98,0,1.99-.35,2.49-1.18v1.01h1.81v-.05c-.62-.35-.53-.91-.53-1.61Z"/>
        <path class="cls-6" d="m322.14,332.02c.17-.95.87-1.55,1.81-1.55,1.01,0,1.65.5,1.81,1.55h-3.62Zm5.09.88c.06-1.95-1.25-3.42-3.16-3.42-2.09,0-3.51,1.52-3.51,3.62s1.64,3.73,4.02,3.73c.66,0,1.33-.1,1.94-.37l.7-1.42h-.04c-.65.55-1.46.81-2.3.81-1.58,0-2.78-1.08-2.8-2.94h5.15Z"/>
        <path class="cls-6" d="m328.35,326.24c.34,0,1.02-.02,1.23-.23h.04v9.57c.38.11.77.18,1.16.18,1.53,0,2.41-1.07,2.41-2.57s-.68-2.6-2.09-2.6c-.45,0-.79.12-1.17.33l.75-1.29c.32-.12.65-.17.99-.17,1.59,0,2.94,1.38,2.94,3.45,0,2.37-1.6,3.9-4.14,3.9-.95,0-1.86-.17-2.54-.27v-.05c.46-.21.42-.71.42-1.21v-6.96c0-.7.08-1.68-.52-2.06v-.05h.52Z"/>
        <path class="cls-6" d="m337.09,332.02c.17-.95.87-1.55,1.81-1.55,1.01,0,1.65.5,1.81,1.55h-3.62Zm5.09.88c.06-1.95-1.25-3.42-3.16-3.42-2.09,0-3.51,1.52-3.51,3.62s1.64,3.73,4.02,3.73c.66,0,1.33-.1,1.94-.37l.7-1.42h-.04c-.65.55-1.46.81-2.3.81-1.58,0-2.78-1.08-2.81-2.94h5.15Z"/>
        <path class="cls-6" d="m348.46,331.21h-.04c-.41-.5-1.08-.74-1.71-.74-1.36,0-2.34,1.03-2.34,2.47,0,1.75,1.36,2.9,2.92,2.9.72,0,1.5-.3,2.05-.74h.04l-.73,1.43c-.59.24-1.23.3-1.85.3-2.16,0-3.85-1.52-3.85-3.49,0-2.61,1.88-3.86,4-3.86.51,0,1.02.06,1.51.18v1.55Z"/>
        <path class="cls-7" d="m325.48,328.23v-1.52c-.92.41-1.77,1.18-2.34,1.93v.59c1.36-.92,2.34-.96,2.34-1Z"/>
        <path class="cls-6" d="m306.69,335.79c-2.12,0-3.59-2.39-3.59-4.42,0-.02,0-.21,0-.23.03-1.97,1.3-3.81,3.52-3.81,2.34,0,3.54,2.21,3.56,4.31v.22c0,2.23-1.39,3.93-3.49,3.93Zm7.26,2.32c-1.56.26-3.07-.24-4.66-2.06,1.54-.77,2.5-2.7,2.5-4.5,0-.02,0-.2,0-.22-.03-3.07-2.33-5.09-5.08-5.09s-5.18,2.11-5.2,5.2c0,.01,0,.19,0,.21,0,3.01,2.23,5.24,4.97,5.24.39,0,.77-.06,1.15-.15,1.79,1.68,3.39,2.39,4.77,2.23.65-.08,1.35-.34,1.76-.88l-.2.03Z"/>
      </g>
      <g>
        <rect class="cls-6" x="351.88" y="326.24" width="6.84" height="4.19"/>
        <path class="cls-11" d="m355.3,326.46c-.05.09-.16.22-.35.46-.22.27-.18.64-.08.85.12.25.19.45.24.65.07.28.03.66.03.63h-.19c0-.46-.14-.9-.49-1.09-.5-.27-.99.2-.83.7.08.26.23.35.27.35,0,0-.07-.29.14-.43.19-.14.43-.05.55.11.11.16.12.37.12.37h-.36v.26h.72s-.02.37-.41.34c0,0,.05.29.41.14,0,0-.02.31.23.46h0c.25-.15.23-.46.23-.46.36.15.41-.14.41-.14-.39.04-.41-.34-.41-.34h.72s0-.26,0-.26h-.36s.02-.21.12-.37c.11-.16.35-.25.55-.11.21.15.14.43.14.43.04,0,.19-.09.27-.35.16-.5-.33-.97-.83-.7-.35.19-.49.63-.49,1.09h-.19s-.05-.34.03-.63c.05-.2.12-.4.24-.65.1-.21.14-.58-.08-.85-.19-.24-.3-.37-.35-.46Z"/>
        <rect class="cls-6" x="360.71" y="326.24" width="6.84" height="4.19"/>
        <path class="cls-11" d="m364.13,326.46c-.05.09-.16.22-.35.46-.22.27-.18.64-.08.85.12.25.19.45.24.65.07.28.03.66.03.63h-.19c0-.46-.14-.9-.49-1.09-.5-.27-.98.2-.83.7.08.26.23.35.27.35,0,0-.07-.29.14-.43.19-.14.43-.05.55.11.11.16.12.37.12.37h-.36v.26h.72s-.02.37-.41.34c0,0,.05.29.41.14,0,0-.02.31.23.46h0c.25-.15.23-.46.23-.46.36.15.41-.14.41-.14-.39.04-.41-.34-.41-.34h.72s0-.26,0-.26h-.36s.02-.21.12-.37c.11-.16.35-.25.55-.11.21.15.14.43.14.43.04,0,.19-.09.27-.35.16-.5-.33-.97-.83-.7-.35.19-.49.63-.49,1.09h-.19s-.05-.34.03-.63c.05-.2.12-.4.24-.65.1-.21.14-.58-.08-.85-.19-.24-.3-.37-.35-.46Z"/>
      </g>
      <g>
        <rect class="cls-6" x="351.88" y="332.43" width="6.84" height="4.19"/>
        <path class="cls-11" d="m355.3,332.65c-.05.09-.16.22-.35.46-.22.27-.18.63-.08.85.12.25.19.45.24.65.07.28.03.66.03.63h-.19c0-.46-.14-.9-.49-1.09-.5-.28-.99.2-.83.7.08.26.23.35.27.35,0,0-.07-.29.14-.43.19-.14.43-.05.55.11.11.16.12.37.12.37h-.36v.26h.72s-.02.37-.41.34c0,0,.05.29.41.14,0,0-.02.31.23.46h0c.25-.15.23-.46.23-.46.36.15.41-.14.41-.14-.39.04-.41-.34-.41-.34h.72v-.26h-.36s.02-.21.12-.37c.11-.16.35-.25.55-.11.21.15.14.43.14.43.04,0,.19-.09.27-.35.16-.49-.33-.97-.83-.7-.35.19-.49.63-.49,1.09h-.19s-.05-.34.03-.63c.05-.2.12-.4.24-.65.1-.21.14-.58-.08-.85-.19-.24-.3-.37-.35-.46Z"/>
        <rect class="cls-6" x="360.71" y="332.43" width="6.84" height="4.19"/>
        <path class="cls-11" d="m364.13,332.65c-.05.09-.16.22-.35.46-.22.27-.18.63-.08.85.12.25.19.45.24.65.07.28.03.66.03.63h-.19c0-.46-.14-.9-.49-1.09-.5-.28-.98.2-.83.7.08.26.23.35.27.35,0,0-.07-.29.14-.43.19-.14.43-.05.55.11.11.16.12.37.12.37h-.36v.26h.72s-.02.37-.41.34c0,0,.05.29.41.14,0,0-.02.31.23.46h0c.25-.15.23-.46.23-.46.36.15.41-.14.41-.14-.39.04-.41-.34-.41-.34h.72v-.26h-.36s.02-.21.12-.37c.11-.16.35-.25.55-.11.21.15.14.43.14.43.04,0,.19-.09.27-.35.16-.49-.33-.97-.83-.7-.35.19-.49.63-.49,1.09h-.19s-.05-.34.03-.63c.05-.2.12-.4.24-.65.1-.21.14-.58-.08-.85-.19-.24-.3-.37-.35-.46Z"/>
      </g>
    </g>
    <g>
      <g>
        <path class="cls-6" d="m241.89,320.45c0,.09.43.13.43.35v3.46h2.99l.26-1s-.08-.02-.15.05c-.14.15-.27.6-.94.6h-1.43v-1.54h1.6v-.36h-1.6v-1.29h1.55c.31,0,.44.22.62.28.04.01.09,0,.09,0l-.24-.62h-3.19v.06Z"/>
        <path class="cls-6" d="m239.19,324.26c.41,0,.8-.06,1.13-.21.7-.32,1.17-.96,1.17-1.75,0-1.15-.86-1.91-2.49-1.91h-1.49v.06c0,.09.43.13.43.35v3.46h1.24Zm.86-.49c-.22.11-.5.15-.7.15h-.67v-3.18h.09c1.75,0,2.1.99,2.1,1.68,0,.64-.35,1.12-.82,1.35Z"/>
        <path class="cls-6" d="m217.73,319.57c0,.09.38.07.5.37l1.82,4.33h.54l1.81-4.75h-1.04v.06c0,.09.38.05.38.26,0,.09-.08.32-.15.5l-1.16,3.1h-.02l-1.59-3.92h-1.11v.06Z"/>
        <path class="cls-6" d="m231.84,320.45c0,.09.43.13.43.35v3.46h2.99l.26-1s-.08-.02-.15.05c-.14.15-.27.6-.94.6h-1.43v-1.54h1.6v-.36h-1.6v-1.29h1.55c.31,0,.44.22.62.28.04.01.09,0,.09,0l-.24-.62h-3.18v.06Z"/>
        <path class="cls-6" d="m228.26,320.39v.06c0,.09.43.13.43.35v3.46h2.8l.26-1s-.08-.02-.15.05c-.14.15-.27.6-.94.6h-1.24v-3.53h-1.16Z"/>
        <path class="cls-6" d="m224.64,320.39v.06c0,.09.43.13.43.35v3.46h2.8l.26-1s-.08-.02-.15.05c-.14.15-.27.6-.94.6h-1.24v-3.53h-1.16Z"/>
        <path class="cls-6" d="m223.83,324.26v-3.87h-1.16v.06c0,.09.43.13.43.35v3.46h.73Z"/>
      </g>
      <g>
        <path class="cls-6" d="m242.12,327.63c.44-.1,2.04-.98,3.07-1.52h-1.8l-1.6,1.44s.13.13.33.08Z"/>
        <path class="cls-6" d="m235.55,328.39v.12c0,.18.9.26.9.69v4.24c0,1.28-.99,2.07-2.24,2.07s-2.24-.84-2.24-2.12v-5.01h-2.24v.12c0,.2.73.26.73.79v3.92c0,1.87,1.28,2.95,3.64,2.95.89,0,1.76-.35,2.35-.89v.76h2.24v-.12c0-.2-.72-.26-.72-.79v-6.74h-2.41Z"/>
        <path class="cls-6" d="m271.07,330.38c-.07-.6-.13-1.21-.14-1.81-.67-.27-1.46-.37-2.2-.37-2.4,0-5.1,1.27-5.1,4.06s2.59,3.98,4.47,3.98c1.23,0,2.43-.3,3.2-.93l.06-.68c-.81.44-1.78.78-2.78.78-2.04,0-3.62-1.7-3.62-3.56,0-1.59,1.25-2.91,3.37-2.91.71,0,1.52.16,2.05.64.27.23.42.8.57.8h.12Z"/>
        <path class="cls-6" d="m239.37,328.5c0,.18.9.26.9.69v6.84h6.22l.55-1.98s-.17-.03-.32.11c-.3.3-.56,1.19-1.96,1.19h-2.98v-3.04h3.33v-.7h-3.33v-2.56h3.22c.64,0,.92.44,1.29.55.09.02.19,0,.19,0l-.49-1.22h-6.62v.12Z"/>
        <path class="cls-6" d="m255.42,328.5c0,.18.9.26.9.69v6.84h6.22l.55-1.98s-.17-.03-.32.11c-.3.3-.56,1.19-1.96,1.19h-2.98v-3.04h3.33v-.7h-3.33v-2.56h3.22c.64,0,.92.44,1.29.55.09.02.19,0,.19,0l-.49-1.22h-6.62v.12Z"/>
        <path class="cls-6" d="m247.31,328.39v.12c0,.18.9.26.9.69v6.84h2.91c.69,0,1.3-.05,1.81-.19,1.45-.37,2.16-1.23,2.16-2.08,0-1.28-1.25-1.76-2.64-1.9v-.02c1.04-.27,1.83-.72,1.83-1.68,0-1.38-1.39-1.79-3.29-1.79h-3.68Zm3.65.67c.33,0,.64.02.91.08.63.15,1.07.51,1.07,1.17,0,.6-.46,1.05-1.33,1.24-.33.07-.73.09-1.19.09h-.7v-2.58h1.24Zm.13,3.26c.39,0,.73,0,1.04.06.98.19,1.54.7,1.54,1.53,0,.71-.59,1.18-1.63,1.37-.41.07-.89.08-1.42.08h-.91v-3.04h1.37Z"/>
        <path class="cls-6" d="m235.49,338c0,.09-.07.13-.16.17-.81.42-2.33,1.08-4.26,1.08-2.03,0-3.46-.58-5.69-1.96l-1.62-1.02c-.21.01-.41.02-.63.01-3.07-.09-5.41-2.38-5.23-5.12.18-2.74,2.81-4.9,5.88-4.81,3.07.09,5.41,2.38,5.23,5.13-.13,1.99-1.55,3.67-3.5,4.41l1.49.85c2.84,1.56,4.63,1.72,5.54,1.72.7,0,1.69-.12,2.62-.51.08-.03.15-.07.2-.07.07,0,.12.06.12.13Zm-12.23-10.6c-2.18,0-3.86,1.75-3.75,3.92.11,2.16,1.96,3.92,4.14,3.92,2.18,0,3.86-1.75,3.75-3.92-.11-2.17-1.96-3.92-4.14-3.92Z"/>
      </g>
      <g>
        <path class="cls-6" d="m254.94,314.11c-.98-1.4-1.27-3.28.93-3.91l3.59-.7c-.84.79-1.1,2.07-.01,3.86-2.13-1.04-4.7-.89-4.51.75Z"/>
        <path class="cls-6" d="m265.88,312.18c-1.25-1.9-.71-3.42-.03-4.11l-4.76,1.02c-2.11.9-1.58,2.89-.82,4.03-.15-1.47,2.08-2.22,5.6-.93Z"/>
        <path class="cls-6" d="m261.83,319.8c-4.16-3.49-2.6-5.81-1.17-6.52l5.28-.98c-2.38,2.44-1.48,5.28-.3,6.71-2.07-1.15-4.95-1.26-3.81.79Z"/>
        <path class="cls-6" d="m257.33,318.51c-.73.05-1.07.5-.99,1.05-1.67-1.24-2.73-3.34-1.37-5.2l4.52-.84c-1.07,1-1.75,3.36,1.6,6.21-1.09-.32-2.28-1.32-3.77-1.23Z"/>
        <path class="cls-6" d="m269.99,311.75c-2.61.55-7.1,2.69-3.75,7.03-.57-1.72,1.22-1.88,3.78-1.49-1.57-1.03-2.65-3.14-.03-5.54Z"/>
        <path class="cls-6" d="m264.41,320.37l.14-.42.85-.06.32-.66,2.55-.76.24-.57,2.22-.73c.38.87.12,1.76-.32,2.47-.26.43-.61.78-.86,1.08-.66.81-.47,2.16.24,3.54h-12.28c-1.03-.96-1.4-1.88-1.87-2.84-.47-.95-1.03-1.37-2.5-2.36-.35-.23-.16-.57.21-.34l1.08.65c2.91,1.05,6.67,1.09,9.98.99Z"/>
        <path class="cls-6" d="m250.48,315.81l.51.02c-.77-.53-1.43-1.01-1.59-1.12-.25-.17-.3.05-.15.16l1.24.95Z"/>
        <path class="cls-6" d="m252.8,317.09s-.2.37-.04.6l1.44,1.21,1.48.39-2.88-2.21Z"/>
        <path class="cls-6" d="m257.06,306.69c.01-.22.1-.25.12-.03.02.21.24,2.52.25,2.71,0,.19-.02.24-.08.25-.06.02-.17.03-.23.04-.07,0-.1-.02-.11-.13,0-.11.04-2.44.06-2.84Z"/>
        <path class="cls-6" d="m263.33,304.76c0-.1.02-.17.07-.17.05,0,.07.06.08.13.01.17.22,3.38.23,3.47,0,.1-.01.13-.09.15-.09.03-.12.03-.21.05-.08,0-.14-.02-.14-.11s.06-3.36.06-3.52Z"/>
        <path class="cls-6" d="m267.47,308.56c0-.15.1-.18.11-.03.01.15.18,3.4.18,3.58s-.01.2-.07.24c-.06.04-.1.05-.18.09-.08.04-.12.03-.12-.07s.04-2.85.08-3.8Z"/>
        <path class="cls-6" d="m265.62,309.74c-.06-.1,0-.1.03-.1.12.02.41.06.63-.06.22-.11.43-.25.65-.3.29-.06.42-.01.29.14-.21.26-.23.63-.05.93.06.1.06.15-.04.14-.62-.07-.87-.22-1.37.07-.11.06-.14.02-.1-.04.11-.17.24-.29.4-.39.08-.05.06-.08,0-.1-.24-.08-.4-.21-.45-.3Z"/>
        <path class="cls-6" d="m263.07,305.61c-.4.19-.65.15-.86.05-.09-.05-.19-.1-.27-.12-.34-.13-.5-.06-.73.11-.27.2-.54.28-.84.36-.19.05-.39.12-.53.22-.2.15-.3.33-.35.48-.04.12-.02.14.07.11.33-.12.42-.19.87-.09.52.12.76.16,1.26-.02.5-.18.73-.22,1.03-.05.12.07.27.19.32.13.05-.06-.08-.16-.11-.25-.11-.36.04-.67.17-.84.03-.04.02-.11-.05-.08Z"/>
        <path class="cls-6" d="m256.78,307.92c-.11-.19-.07-.5.02-.73.05-.14-.16-.2-.47-.1-.31.1-.51.27-.93.31-.34.03-.64-.03-.76-.06-.09-.02-.08.03.01.13.05.06.2.17.34.24.06.03.04.08-.03.15-.06.06-.16.15-.33.23-.03.02-.09.06.07.13.21.1.63.2,1.14.02.25-.09.41-.2.67-.19.31.01.37.03.28-.14Z"/>
        <path class="cls-6" d="m271.18,315.32c0,.23-.19.41-.41.41s-.41-.19-.41-.41.19-.41.41-.41.41.19.41.41Z"/>
        <path class="cls-6" d="m271.32,315.63c-.11.19-.31.32-.55.32s-.44-.13-.55-.32c-.16.16-.18.24-.18.24l.21.16.19.97h.66l.19-.97.21-.16s-.03-.08-.18-.24Z"/>
        <path class="cls-6" d="m269.67,321.2c-.32.67-.17,1.72.45,2.9l.09.17h.74s.05-.45-.6-1.36c-.61-.84-.66-1.53-.67-1.7Z"/>
        <path class="cls-6" d="m253.52,319.91c.06.04.05.08-.02.04-.06-.04-.41-.25-.6-.35-2.58,2.32-5.75-1.69-3.31-3.52l3.34-.1c-1.07,1.92-.37,3.2.59,3.92Zm-.69-.35c-1.17-.65-2.32-.75-2.54-.16-.3.8,1.61,1.13,2.54.16Z"/>
      </g>
    </g>
  </g>
</svg>