<?xml version="1.0" encoding="UTF-8"?>
<svg xmlns="http://www.w3.org/2000/svg" xmlns:xlink="http://www.w3.org/1999/xlink" viewBox="0 0 575.9 416.7" aria-labelledby="libelleEpigraphe">
  <title id="libelleEpigraphe">Épigraphe d'Edmund Alleyn</title>
  <defs>
    <style>
      .cls-1, .cls-2 {
        fill: none;
      }

      .cls-3, .cls-4, .cls-5 {
        fill: #fff;
      }

      .cls-6 {
        fill: #a77fff;
      }

      .cls-4 {
        stroke-width: .5px;
      }

      .cls-4, .cls-7, .cls-2, .cls-8 {
        stroke-miterlimit: 10;
      }

      .cls-4, .cls-2 {
        stroke: #fff;
      }

      .cls-7 {
        fill: url(#Dégradé_sans_nom_612);
        stroke: url(#Dégradé_sans_nom_605);
      }

      .cls-7, .cls-2 {
        stroke-width: 2px;
      }

      .cls-9 {
        opacity: .5;
      }

      .cls-10 {
        opacity: .7;
      }

      .cls-11 {
        fill: url(#Dégradé_sans_nom_22-2);
      }

      .cls-12 {
        fill: #1e00aa;
      }

      .cls-12, .cls-5 {
        fill-rule: evenodd;
      }

      .cls-8 {
        fill: url(#Dégradé_sans_nom_22);
        stroke: #001cc9;
        stroke-width: 3px;
      }
    </style>
    <radialGradient id="Dégradé_sans_nom_22" data-name="Dégradé sans nom 22" cx="288" cy="208.3" fx="288" fy="208.3" r="249.9" gradientUnits="userSpaceOnUse">
      <stop offset="0" stop-color="#1300bf"/>
      <stop offset=".2" stop-color="#1200b9"/>
      <stop offset=".4" stop-color="#1000a9"/>
      <stop offset=".7" stop-color="#0d008e"/>
      <stop offset="1" stop-color="#0a006a"/>
    </radialGradient>
    <radialGradient id="Dégradé_sans_nom_22-2" data-name="Dégradé sans nom 22" cx="289.7" cy="207.2" fx="289.7" fy="207.2" r="233.8" xlink:href="#Dégradé_sans_nom_22"/>
    <radialGradient id="Dégradé_sans_nom_612" data-name="Dégradé sans nom 612" cx="286.7" cy="211.3" fx="286.7" fy="211.3" r="232" gradientTransform="translate(1.5 38.5) rotate(.5) scale(1 .8) skewX(0)" gradientUnits="userSpaceOnUse">
      <stop offset="0" stop-color="#0a006a"/>
      <stop offset=".2" stop-color="#0e0070"/>
      <stop offset=".5" stop-color="#19007d"/>
      <stop offset=".7" stop-color="#27008f"/>
      <stop offset="1" stop-color="#3c00aa"/>
    </radialGradient>
    <radialGradient id="Dégradé_sans_nom_605" data-name="Dégradé sans nom 605" cx="286.7" cy="209" fx="286.7" fy="209" r="213.3" gradientTransform="translate(0 2.5) scale(1 1)" gradientUnits="userSpaceOnUse">
      <stop offset="0" stop-color="#0a006a"/>
      <stop offset=".1" stop-color="#0c026c"/>
      <stop offset=".2" stop-color="#130b74"/>
      <stop offset=".2" stop-color="#1f1b81"/>
      <stop offset=".3" stop-color="#303093"/>
      <stop offset=".4" stop-color="#474cab"/>
      <stop offset=".4" stop-color="#626ec9"/>
      <stop offset=".5" stop-color="#8296eb"/>
      <stop offset=".5" stop-color="#94adff"/>
      <stop offset=".6" stop-color="#8a9af5"/>
      <stop offset=".7" stop-color="#7168dd"/>
      <stop offset=".9" stop-color="#491ab7"/>
      <stop offset="1" stop-color="#3c00aa"/>
    </radialGradient>
  </defs>
  <g id="pierre">
    <ellipse class="cls-8" cx="288" cy="208.3" rx="286.5" ry="206.8"/>
    <g class="cls-9">
      <path class="cls-11" d="m556.5,206.2c0,105-123.2,196.3-268.6,196.3S22.9,307,22.9,202,140.8,11.9,286.2,11.9s270.4,89.3,270.4,194.4Z"/>
      <path class="cls-6" d="m556.7,206.2c.2,46.2-24.4,89.1-57.4,120.1-73,67.9-181.2,90.9-277.6,70.7-66.5-14.3-131-49.5-170.4-106.1-17.2-25.1-28.7-54.7-29.5-85.3-1.1-30.7,8.6-61.2,25.5-86.7C90.7,54.8,167.8,21.5,242.6,12.4c90.2-10.8,187.7,12.4,255.9,74.3,33.4,30.6,58.5,73.3,58.3,119.6h0Zm-.4,0c0-62.2-44.6-114.3-95.5-145.1C383.1,14.1,286.2,2.8,198.6,24.8,114,45.3,22.7,110.2,24,205.6c.5,30.2,11.5,59.7,28.5,84.6,43.3,62.8,117.7,98.6,192.1,108.1,89.3,10.8,185.7-12.5,253.5-73.2,33.4-30.2,58.4-72.7,58.3-118.8h0Z"/>
    </g>
    <ellipse class="cls-7" cx="286.7" cy="208.5" rx="246.9" ry="168.4"/>
    <text/>
    <ellipse class="cls-1" cx="285.3" cy="208.2" rx="247.7" ry="170.4"/>
    <ellipse class="cls-2" cx="287.1" cy="208.3" rx="244.8" ry="166.9"/>
  </g>
  <g id="lumiere">
    <g id="lumiere2" class="cls-10">
      <path class="cls-3" d="m86.5,76.2C126.8,40.5,180,19.4,233.2,13.4c9.9-1,20-1.5,29.9-1.5-63.3,4.1-126.1,25.5-176.6,64.3h0Z"/>
    </g>
    <g id="lumiere1" class="cls-10">
      <path class="cls-3" d="m296.8,403.8c46.9-3.2,93.9-12.2,136.5-32.4,14.1-6.8,27.7-14.8,40.3-24.3-5.9,5.2-12.2,10-18.8,14.4-46.4,30.4-103.1,42.3-158,42.3h0Z"/>
    </g>
  </g>
  <g id="deco">
    <path class="cls-3" d="m30.2,195.7c-1.1,0-2,.6-2.4,1.5-.6,0-4.9-.8-9.8-8.8-.6.5-2.7,2.1-2.7,2.1,0,0,3.3,4.3,8.3,6.4-.7.2-6-.5-10.4-4.7-.2.2-2.7,1.9-2.7,1.9,0,0,4.6,3.3,10.9,3.8-.9.2-7.9.4-13.6-1.8-.7.6-3.3,2.5-3.3,2.5l3.3,2.3s12.6-2.6,13.6-2.2c0,0-9.8,2.4-10.8,4.2.6.5,2.6,1.9,2.6,1.9,0,0,5.4-4.5,10.3-5.1-.4.6-4.2,1.9-7.6,6.5.9.7,3.1,2.2,3.1,2.2,0,0,2.1-6.3,8.9-9,.4,1,1.4,1.7,2.5,1.7s2.7-1.2,2.7-2.7-1.2-2.7-2.7-2.7Z"/>
    <path class="cls-3" d="m541.6,201.1c1.1,0,2-.6,2.4-1.5.6,0,4.9.8,9.8,8.8.6-.5,2.7-2.1,2.7-2.1,0,0-3.3-4.3-8.3-6.4.7-.2,6,.5,10.4,4.7.2-.2,2.7-1.9,2.7-1.9,0,0-4.6-3.3-10.9-3.8.9-.2,7.9-.4,13.6,1.8.7-.6,3.3-2.5,3.3-2.5l-3.3-2.3s-12.6,2.6-13.6,2.2c0,0,9.8-2.4,10.8-4.2-.6-.5-2.6-1.9-2.6-1.9,0,0-5.4,4.5-10.3,5.1.4-.6,4.2-1.9,7.6-6.5-.9-.7-3.1-2.2-3.1-2.2,0,0-2.1,6.3-8.9,9-.4-1-1.4-1.7-2.5-1.7s-2.7,1.2-2.7,2.7,1.2,2.7,2.7,2.7Z"/>
    <path class="cls-3" d="m289.5,386.6c0,1.1-.6,2-1.5,2.4,0,.6.8,4.9,8.8,9.8-.5.6-2.1,2.7-2.1,2.7,0,0-4.3-3.3-6.4-8.3-.2.7.5,6,4.7,10.4-.2.2-1.9,2.7-1.9,2.7,0,0-3.3-4.6-3.8-10.9-.2.9-.4,7.9,1.8,13.6-.6.7-2.5,3.3-2.5,3.3l-2.3-3.3s2.6-12.6,2.2-13.6c0,0-2.4,9.8-4.2,10.8-.5-.6-1.9-2.6-1.9-2.6,0,0,4.5-5.4,5.1-10.3-.6.4-1.9,4.2-6.5,7.6-.7-.9-2.2-3.1-2.2-3.1,0,0,6.3-2.1,9-8.9-1-.4-1.7-1.4-1.7-2.5s1.2-2.7,2.7-2.7,2.7,1.2,2.7,2.7Z"/>
  </g>
  <g id="ecritureVecto">
    <g>
      <path class="cls-3" d="m197.6,135.4v-1l1-.3c.6-.2,1-.4,1.2-.9.2-.4.4-1,.4-1.7v-24.6c0-.7-.1-1.2-.3-1.6-.2-.4-.6-.7-1.2-.9l-1-.3v-1h23.3l.3,7.8h-1.4l-2-4.4c-.3-.6-.6-1.1-.9-1.4-.3-.3-.8-.5-1.5-.5h-8.3c0,2,0,4.1,0,6.2v7.2h4.9c.7,0,1.2-.2,1.5-.5.3-.3.7-.8,1-1.4l.8-1.9h1.1v9.1h-1.1l-.9-1.9c-.3-.6-.6-1.1-.9-1.4-.3-.4-.8-.5-1.5-.5h-4.9v6.1c0,1.7,0,3.2,0,4.5,0,1.3,0,2.6,0,3.9h9.4c.7,0,1.2-.2,1.5-.5.4-.3.7-.8.9-1.4l1.8-4.4h1.4l-.3,7.8h-24.3Z"/>
      <path class="cls-3" d="m234.7,136.1c-1.9,0-3.7-.4-5.2-1.3-1.5-.9-2.7-2.2-3.6-4-.9-1.8-1.3-4.1-1.3-6.9s.5-5.2,1.5-7c1-1.9,2.3-3.3,3.9-4.2,1.6-.9,3.4-1.4,5.4-1.4s2.3.1,3.4.4c1.1.3,2,.7,2.8,1.2v-6.4c0-.7-.1-1.2-.3-1.5-.2-.3-.6-.5-1.3-.7l-1-.2v-.9l8.5-2.1.6.4-.2,6.9v23.6c0,.6.1,1.1.3,1.5.2.4.6.7,1.2.9h.5v1.1l-8.1.5-.4-2.1c-.9.7-1.9,1.2-3,1.6s-2.4.6-3.8.6Zm2.7-2.3c1.4,0,2.7-.5,4-1.4v-18.2c-1.2-.8-2.5-1.1-3.9-1.1s-3,.8-4.1,2.5c-1.1,1.7-1.7,4.4-1.7,8.1s.5,6.3,1.6,7.8c1.1,1.5,2.5,2.3,4.2,2.3Z"/>
      <path class="cls-3" d="m252.2,135.4v-1l1.1-.3c.5-.2.9-.4,1-.7.2-.3.3-.7.3-1.2v-12.4c0-.8,0-1.6,0-2.6,0-.6,0-1-.2-1.3-.2-.3-.5-.5-1.1-.7l-1-.2v-.9l7.9-2.8.6.5.3,3.3c1.1-1,2.4-1.9,3.8-2.7,1.4-.8,2.8-1.1,4.3-1.1s2.9.3,3.8,1c.9.7,1.6,1.6,2.1,3,1.2-1.2,2.6-2.2,4.1-2.9,1.5-.7,3-1.1,4.5-1.1,2.2,0,3.9.6,5,1.7,1.1,1.1,1.7,2.9,1.7,5.2v14.2c0,1,.5,1.7,1.4,2l.9.2v1h-11v-1l.9-.2c.9-.3,1.3-1,1.3-2v-14.4c0-1.4-.3-2.4-.8-2.9-.5-.5-1.3-.8-2.5-.8s-1.7.2-2.5.5c-.8.4-1.7.9-2.6,1.7.2,1,.3,2.1.3,3.4v12.4c0,.6.1,1,.3,1.3.2.3.5.5,1.1.7l.8.2v1h-11.1v-1l1-.3c.5-.2.9-.4,1.1-.7.2-.3.3-.7.3-1.2v-14.3c0-1.3-.2-2.3-.7-2.8-.5-.6-1.3-.8-2.5-.8s-3.1.7-4.9,2.2v15.9c0,1.1.5,1.7,1.4,2l.8.2v1h-11.2Z"/>
      <path class="cls-3" d="m303.3,136.1c-1.3,0-2.4-.2-3.5-.7-1-.5-1.9-1.3-2.5-2.4-.6-1.1-.9-2.5-.9-4.3v-12.3c.1-.7,0-1.2-.2-1.6-.2-.3-.6-.6-1.2-.7l-.6-.2v-.9l8.4-1.6.5.5-.2,6.9v11.1c0,1.1.3,1.9.9,2.4.6.5,1.4.8,2.3.8s1.8-.1,2.6-.4c.8-.3,1.6-.7,2.4-1.2v-15.1c.1-.8,0-1.3-.2-1.6-.2-.3-.6-.5-1.2-.7h-.5v-1l8.2-1.7.5.5v6.9c-.1,0-.1,12.8-.1,12.8,0,.7,0,1.2.3,1.6.2.4.6.7,1.2.9l.6.2v.9l-8.3.5-.4-3.1c-1.1.9-2.3,1.7-3.6,2.4s-2.8.9-4.4.9Z"/>
      <path class="cls-3" d="m322,135.4v-.9l.8-.2c1.1-.3,1.6-1.1,1.6-2.4v-14.5c0-.7-.1-1.2-.3-1.6-.2-.4-.6-.6-1.3-.8l-.8-.2v-.9l7.9-2.8.6.5.3,3c1.2-1,2.5-1.9,3.9-2.6,1.5-.7,2.9-1,4.3-1,2.2,0,3.8.6,5,1.8,1.2,1.2,1.7,3,1.7,5.4v13.6c0,1.3.6,2.1,1.8,2.4h.5v1.1h-11.3v-.9l.7-.2c1.1-.4,1.6-1.2,1.6-2.4v-14.6c0-1.1-.2-2-.7-2.5-.5-.5-1.3-.8-2.5-.8s-3.3.7-5,2.1v15.8c0,1.3.6,2.1,1.7,2.4h.5v1.1h-11.2Z"/>
      <path class="cls-3" d="m360.4,136.1c-1.9,0-3.7-.4-5.2-1.3-1.5-.9-2.7-2.2-3.6-4-.9-1.8-1.3-4.1-1.3-6.9s.5-5.2,1.5-7c1-1.9,2.3-3.3,3.9-4.2,1.6-.9,3.4-1.4,5.4-1.4s2.3.1,3.4.4c1.1.3,2,.7,2.8,1.2v-6.4c0-.7-.1-1.2-.3-1.5-.2-.3-.6-.5-1.3-.7l-1-.2v-.9l8.5-2.1.6.4-.2,6.9v23.6c0,.6.1,1.1.3,1.5.2.4.6.7,1.2.9h.5v1.1l-8.1.5-.4-2.1c-.9.7-1.9,1.2-3,1.6s-2.4.6-3.8.6Zm2.7-2.3c1.4,0,2.7-.5,4-1.4v-18.2c-1.2-.8-2.5-1.1-3.9-1.1s-3,.8-4.1,2.5c-1.1,1.7-1.7,4.4-1.7,8.1s.5,6.3,1.6,7.8c1.1,1.5,2.5,2.3,4.2,2.3Z"/>
      <path class="cls-3" d="m152.9,202.4v-1.6l2.1-.6c1.1-.3,1.9-.8,2.5-1.4.6-.6,1.1-1.5,1.4-2.5l15.6-45h6.4l15.5,45.3c.4,1.1.9,2,1.4,2.6.5.6,1.3,1.1,2.5,1.4l1.2.3v1.5h-19.6v-1.5l1.3-.4c1.1-.4,1.8-.9,2-1.7.2-.8.2-1.7-.2-2.8l-3.2-9.9h-17l-3.3,9.8c-.4,1.1-.5,2.1-.3,2.8.2.7.8,1.3,1.9,1.7l1.7.5v1.6h-11.8Zm12.6-18.6h15.6l-7.5-23.2-8,23.2Z"/>
      <path class="cls-3" d="m203.7,202.4v-1.6l1.5-.5c1.1-.4,1.8-.8,2.1-1.4.3-.6.5-1.4.5-2.5v-39c0-1-.2-1.8-.5-2.4-.3-.6-1-1.1-2-1.4l-1.6-.5v-1.6h19.1v1.6l-1.5.5c-1,.4-1.6.8-2,1.5-.3.6-.5,1.5-.5,2.5v42.5h11.3c1.7,0,3.1-.4,3.9-1.3.9-.9,1.7-2.1,2.5-3.8l2.8-6.4h2.2l-.8,13.8h-37.1Z"/>
      <path class="cls-3" d="m244.5,202.4v-1.6l1.5-.5c1.1-.4,1.8-.8,2.1-1.4.3-.6.5-1.4.5-2.5v-39c0-1-.2-1.8-.5-2.4-.3-.6-1-1.1-2-1.4l-1.6-.5v-1.6h19.1v1.6l-1.5.5c-1,.4-1.6.8-2,1.5-.3.6-.5,1.5-.5,2.5v42.5h11.3c1.7,0,3.1-.4,3.9-1.3.9-.9,1.7-2.1,2.5-3.8l2.8-6.4h2.2l-.8,13.8h-37.1Z"/>
      <path class="cls-3" d="m285.3,202.4v-1.6l1.5-.5c.9-.3,1.6-.7,1.9-1.3.4-.6.6-1.5.6-2.7v-38.7c0-1.1-.2-1.9-.5-2.5-.3-.6-1-1-1.9-1.3l-1.6-.5v-1.6h36.7l.5,12.3h-2.2l-3.1-6.9c-.4-1-.9-1.7-1.4-2.3-.5-.5-1.3-.8-2.3-.8h-13.1c0,3.2,0,6.5,0,9.8v11.4h7.6c1,0,1.8-.3,2.3-.8.5-.5,1-1.3,1.5-2.2l1.3-2.9h1.7v14.2h-1.7l-1.4-2.9c-.4-.9-.9-1.7-1.4-2.2-.5-.6-1.3-.8-2.3-.8h-7.7v9.5c0,2.7,0,5,0,7.1,0,2.1,0,4.1,0,6.1h14.8c1,0,1.8-.3,2.4-.8.6-.5,1-1.3,1.4-2.3l2.8-6.9h2.2l-.5,12.3h-38.2Z"/>
      <path class="cls-3" d="m338.1,202.4v-1.6l2.2-.5c1-.3,1.7-.7,2.2-1.3.4-.6.6-1.4.7-2.5v-13.9l-12.4-25.3c-.5-1-1-1.8-1.5-2.3-.5-.5-1.1-.9-2-1.2l-1.4-.5v-1.6h20.4v1.6l-1.4.5c-1.1.4-1.7.9-1.8,1.7-.1.8.1,1.8.7,3l8.8,19.4,9.5-19.9c.5-.9.7-1.8.6-2.7,0-.9-.6-1.4-1.6-1.7l-1.1-.3v-1.6h10.1v1.6l-1.5.5c-1,.3-1.8.8-2.2,1.4-.4.6-.9,1.4-1.3,2.5l-10.7,22.3v16.8c0,2.1.9,3.4,2.8,3.8l2.3.5v1.6h-21.3Z"/>
      <path class="cls-3" d="m373.3,202.4v-1.6l2.2-.6c1-.3,1.7-.7,2-1.5.4-.7.6-1.6.6-2.6v-37.3c-.5-1-.9-1.7-1.2-2.2-.3-.5-.7-.9-1-1.3-.4-.4-.8-.8-1.5-1.2l-1.4-1v-1.6h13.2l25.6,35v-28.6c0-1-.2-1.9-.5-2.7-.3-.8-1-1.3-2-1.5l-2.3-.5v-1.6h11.5v1.6l-1.9.5c-1,.3-1.6.8-1.8,1.6-.2.7-.3,1.6-.3,2.7v44.8h-4.3l-29.3-40.3v33.6c0,1.1.2,2,.5,2.7.3.7.9,1.2,1.9,1.5l2.1.6v1.6h-11.9Z"/>
    </g>
    <g>
      <path class="cls-3" d="m275.5,352.3v-1.6c.3-.1.6-.2,1-.3s.8-.1,1.2-.1c.9,0,1.6.2,2.1.5.4.4.6.8.6,1.4s-.3,1-.8,1.5-1.2,1-2.2,1.7c-.2.1-.4.3-.6.4s-.5.3-.7.5h4.5v1.2h-5.3v-.9c.6-.5,1.2-1,1.7-1.5.6-.5,1-1,1.3-1.5.3-.4.4-.9.4-1.4s-.1-.9-.3-1.2c-.2-.3-.5-.4-.9-.4s-.5,0-.7.2c-.2.1-.4.3-.5.6l-.5.9h-.4Z"/>
      <path class="cls-3" d="m284.2,357.6c-.5,0-.9-.1-1.4-.4-.4-.2-.8-.6-1-1.2s-.4-1.2-.4-2.1.1-1.6.4-2.1.6-.9,1-1.2c.4-.2.9-.4,1.4-.4s.9.1,1.4.4c.4.2.8.6,1,1.2.3.5.4,1.2.4,2.1s-.1,1.6-.4,2.1c-.3.5-.6.9-1,1.2-.4.2-.9.4-1.4.4Zm0-.3c.2,0,.4,0,.5-.1.1,0,.3-.3.4-.5,0-.2.2-.6.2-1s0-1,0-1.7,0-1.3,0-1.7c0-.4-.1-.8-.2-1,0-.2-.2-.4-.4-.5-.1,0-.3-.1-.5-.1s-.4,0-.5.1-.3.3-.4.5c0,.2-.2.6-.2,1,0,.4,0,1,0,1.7s0,1.2,0,1.7.1.8.2,1c0,.2.2.4.4.5.2,0,.3.1.5.1Z"/>
      <path class="cls-3" d="m287.6,357.5v-.2h.5c.3-.2.5-.4.5-.7v-5.2h-1c0,.1,0-.1,0-.1.5,0,.9-.2,1.3-.3.4-.1.9-.3,1.2-.5h.1c0,.1,0,1.7,0,1.7v3.1c0,.2,0,.4,0,.7,0,.3,0,.5,0,.7s.2.5.5.6h.5v.3h-3.6Z"/>
      <path class="cls-3" d="m292.7,357.5h-.1c0-.1,4-5.9,4-5.9h-4.8v-1.1h5.4v.7l-2.9,6.3h-1.5Z"/>
    </g>
    <g>
      <path class="cls-3" d="m242.9,234.9c-1.6-1.1-2.8-2.4-3.6-3.9-.8-1.5-1.3-3-1.3-4.8s.4-3.3,1.3-4.8c.8-1.5,2-2.7,3.6-3.9l.4.3c-.8.9-1.4,1.8-1.8,2.7-.4.9-.8,1.8-.9,2.7s-.3,1.9-.3,2.9,0,2,.3,2.9.5,1.8.9,2.7c.4.9,1.1,1.8,1.8,2.7l-.4.3Z"/>
      <path class="cls-3" d="m244.8,231.5v-.4l.8-.2c.5-.2.8-.5.8-1v-9l-1.8.2v-.4c.8-.1,1.6-.3,2.3-.6.8-.2,1.5-.5,2.2-.9l.3.2v2.7c0,0,0,5.4,0,5.4,0,.3,0,.7,0,1.1,0,.4,0,.9,0,1.3s.3.8.8,1l.9.2v.4h-6.2Z"/>
      <path class="cls-3" d="m262,224.2c0,1.3-.3,2.4-1,3.5-.6,1.1-1.6,1.9-2.9,2.7-1.3.7-2.8,1.2-4.6,1.5v-.5c1.1-.3,2.1-.6,2.8-1.1.8-.5,1.4-1,1.8-1.7.4-.7.7-1.5.8-2.4-.3.2-.7.3-1.1.4-.4.1-.9.2-1.5.2s-1.5-.1-2.1-.4c-.6-.3-1.1-.7-1.5-1.2-.4-.5-.6-1.2-.6-2s.2-1.5.7-2.1,1-1.1,1.8-1.4c.7-.3,1.5-.5,2.4-.5,1.6,0,2.8.4,3.7,1.3s1.3,2.1,1.3,3.7Zm-6.9-1.3c0,1.1.2,1.9.6,2.4.4.5,1,.7,1.8.7s1.2-.1,1.7-.3c0-.5,0-1,0-1.5,0-1.1,0-2-.2-2.7-.1-.6-.3-1.1-.6-1.4-.3-.3-.7-.4-1.2-.4s-1.1.2-1.5.8c-.3.5-.5,1.3-.5,2.5Z"/>
      <path class="cls-3" d="m268,231.8c-.9,0-1.7,0-2.3-.3-.6-.2-1.2-.4-1.8-.7l.2-2.5h.6l.7,1.5c.5.9,1.3,1.4,2.4,1.4s1.2-.2,1.6-.7c.4-.5.6-1.2.6-2.3s-.2-1.7-.6-2.1-1-.6-1.8-.6h-1.2v-.6h1.1c.7,0,1.3-.2,1.7-.6.4-.4.6-1.1.6-2s-.2-1.6-.5-2c-.3-.4-.8-.6-1.3-.6s-.9.1-1.3.4c-.3.2-.6.6-.8,1l-.8,1.5h-.6s.2-2.8.2-2.8c.5-.2,1-.3,1.5-.5.6-.1,1.2-.2,1.9-.2,1.5,0,2.6.3,3.3.9.8.6,1.1,1.3,1.1,2.2s-.3,1.2-.8,1.8c-.6.6-1.4,1-2.6,1.2,1.3.1,2.3.5,2.9,1s.9,1.3.9,2.1-.2,1.3-.6,1.8c-.4.5-1,.9-1.8,1.3-.8.3-1.7.5-2.7.5Z"/>
      <path class="cls-3" d="m274.5,231.5v-.4l.8-.2c.5-.2.8-.5.8-1v-9l-1.8.2v-.4c.8-.1,1.6-.3,2.3-.6.8-.2,1.5-.5,2.2-.9l.3.2v2.7c0,0,0,5.4,0,5.4,0,.3,0,.7,0,1.1,0,.4,0,.9,0,1.3s.3.8.8,1l.9.2v.4h-6.2Z"/>
      <path class="cls-3" d="m282,227.1v-.8h5.3v.8h-5.3Z"/>
      <path class="cls-3" d="m289.6,222.6v-2.7c.6-.2,1.1-.4,1.7-.5s1.4-.2,2.1-.2c1.6,0,2.8.3,3.6.9.7.6,1.1,1.4,1.1,2.3s-.4,1.7-1.3,2.5c-.9.8-2.1,1.8-3.8,2.9-.3.2-.7.4-1.1.7s-.8.6-1.2.9h7.7v2.1h-9.2v-1.5c1-.9,2-1.8,2.9-2.6,1-1,1.8-1.8,2.3-2.5.5-.7.7-1.5.7-2.3s-.2-1.5-.5-2c-.4-.5-.9-.8-1.5-.8s-.9,0-1.2.3c-.3.2-.6.5-.9,1l-.8,1.6h-.7Z"/>
      <path class="cls-3" d="m304.6,231.8c-.8,0-1.6-.2-2.4-.6-.7-.4-1.3-1.1-1.8-2-.5-.9-.7-2.1-.7-3.6s.2-2.7.7-3.6c.5-.9,1-1.6,1.8-2,.7-.4,1.5-.6,2.4-.6s1.6.2,2.4.6c.7.4,1.3,1.1,1.8,2s.7,2.1.7,3.6-.2,2.7-.7,3.6-1,1.6-1.8,2c-.7.4-1.5.6-2.4.6Zm0-.5c.4,0,.7,0,.9-.2.3-.2.5-.5.6-.9.2-.4.3-1,.4-1.7,0-.8.1-1.7.1-2.9s0-2.2-.1-2.9c0-.8-.2-1.3-.4-1.8-.2-.4-.4-.7-.6-.9-.3-.2-.6-.2-.9-.2s-.7,0-.9.2c-.3.2-.5.4-.6.9s-.3,1-.3,1.8c0,.8-.1,1.7-.1,2.9s0,2.1.1,2.9c0,.8.2,1.3.3,1.8s.4.7.6.9.6.2.9.2Z"/>
      <path class="cls-3" d="m315.2,231.8c-.8,0-1.6-.2-2.4-.6-.7-.4-1.3-1.1-1.8-2-.5-.9-.7-2.1-.7-3.6s.2-2.7.7-3.6c.5-.9,1-1.6,1.8-2,.7-.4,1.5-.6,2.4-.6s1.6.2,2.4.6c.7.4,1.3,1.1,1.8,2s.7,2.1.7,3.6-.2,2.7-.7,3.6-1,1.6-1.8,2c-.7.4-1.5.6-2.4.6Zm0-.5c.4,0,.7,0,.9-.2.3-.2.5-.5.6-.9.2-.4.3-1,.4-1.7,0-.8.1-1.7.1-2.9s0-2.2-.1-2.9c0-.8-.2-1.3-.4-1.8-.2-.4-.4-.7-.6-.9-.3-.2-.6-.2-.9-.2s-.7,0-.9.2c-.3.2-.5.4-.6.9s-.3,1-.3,1.8c0,.8-.1,1.7-.1,2.9s0,2.1.1,2.9c0,.8.2,1.3.3,1.8s.4.7.6.9.6.2.9.2Z"/>
      <path class="cls-3" d="m326.6,231.5v-3.1h-5.6v-1.2l6.2-8h2v7.7h2v1.5h-2v3.1h-2.6Zm-4.5-4.6h4.5v-5.7l-4.5,5.7Z"/>
      <path class="cls-3" d="m333,217.6c1.6,1.1,2.8,2.4,3.6,3.9.8,1.5,1.3,3,1.3,4.8s-.4,3.3-1.3,4.8c-.8,1.5-2,2.7-3.6,3.9l-.4-.3c.8-.9,1.4-1.8,1.8-2.7.4-.9.8-1.8.9-2.7s.3-1.9.3-2.9,0-2-.3-2.9-.5-1.8-.9-2.7c-.4-.9-1.1-1.8-1.8-2.7l.4-.3Z"/>
    </g>
    <g>
      <path class="cls-3" d="m155.8,261.2v-7.9h2.7c.6,0,1.1,0,1.4.2.4.1.7.4,1,.8.2.4.4.8.4,1.4s-.2,1.3-.6,1.7c-.4.4-1.1.7-2.1.7h-1.8v3.2h-1Zm1-4.1h1.9c.6,0,1-.1,1.3-.4.3-.2.4-.6.4-1.1s0-.6-.2-.8c-.1-.2-.3-.4-.5-.5-.2,0-.5-.1-1-.1h-1.8v2.8Z"/>
      <path class="cls-3" d="m162.6,261.2v-7.9h5.2v.9h-4.3v2.4h4v.9h-4v2.7h4.4v.9h-5.4Z"/>
      <path class="cls-3" d="m169.4,261.2v-7.9h1v7.9h-1Z"/>
      <path class="cls-3" d="m172,261.2v-7.9h1l3.8,6.2v-6.2h.9v7.9h-1l-3.8-6.2v6.2h-.9Z"/>
      <path class="cls-3" d="m181.1,261.2v-6.9h-2.4v-.9h5.7v.9h-2.4v6.9h-1Z"/>
      <path class="cls-3" d="m185.4,261.2v-7.9h3.2c.7,0,1.2,0,1.5.2.3.1.6.4.8.7.2.3.3.7.3,1.2s-.2,1.1-.5,1.4c-.3.4-.8.6-1.5.7.3.1.5.3.6.4.3.3.5.6.7,1l1.3,2.1h-1.2l-1-1.6c-.4-.6-.7-1.1-.8-1.3-.2-.2-.4-.4-.6-.4-.2,0-.4-.1-.7-.1h-1.1v3.5h-1Zm1-4.4h2c.4,0,.8,0,1-.1s.4-.2.6-.5c.1-.2.2-.4.2-.7,0-.4-.1-.7-.4-.9-.3-.2-.6-.3-1.2-.3h-2.3v2.6Z"/>
      <path class="cls-3" d="m192.7,261.2v-7.9h5.2v.9h-4.3v2.4h4v.9h-4v2.7h4.4v.9h-5.4Z"/>
      <path class="cls-3" d="m202.2,261.2v-7.9h5.2v.9h-4.3v2.4h4v.9h-4v2.7h4.4v.9h-5.4Z"/>
      <path class="cls-3" d="m210.8,261.2v-6.9h-2.4v-.9h5.7v.9h-2.4v6.9h-1Z"/>
      <path class="cls-3" d="m216.3,261.2l2.8-7.9h1l2.9,7.9h-1.1l-.8-2.4h-3l-.8,2.4h-1Zm2.1-3.2h2.5l-.7-2.2c-.2-.7-.4-1.2-.5-1.6,0,.5-.2,1-.4,1.5l-.8,2.3Z"/>
      <path class="cls-3" d="m223.8,261.2v-7.9h3.2c.7,0,1.2,0,1.5.2.3.1.6.4.8.7.2.3.3.7.3,1.2s-.2,1.1-.5,1.4c-.3.4-.8.6-1.5.7.3.1.5.3.6.4.3.3.5.6.7,1l1.3,2.1h-1.2l-1-1.6c-.4-.6-.7-1.1-.8-1.3-.2-.2-.4-.4-.6-.4s-.4-.1-.7-.1h-1.1v3.5h-1Zm1-4.4h2c.4,0,.8,0,1-.1s.4-.2.6-.5c.1-.2.2-.4.2-.7,0-.4-.1-.7-.4-.9-.3-.2-.6-.3-1.2-.3h-2.3v2.6Z"/>
      <path class="cls-3" d="m232.8,261.2v-6.9h-2.4v-.9h5.7v.9h-2.4v6.9h-1Z"/>
      <path class="cls-3" d="m237.3,261.2v-7.9h1v7.9h-1Z"/>
      <path class="cls-3" d="m239.5,258.7h.9c0,.3.2.7.3.9.2.2.4.4.7.6.3.1.7.2,1.1.2.6,0,1-.1,1.3-.4s.5-.6.5-1,0-.4-.2-.6c-.1-.2-.3-.3-.5-.4-.2-.1-.7-.3-1.5-.5-.7-.2-1.2-.4-1.4-.5-.3-.2-.5-.4-.7-.7-.2-.3-.2-.6-.2-1,0-.6.2-1.2.7-1.6.5-.4,1.1-.6,1.9-.6s1,0,1.4.3c.4.2.7.5.9.8s.3.8.4,1.3h-.9c0-.4-.2-.8-.5-1.1-.3-.2-.7-.4-1.2-.4s-1,.1-1.2.3c-.3.2-.4.5-.4.8s.1.6.3.7c.2.2.7.4,1.4.5.7.2,1.2.3,1.5.5.4.2.8.5,1,.8.2.3.3.7.3,1.2s-.1.9-.4,1.2-.6.7-1,.8-.9.3-1.5.3c-.9,0-1.6-.2-2.1-.7-.5-.5-.8-1.1-.8-2Z"/>
      <path class="cls-3" d="m248.4,261.2v-6.9h-2.4v-.9h5.7v.9h-2.4v6.9h-1Z"/>
      <path class="cls-3" d="m252.7,261.2v-7.9h5.2v.9h-4.3v2.4h4v.9h-4v2.7h4.4v.9h-5.4Z"/>
      <path class="cls-3" d="m262.2,261.2v-7.9h2.7c.6,0,1.1,0,1.4.2.4.1.7.4,1,.8.2.4.4.8.4,1.4s-.2,1.3-.6,1.7c-.4.4-1.1.7-2.1.7h-1.8v3.2h-1Zm1-4.1h1.9c.6,0,1-.1,1.3-.4s.4-.6.4-1.1,0-.6-.2-.8c-.1-.2-.3-.4-.5-.5-.2,0-.5-.1-1-.1h-1.8v2.8Z"/>
      <path class="cls-3" d="m268.7,257.4c0-1.3.3-2.4,1-3.1.7-.7,1.5-1.1,2.5-1.1s1.2.2,1.7.5c.5.3.9.8,1.2,1.4.3.6.5,1.3.5,2.2s-.3,2.1-.9,2.9c-.7.8-1.5,1.2-2.6,1.2s-1.9-.4-2.6-1.2c-.6-.8-.9-1.7-.9-2.7Zm1,0c0,1,.2,1.7.7,2.3.5.5,1.1.8,1.7.8s1.3-.3,1.8-.8c.5-.5.7-1.3.7-2.4s-.1-1.3-.4-1.8c-.2-.4-.5-.7-.8-1-.4-.2-.8-.4-1.2-.4-.7,0-1.3.3-1.8.8-.5.5-.7,1.4-.7,2.5Z"/>
      <path class="cls-3" d="m276.7,261.2v-7.9h1v6.9h3.5v.9h-4.5Z"/>
      <path class="cls-3" d="m283.6,261.2v-3.3l-2.8-4.5h1.2l1.4,2.4c.3.5.5.9.7,1.3.2-.4.5-.9.8-1.4l1.4-2.3h1.1l-2.9,4.5v3.3h-1Z"/>
      <path class="cls-3" d="m290.4,261.2l-2.8-7.9h1l1.9,5.7c.1.4.3.9.4,1.3.1-.4.2-.9.4-1.3l1.9-5.7h1l-2.8,7.9h-1Z"/>
      <path class="cls-3" d="m293.5,261.2l2.8-7.9h1l2.9,7.9h-1.1l-.8-2.4h-3l-.8,2.4h-1Zm2.1-3.2h2.5l-.7-2.2c-.2-.7-.4-1.2-.5-1.6,0,.5-.2,1-.4,1.5l-.8,2.3Z"/>
      <path class="cls-3" d="m300.9,261.2v-7.9h1v6.9h3.5v.9h-4.5Z"/>
      <path class="cls-3" d="m306.6,261.2v-7.9h5.2v.9h-4.3v2.4h4v.9h-4v2.7h4.4v.9h-5.4Z"/>
      <path class="cls-3" d="m313.3,261.2v-7.9h1l3.8,6.2v-6.2h.9v7.9h-1l-3.8-6.2v6.2h-.9Z"/>
      <path class="cls-3" d="m322.4,261.2v-6.9h-2.4v-.9h5.7v.9h-2.4v6.9h-1Z"/>
      <path class="cls-3" d="m325.7,261.2v-1.1h1v1.1c0,.4,0,.8-.2,1-.1.2-.3.4-.6.6l-.2-.4c.2,0,.3-.2.4-.4,0-.2.1-.4.1-.8h-.5Z"/>
      <path class="cls-3" d="m336.3,258.4l1,.3c-.2.9-.6,1.5-1.1,2-.5.4-1.2.7-1.9.7s-1.2-.1-1.7-.4c-.5-.3-.9-.8-1.2-1.4-.3-.6-.5-1.4-.5-2.3s.2-1.6.5-2.2c.3-.6.7-1.1,1.2-1.4s1.1-.5,1.7-.5,1.3.2,1.8.6c.5.4.8,1,1,1.7l-.9.2c-.3-1.1-1-1.6-1.9-1.6s-.9.1-1.2.3c-.4.2-.6.6-.8,1s-.3,1.1-.3,1.8c0,1.1.2,1.9.6,2.4.4.5,1,.8,1.7.8s1-.2,1.3-.5c.4-.3.6-.8.8-1.5Z"/>
      <path class="cls-3" d="m338.4,261.2v-7.9h3.2c.7,0,1.2,0,1.5.2.3.1.6.4.8.7.2.3.3.7.3,1.2s-.2,1.1-.5,1.4c-.3.4-.8.6-1.5.7.3.1.5.3.6.4.3.3.5.6.7,1l1.3,2.1h-1.2l-1-1.6c-.4-.6-.7-1.1-.8-1.3-.2-.2-.4-.4-.6-.4s-.4-.1-.7-.1h-1.1v3.5h-1Zm1-4.4h2c.4,0,.8,0,1-.1s.4-.2.6-.5c.1-.2.2-.4.2-.7,0-.4-.1-.7-.4-.9-.3-.2-.6-.3-1.2-.3h-2.3v2.6Z"/>
      <path class="cls-3" d="m345.7,261.2v-7.9h5.2v.9h-4.3v2.4h4v.9h-4v2.7h4.4v.9h-5.4Zm2-8.4l.7-1.5h1.2l-1.1,1.5h-.7Z"/>
      <path class="cls-3" d="m351.6,261.2l2.8-7.9h1l2.9,7.9h-1.1l-.8-2.4h-3l-.8,2.4h-1Zm2.1-3.2h2.5l-.7-2.2c-.2-.7-.4-1.2-.5-1.6,0,.5-.2,1-.4,1.5l-.8,2.3Z"/>
      <path class="cls-3" d="m360.2,261.2v-6.9h-2.4v-.9h5.7v.9h-2.4v6.9h-1Z"/>
      <path class="cls-3" d="m364.5,261.2v-7.9h5.2v.9h-4.3v2.4h4v.9h-4v2.7h4.4v.9h-5.4Z"/>
      <path class="cls-3" d="m375.9,253.3h1v4.5c0,.8,0,1.4-.2,1.9-.2.5-.5.9-.9,1.2-.4.3-1,.4-1.7.4s-1.7-.3-2.1-.8c-.5-.5-.7-1.4-.7-2.7v-4.5h1v4.5c0,.7,0,1.2.2,1.5.1.3.3.6.6.7.3.2.6.2,1,.2.7,0,1.2-.2,1.5-.5s.5-1,.5-2v-4.5Z"/>
      <path class="cls-3" d="m378.5,261.2v-7.9h3.2c.7,0,1.2,0,1.5.2.3.1.6.4.8.7.2.3.3.7.3,1.2s-.2,1.1-.5,1.4c-.3.4-.8.6-1.5.7.3.1.5.3.6.4.3.3.5.6.7,1l1.3,2.1h-1.2l-1-1.6c-.4-.6-.7-1.1-.8-1.3-.2-.2-.4-.4-.6-.4-.2,0-.4-.1-.7-.1h-1.1v3.5h-1Zm1-4.4h2c.4,0,.8,0,1-.1s.4-.2.6-.5c.1-.2.2-.4.2-.7,0-.4-.1-.7-.4-.9-.3-.2-.6-.3-1.2-.3h-2.3v2.6Z"/>
      <path class="cls-3" d="m388.5,261.2v-7.9h2.5c.6,0,1.1,0,1.4.1.4.1.8.4,1.1.7s.5.8.7,1.3c.2.5.3,1.1.3,1.8s-.1,1.6-.4,2.3c-.3.6-.7,1.1-1.1,1.3-.5.3-1.1.4-1.8.4h-2.6Zm1-.9h1.5c.6,0,1.1,0,1.4-.3s.6-.5.7-.9c.2-.5.3-1.2.3-1.9s-.1-1.4-.4-1.9c-.2-.5-.6-.8-.9-.9-.3-.1-.7-.2-1.2-.2h-1.5v6Z"/>
      <path class="cls-3" d="m395.6,254.4v-1.1h1v.9c0,.5,0,.9-.2,1.1-.1.2-.3.4-.6.6l-.2-.4c.3-.2.5-.5.5-1.1h-.5Z"/>
      <path class="cls-3" d="m402.7,253.3h1v4.5c0,.8,0,1.4-.2,1.9-.2.5-.5.9-.9,1.2-.4.3-1,.4-1.7.4s-1.7-.3-2.1-.8c-.5-.5-.7-1.4-.7-2.7v-4.5h1v4.5c0,.7,0,1.2.2,1.5.1.3.3.6.6.7.3.2.6.2,1,.2.7,0,1.2-.2,1.5-.5s.5-1,.5-2v-4.5Z"/>
      <path class="cls-3" d="m405.3,261.2v-7.9h1l3.8,6.2v-6.2h.9v7.9h-1l-3.8-6.2v6.2h-.9Z"/>
      <path class="cls-3" d="m412.6,261.2v-7.9h5.2v.9h-4.3v2.4h4v.9h-4v2.7h4.4v.9h-5.4Z"/>
      <path class="cls-3" d="m160.8,273.4c0-1.3.3-2.4,1-3.1.7-.7,1.5-1.1,2.5-1.1s1.2.2,1.7.5.9.8,1.2,1.4c.3.6.5,1.3.5,2.2s-.3,2.1-.9,2.9c-.7.8-1.5,1.2-2.6,1.2s-1.9-.4-2.6-1.2c-.6-.8-.9-1.7-.9-2.7Zm1,0c0,1,.2,1.7.7,2.3.5.5,1.1.8,1.7.8s1.3-.3,1.8-.8c.5-.5.7-1.3.7-2.4s-.1-1.3-.4-1.8c-.2-.4-.5-.7-.8-1-.4-.2-.8-.4-1.2-.4-.7,0-1.3.3-1.8.8-.5.5-.7,1.4-.7,2.5Z"/>
      <path class="cls-3" d="m168.9,277.2v-7.9h5.2v.9h-4.3v2.4h4v.9h-4v2.7h4.4v.9h-5.4Z"/>
      <path class="cls-3" d="m180.3,269.3h1v4.5c0,.8,0,1.4-.2,1.9-.2.5-.5.9-.9,1.2-.4.3-1,.4-1.7.4s-1.7-.3-2.1-.8c-.5-.5-.7-1.4-.7-2.7v-4.5h1v4.5c0,.7,0,1.2.2,1.5.1.3.3.6.6.7.3.2.6.2,1,.2.7,0,1.2-.2,1.5-.5.3-.3.5-1,.5-2v-4.5Z"/>
      <path class="cls-3" d="m184.9,277.2l-2.8-7.9h1l1.9,5.7c.1.4.3.9.4,1.3.1-.4.2-.9.4-1.3l1.9-5.7h1l-2.8,7.9h-1Z"/>
      <path class="cls-3" d="m189.6,277.2v-7.9h3.2c.7,0,1.2,0,1.5.2.3.1.6.4.8.7.2.3.3.7.3,1.2s-.2,1.1-.5,1.4c-.3.4-.8.6-1.5.7.3.1.5.3.6.4.3.3.5.6.7,1l1.3,2.1h-1.2l-1-1.6c-.4-.6-.7-1.1-.8-1.3-.2-.2-.4-.4-.6-.4s-.4-.1-.7-.1h-1.1v3.5h-1Zm1-4.4h2c.4,0,.8,0,1-.1s.4-.2.6-.5c.1-.2.2-.4.2-.7,0-.4-.1-.7-.4-.9-.3-.2-.6-.3-1.2-.3h-2.3v2.6Z"/>
      <path class="cls-3" d="m196.8,277.2v-7.9h5.2v.9h-4.3v2.4h4v.9h-4v2.7h4.4v.9h-5.4Z"/>
      <path class="cls-3" d="m206,273.4c0-1.3.3-2.4,1-3.1.7-.7,1.5-1.1,2.5-1.1s1.2.2,1.7.5c.5.3.9.8,1.2,1.4.3.6.5,1.3.5,2.2s-.3,2.1-.9,2.9c-.7.8-1.5,1.2-2.6,1.2s-1.9-.4-2.6-1.2c-.6-.8-.9-1.7-.9-2.7Zm1,0c0,1,.2,1.7.7,2.3.5.5,1.1.8,1.7.8s1.3-.3,1.8-.8c.5-.5.7-1.3.7-2.4s-.1-1.3-.4-1.8c-.2-.4-.5-.7-.8-1-.4-.2-.8-.4-1.2-.4-.7,0-1.3.3-1.8.8-.5.5-.7,1.4-.7,2.5Z"/>
      <path class="cls-3" d="m214.1,277.2v-7.9h3.2c.7,0,1.2,0,1.5.2.3.1.6.4.8.7.2.3.3.7.3,1.2s-.2,1.1-.5,1.4c-.3.4-.8.6-1.5.7.3.1.5.3.6.4.3.3.5.6.7,1l1.3,2.1h-1.2l-1-1.6c-.4-.6-.7-1.1-.8-1.3-.2-.2-.4-.4-.6-.4s-.4-.1-.7-.1h-1.1v3.5h-1Zm1-4.4h2c.4,0,.8,0,1-.1s.4-.2.6-.5c.1-.2.2-.4.2-.7,0-.4-.1-.7-.4-.9-.3-.2-.6-.3-1.2-.3h-2.3v2.6Z"/>
      <path class="cls-3" d="m221.6,277.2v-7.9h1v7.9h-1Z"/>
      <path class="cls-3" d="m227.6,274.1v-.9h3s0,2.9,0,2.9c-.5.4-1,.7-1.4.9-.5.2-1,.3-1.5.3s-1.3-.2-1.9-.5c-.6-.3-1-.8-1.3-1.4s-.5-1.3-.5-2.2.2-1.6.5-2.2.7-1.1,1.3-1.4,1.1-.5,1.9-.5,1,0,1.4.3c.4.2.7.4,1,.7.3.3.4.8.6,1.3l-.9.3c-.1-.4-.3-.8-.4-1-.2-.2-.4-.4-.7-.5-.3-.1-.6-.2-1-.2-.5,0-1,.1-1.4.3-.4.2-.7.6-.9,1.1s-.3,1.1-.3,1.8c0,1.1.2,1.8.7,2.4.5.5,1.1.8,1.9.8s.8,0,1.2-.2.7-.4.9-.6v-1.5h-2.1Z"/>
      <path class="cls-3" d="m232.2,277.2v-7.9h1v7.9h-1Z"/>
      <path class="cls-3" d="m234.8,277.2v-7.9h1l3.8,6.2v-6.2h.9v7.9h-1l-3.8-6.2v6.2h-.9Z"/>
      <path class="cls-3" d="m241.3,277.2l2.8-7.9h1l2.9,7.9h-1.1l-.8-2.4h-3l-.8,2.4h-1Zm2.1-3.2h2.5l-.7-2.2c-.2-.7-.4-1.2-.5-1.6,0,.5-.2,1-.4,1.5l-.8,2.3Z"/>
      <path class="cls-3" d="m248.7,277.2v-7.9h1v6.9h3.5v.9h-4.5Z"/>
      <path class="cls-3" d="m254.4,277.2v-7.9h5.2v.9h-4.3v2.4h4v.9h-4v2.7h4.4v.9h-5.4Z"/>
      <path class="cls-3" d="m263.9,277.2v-7.9h5.2v.9h-4.3v2.4h4v.9h-4v2.7h4.4v.9h-5.4Z"/>
      <path class="cls-3" d="m272.4,277.2v-6.9h-2.4v-.9h5.7v.9h-2.4v6.9h-1Z"/>
      <path class="cls-3" d="m279.4,277.2v-7.9h5.2v.9h-4.3v2.4h4v.9h-4v2.7h4.4v.9h-5.4Z"/>
      <path class="cls-3" d="m286,277.2v-7.9h1l3.8,6.2v-6.2h.9v7.9h-1l-3.8-6.2v6.2h-.9Z"/>
      <path class="cls-3" d="m301.2,274.4l1,.3c-.2.9-.6,1.5-1.1,2-.5.4-1.2.7-1.9.7s-1.2-.1-1.7-.4c-.5-.3-.9-.8-1.2-1.4-.3-.6-.5-1.4-.5-2.3s.2-1.6.5-2.2c.3-.6.7-1.1,1.2-1.4s1.1-.5,1.7-.5,1.3.2,1.8.6c.5.4.8,1,1,1.7l-.9.2c-.3-1.1-1-1.6-1.9-1.6s-.9.1-1.2.3c-.4.2-.6.6-.8,1s-.3,1.1-.3,1.8c0,1.1.2,1.9.6,2.4.4.5,1,.8,1.7.8s1-.2,1.3-.5c.4-.3.6-.8.8-1.5Z"/>
      <path class="cls-3" d="m303.1,273.4c0-1.3.3-2.4,1-3.1.7-.7,1.5-1.1,2.5-1.1s1.2.2,1.7.5c.5.3.9.8,1.2,1.4.3.6.5,1.3.5,2.2s-.3,2.1-.9,2.9c-.7.8-1.5,1.2-2.6,1.2s-1.9-.4-2.6-1.2c-.6-.8-.9-1.7-.9-2.7Zm1,0c0,1,.2,1.7.7,2.3.5.5,1.1.8,1.7.8s1.3-.3,1.8-.8c.5-.5.7-1.3.7-2.4s-.1-1.3-.4-1.8c-.2-.4-.5-.7-.8-1-.4-.2-.8-.4-1.2-.4-.7,0-1.3.3-1.8.8-.5.5-.7,1.4-.7,2.5Z"/>
      <path class="cls-3" d="m311.2,277.2v-7.9h1l3.8,6.2v-6.2h.9v7.9h-1l-3.8-6.2v6.2h-.9Z"/>
      <path class="cls-3" d="m318.1,274.7h.9c0,.3.2.7.3.9.2.2.4.4.7.6.3.1.7.2,1.1.2.6,0,1-.1,1.3-.4s.5-.6.5-1,0-.4-.2-.6c-.1-.2-.3-.3-.5-.4-.2-.1-.7-.3-1.5-.5-.7-.2-1.2-.4-1.4-.5-.3-.2-.5-.4-.7-.7-.2-.3-.2-.6-.2-1,0-.6.2-1.2.7-1.6.5-.4,1.1-.6,1.9-.6s1,0,1.4.3c.4.2.7.5.9.8s.3.8.4,1.3h-.9c0-.4-.2-.8-.5-1.1-.3-.2-.7-.4-1.2-.4s-1,.1-1.2.3c-.3.2-.4.5-.4.8s.1.6.3.7c.2.2.7.4,1.4.5.7.2,1.2.3,1.5.5.4.2.8.5,1,.8.2.3.3.7.3,1.2s-.1.9-.4,1.2-.6.7-1,.8-.9.3-1.5.3c-.9,0-1.6-.2-2.1-.7-.5-.5-.8-1.1-.8-2Z"/>
      <path class="cls-3" d="m327,277.2v-6.9h-2.4v-.9h5.7v.9h-2.4v6.9h-1Z"/>
      <path class="cls-3" d="m329.8,277.2l2.8-7.9h1l2.9,7.9h-1.1l-.8-2.4h-3l-.8,2.4h-1Zm2.1-3.2h2.5l-.7-2.2c-.2-.7-.4-1.2-.5-1.6,0,.5-.2,1-.4,1.5l-.8,2.3Z"/>
      <path class="cls-3" d="m337.3,277.2v-7.9h1l3.8,6.2v-6.2h.9v7.9h-1l-3.8-6.2v6.2h-.9Z"/>
      <path class="cls-3" d="m346.4,277.2v-6.9h-2.4v-.9h5.7v.9h-2.4v6.9h-1Z"/>
      <path class="cls-3" d="m350.7,277.2v-7.9h5.2v.9h-4.3v2.4h4v.9h-4v2.7h4.4v.9h-5.4Z"/>
      <path class="cls-3" d="m360.2,277.2v-7.9h1.4l1.7,5.6.3,1.2c0-.3.2-.7.4-1.3l1.7-5.5h1.3v7.9h-.9v-6.6l-2.1,6.6h-.9l-2.1-6.7v6.7h-.9Z"/>
      <path class="cls-3" d="m373.3,269.3h1v4.5c0,.8,0,1.4-.2,1.9-.2.5-.5.9-.9,1.2-.4.3-1,.4-1.7.4s-1.7-.3-2.1-.8c-.5-.5-.7-1.4-.7-2.7v-4.5h1v4.5c0,.7,0,1.2.2,1.5.1.3.3.6.6.7.3.2.6.2,1,.2.7,0,1.2-.2,1.5-.5s.5-1,.5-2v-4.5Z"/>
      <path class="cls-3" d="m377.7,277.2v-6.9h-2.4v-.9h5.7v.9h-2.4v6.9h-1Z"/>
      <path class="cls-3" d="m380.5,277.2l2.8-7.9h1l2.9,7.9h-1.1l-.8-2.4h-3l-.8,2.4h-1Zm2.1-3.2h2.5l-.7-2.2c-.2-.7-.4-1.2-.5-1.6,0,.5-.2,1-.4,1.5l-.8,2.3Z"/>
      <path class="cls-3" d="m389.1,277.2v-6.9h-2.4v-.9h5.7v.9h-2.4v6.9h-1Z"/>
      <path class="cls-3" d="m393.5,277.2v-7.9h1v7.9h-1Z"/>
      <path class="cls-3" d="m395.9,273.4c0-1.3.3-2.4,1-3.1.7-.7,1.5-1.1,2.5-1.1s1.2.2,1.7.5c.5.3.9.8,1.2,1.4.3.6.5,1.3.5,2.2s-.3,2.1-.9,2.9c-.7.8-1.5,1.2-2.6,1.2s-1.9-.4-2.6-1.2c-.6-.8-.9-1.7-.9-2.7Zm1,0c0,1,.2,1.7.7,2.3.5.5,1.1.8,1.7.8s1.3-.3,1.8-.8c.5-.5.7-1.3.7-2.4s-.1-1.3-.4-1.8c-.2-.4-.5-.7-.8-1-.4-.2-.8-.4-1.2-.4-.7,0-1.3.3-1.8.8-.5.5-.7,1.4-.7,2.5Z"/>
      <path class="cls-3" d="m404,277.2v-7.9h1l3.8,6.2v-6.2h.9v7.9h-1l-3.8-6.2v6.2h-.9Z"/>
      <path class="cls-3" d="m411.4,277.2v-1.1h1v1.1h-1Z"/>
    </g>
    <g>
      <path class="cls-3" d="m129.8,54.1l2.9-1.5,3.2,6.2,4.5-2.3,1,2-7.3,3.8-4.2-8.3Z"/>
      <path class="cls-3" d="m138.6,49.6l7.8-3.6.8,1.8-4.9,2.3.6,1.3,4.5-2.1.8,1.7-4.5,2.1.8,1.7,5-2.3.9,1.9-7.9,3.7-3.9-8.4Z"/>
      <path class="cls-3" d="m150.3,51l2.7-1.3c.2.4.5.6.8.8.5.2,1,.2,1.5,0,.4-.2.7-.4.9-.7.2-.3.2-.5,0-.8,0-.2-.3-.4-.6-.5-.3,0-.9,0-1.7.1-1.4.3-2.5.3-3.2.1-.7-.2-1.2-.6-1.5-1.3-.2-.4-.2-.9,0-1.4s.4-1,.9-1.5c.5-.5,1.2-.9,2.2-1.3,1.2-.5,2.2-.7,3.1-.6.8.1,1.5.6,2,1.5l-2.7,1.3c-.2-.4-.5-.6-.8-.6-.3,0-.7,0-1.1.2-.3.1-.6.3-.7.5-.1.2-.1.4,0,.6,0,.1.2.2.4.3.2,0,.6,0,1.1-.1,1.4-.3,2.4-.4,3.1-.4.7,0,1.2.2,1.6.4s.7.6.9,1.1c.2.5.3,1.1.1,1.7-.1.6-.5,1.2-1,1.7-.5.5-1.2.9-2.2,1.3-1.6.7-2.9.9-3.7.6-.9-.3-1.5-.9-2-1.7Z"/>
      <path class="cls-3" d="m169.8,43l-.7-1.8,4.7-1.7,1.3,3.7c-.7.9-1.4,1.5-2,2-.6.4-1.4.8-2.3,1.2-1.2.4-2.2.6-3,.5-.9,0-1.6-.4-2.3-1-.7-.6-1.1-1.3-1.5-2.2-.3-1-.4-1.9-.2-2.7.2-.9.6-1.6,1.4-2.3.6-.5,1.4-1,2.5-1.4,1.1-.4,1.9-.6,2.5-.6.6,0,1.1,0,1.6.3.5.2.9.6,1.3,1.1l-2.7,1.5c-.2-.3-.5-.5-.9-.5-.3,0-.7,0-1.2.1-.7.2-1.1.6-1.4,1.2-.2.6-.2,1.3.1,2.2.3.9.8,1.6,1.3,1.8s1.2.3,1.9,0c.3-.1.6-.3.9-.5s.6-.5.9-.8l-.3-.8-2,.7Z"/>
      <path class="cls-3" d="m174.5,35.1l8.2-2.6.6,1.9-5.1,1.6.4,1.4,4.8-1.5.6,1.8-4.8,1.5.6,1.8,5.3-1.7.6,2-8.3,2.6-2.8-8.9Z"/>
      <path class="cls-3" d="m184.8,31.9l2.9-.8,5.1,3.9-1.4-5,2.9-.8,2.5,9-2.9.8-5.1-3.9,1.4,4.9-2.9.8-2.5-9Z"/>
      <path class="cls-3" d="m197.6,34.8l2.9-.9c.2.4.4.7.6.9.4.3.9.4,1.5.2.4-.1.8-.3,1-.5.2-.2.3-.5.2-.7,0-.2-.2-.4-.5-.5-.3-.1-.8-.2-1.7-.1-1.4,0-2.5,0-3.2-.4-.7-.3-1.1-.8-1.3-1.5-.1-.5,0-.9.1-1.4.2-.5.6-.9,1.1-1.3.5-.4,1.3-.7,2.4-.9,1.3-.3,2.3-.3,3.1,0,.8.3,1.3.9,1.7,1.8l-2.9.9c-.2-.4-.4-.6-.7-.8-.3-.1-.7-.1-1.1,0-.4,0-.6.2-.8.4-.2.2-.2.4-.2.6,0,.1.1.3.3.3.2,0,.6.1,1.1,0,1.4,0,2.5,0,3.1.1.7.1,1.2.4,1.5.7.4.3.6.8.7,1.2.1.6,0,1.2-.2,1.7-.2.6-.7,1.1-1.2,1.5-.6.4-1.4.7-2.3,1-1.7.4-3,.4-3.8,0-.8-.4-1.4-1.1-1.7-2Z"/>
      <path class="cls-3" d="m212,25.2l4.7-.9c.9-.2,1.7-.2,2.3,0,.6.1,1.1.4,1.6.7.5.3.8.8,1.1,1.3.3.5.5,1.1.6,1.7.2,1,.2,1.8,0,2.3-.1.6-.4,1.1-.8,1.5-.4.4-.8.8-1.3,1-.7.3-1.3.5-1.8.6l-4.7.9-1.7-9.1Zm3.5,1.5l.9,5h.8c.7-.3,1.1-.4,1.4-.6.3-.2.4-.5.5-.8,0-.4,0-.9,0-1.6-.2-1-.5-1.6-.9-1.9-.4-.3-1-.4-1.9-.2h-.8Z"/>
      <path class="cls-3" d="m223.2,23.1l8.5-1.3.3,2-5.3.8.2,1.5,4.9-.8.3,1.9-4.9.8.3,1.8,5.5-.9.3,2.1-8.6,1.3-1.4-9.2Z"/>
      <path class="cls-3" d="m248.7,27.8c.4.2.7.3.8.4.2,0,.5.2.8.2l-.7,1.7c-.5-.1-.9-.3-1.4-.5-.5-.2-.8-.4-1-.5-.7.3-1.5.6-2.6.7-1.6.2-2.8,0-3.8-.7-1.2-.8-1.8-1.9-2-3.5-.2-1.5.2-2.8,1-3.7.8-.9,2.1-1.5,3.8-1.7,1.7-.2,3.1,0,4.1.8,1,.7,1.6,1.9,1.8,3.4.1,1.4-.1,2.5-.8,3.4Zm-2.6-1.2c.2-.4.3-1.1.2-1.9-.1-.9-.4-1.6-.8-1.9-.4-.4-1-.5-1.7-.4-.6,0-1.1.3-1.5.8-.4.5-.5,1.1-.4,2,.1,1,.4,1.7.8,2.1.4.4,1,.5,1.6.4.2,0,.4,0,.6-.1-.3-.2-.7-.4-1.3-.5l.4-1.1c.3,0,.5,0,.7,0,.2,0,.5.2,1,.4.1,0,.2.1.4.2Z"/>
      <path class="cls-3" d="m257.7,19.1l3.2-.2.4,5.5c0,.5,0,1.1-.2,1.6-.2.5-.4.9-.8,1.3-.4.4-.8.7-1.2.9-.6.3-1.3.4-2.2.5-.5,0-1.1,0-1.7,0-.6,0-1.1-.1-1.5-.3-.4-.2-.8-.4-1.2-.7-.4-.3-.6-.7-.8-1-.2-.6-.4-1.1-.4-1.5l-.4-5.5,3.2-.2.4,5.7c0,.5.2.9.6,1.2.3.3.8.4,1.3.3.6,0,1-.2,1.3-.5.3-.3.4-.7.4-1.2l-.4-5.7Z"/>
      <path class="cls-3" d="m263.2,18.7l8.6-.4v2c0,0-5.3.2-5.3.2v1.5c0,0,5-.2,5-.2v1.9c0,0-4.9.2-4.9.2v1.8c0,0,5.6-.2,5.6-.2v2.1c0,0-8.7.4-8.7.4l-.4-9.3Zm4-2.6h2.5c0-.1-2.2,1.9-2.2,1.9h-1.4c0,0,1.1-1.9,1.1-1.9Z"/>
      <path class="cls-3" d="m273.9,18.3h6c1,0,1.8.1,2.3.6.5.4.8,1,.8,1.6,0,.6-.2,1-.6,1.4-.3.3-.6.5-1.1.6.7.2,1.3.4,1.7.8.4.4.5.9.5,1.5,0,.5-.1.9-.4,1.3-.2.4-.6.7-1,.9-.3.1-.7.2-1.2.3-.7,0-1.2.1-1.4.1h-5.5c0,0-.1-9.2-.1-9.2Zm3.3,3.6h1.4c.5,0,.8-.1,1-.3.2-.2.3-.4.3-.7,0-.3-.1-.5-.3-.6-.2-.2-.5-.2-1-.2h-1.4s0,1.8,0,1.8Zm0,3.7h1.6c.6,0,.9-.1,1.2-.3.2-.2.3-.4.3-.7,0-.3-.1-.5-.3-.7-.2-.2-.6-.2-1.2-.2h-1.6s0,1.9,0,1.9Z"/>
      <path class="cls-3" d="m285.3,18.2h8.6c0,0,0,2.1,0,2.1h-5.4c0,0,0,1.4,0,1.4h5c0,0,0,1.9,0,1.9h-5c0,0,0,1.8,0,1.8h5.5c0,0,0,2.2,0,2.2h-8.7c0,0,0-9.4,0-9.4Z"/>
      <path class="cls-3" d="m302.7,24.2l2.8.9c-.2.7-.5,1.3-1,1.7-.4.5-.9.8-1.6,1-.6.2-1.4.3-2.3.3-1.1,0-2-.2-2.7-.6-.7-.3-1.3-.9-1.8-1.6-.5-.8-.7-1.7-.6-2.9,0-1.5.6-2.7,1.5-3.5s2.3-1.1,3.9-1.1c1.3,0,2.3.3,3,.9s1.2,1.3,1.6,2.3l-2.9.4c0-.3-.2-.5-.3-.6-.2-.2-.4-.4-.6-.5-.3-.1-.5-.2-.9-.2-.7,0-1.3.2-1.7.7-.3.4-.5,1-.5,1.8,0,1,0,1.7.4,2.1.3.4.8.6,1.4.6.6,0,1.1-.1,1.4-.4.3-.3.6-.7.7-1.3Z"/>
      <path class="cls-3" d="m311.3,25.5h3.1c0,.6.1.9.3,1.2.3.4.7.6,1.4.7.5,0,.8,0,1.1-.2.3-.2.4-.4.4-.6,0-.2,0-.5-.3-.7-.2-.2-.7-.4-1.6-.7-1.4-.4-2.3-.9-2.9-1.4-.6-.5-.8-1.1-.7-1.9,0-.5.2-.9.6-1.3.3-.4.8-.7,1.5-.9.6-.2,1.5-.2,2.6-.1,1.3.1,2.3.4,3,.9.7.5,1,1.2,1,2.2h-3c0-.5-.2-.9-.4-1.1-.2-.2-.6-.3-1-.4-.4,0-.7,0-.9.1-.2.1-.3.3-.3.5,0,.1,0,.3.2.4.1.1.5.3,1,.4,1.4.4,2.3.8,2.9,1.1.6.3,1,.7,1.2,1.1.2.4.3.9.3,1.4,0,.6-.3,1.1-.7,1.6-.4.5-1,.8-1.6,1-.7.2-1.5.3-2.5.2-1.8-.2-2.9-.6-3.6-1.2-.6-.7-.9-1.5-.9-2.4Z"/>
      <path class="cls-3" d="m323.1,20.3l8.5,1-.2,2-5.3-.6-.2,1.5,5,.6-.2,1.9-5-.6-.2,1.8,5.5.7-.3,2.1-8.7-1,1.1-9.2Z"/>
      <path class="cls-3" d="m337,28.4l3,.3c0,.4,0,.8.2,1.1.3.4.7.7,1.3.8.5,0,.8,0,1.1-.1.3-.1.4-.3.5-.6,0-.2,0-.5-.2-.7-.2-.2-.7-.5-1.5-.8-1.3-.5-2.3-1-2.8-1.6-.5-.6-.7-1.2-.6-1.9,0-.5.3-.9.7-1.3.4-.4.9-.6,1.5-.8.7-.1,1.5-.1,2.6,0,1.3.2,2.3.6,2.9,1.1.6.5.9,1.3.9,2.3l-3-.3c0-.4-.1-.8-.4-1-.2-.2-.6-.4-1-.5-.4,0-.7,0-.9,0-.2.1-.3.3-.4.5,0,.1,0,.3.2.4.1.1.5.3,1,.5,1.3.5,2.3.9,2.8,1.3.6.4.9.8,1.1,1.2.2.4.3.9.2,1.4,0,.6-.4,1.1-.8,1.5-.4.4-1,.7-1.7.9-.7.1-1.5.1-2.5,0-1.7-.3-2.9-.8-3.5-1.5-.6-.7-.8-1.5-.8-2.5Z"/>
      <path class="cls-3" d="m347.8,28.6c.3-1.5,1-2.6,2.1-3.2,1.1-.6,2.5-.8,4.1-.5,1.7.3,2.9,1,3.7,2,.8,1,1,2.2.7,3.7-.2,1.1-.6,1.9-1.1,2.5-.5.6-1.2,1-2.1,1.2-.8.2-1.8.2-2.9,0-1.1-.2-2.1-.6-2.8-1.1-.7-.5-1.2-1.1-1.5-1.9-.3-.8-.4-1.7-.2-2.8Zm3.1.6c-.2.9-.1,1.6.2,2.1.3.5.8.8,1.4.9.7.1,1.2,0,1.7-.3.4-.3.8-1,1-2,.2-.9.1-1.5-.2-2-.3-.5-.8-.8-1.5-.9-.6-.1-1.2,0-1.6.3-.5.3-.8,1-1,1.9Z"/>
      <path class="cls-3" d="m367.8,28.1l3.1.7-1.3,5.4c-.1.5-.3,1-.6,1.5-.3.4-.7.8-1.2,1-.5.3-1,.4-1.4.5-.7,0-1.4,0-2.3-.2-.5-.1-1-.3-1.6-.5-.6-.2-1-.4-1.4-.7-.3-.3-.6-.6-.9-1-.2-.4-.4-.8-.4-1.2,0-.6,0-1.2,0-1.6l1.3-5.4,3.1.7-1.3,5.5c-.1.5,0,.9.2,1.3s.6.6,1.2.7c.5.1,1,0,1.4-.1.4-.2.6-.6.7-1.1l1.3-5.5Z"/>
      <path class="cls-3" d="m372.2,29.1l3.2.9.5,7.1,4-5.9,3.1.9-6.2,8-3.4-.9-1.3-10Z"/>
      <path class="cls-3" d="m384.3,32.5l3.1.9-2.7,8.9-3.1-.9,2.7-8.9Z"/>
      <path class="cls-3" d="m389.8,34.2l8.2,2.7-.6,1.9-5.1-1.7-.5,1.4,4.7,1.6-.6,1.8-4.7-1.6-.6,1.7,5.3,1.7-.7,2-8.3-2.7,2.9-8.8Z"/>
      <path class="cls-3" d="m400,37.6l2.8,1,1.9,6.2,1.8-4.8,2.8,1-3.2,8.7-2.8-1-1.9-6.1-1.8,4.8-2.8-1,3.2-8.7Z"/>
      <path class="cls-3" d="m411.6,41.9l2.8,1.2,1.6,6.3,2-4.8,2.8,1.2-3.6,8.6-2.8-1.2-1.6-6.2-2,4.7-2.8-1.2,3.6-8.6Z"/>
      <path class="cls-3" d="m422.9,46.7l7.8,3.6-.8,1.8-4.9-2.3-.6,1.3,4.5,2.1-.8,1.7-4.5-2.1-.8,1.7,5,2.3-.9,1.9-7.9-3.7,3.9-8.4Z"/>
      <path class="cls-3" d="m432.7,51.3l2.7,1.4,1.1,6.4,2.4-4.6,2.7,1.4-4.2,8.3-2.7-1.4-1.1-6.3-2.3,4.5-2.7-1.4,4.3-8.3Z"/>
      <path class="cls-3" d="m443,56.6l8.5,4.8-1.1,2-2.8-1.6-3.5,6.1-2.8-1.6,3.5-6.1-2.8-1.6,1.1-2Z"/>
    </g>
    <g>
      <path class="cls-4" d="m252,71.7l-3.6-10.9,1.4-.5,3.6,10.9-1.4.5Z"/>
      <path class="cls-4" d="m262.4,64.8h1.5c0,1.4-.4,2.4-1,3.2-.6.8-1.5,1.3-2.7,1.6-1,.2-1.9.2-2.7,0s-1.5-.8-2.2-1.6c-.7-.8-1.2-1.8-1.4-3.1-.3-1.2-.3-2.3,0-3.3.3-1,.7-1.7,1.4-2.4.7-.6,1.5-1,2.4-1.3,1-.2,2-.2,2.9.2.9.4,1.6,1,2.2,2l-1.3.7c-.8-1.4-2-2-3.4-1.6-.7.2-1.3.5-1.8.9-.5.4-.8,1-.9,1.8s-.1,1.6.1,2.6c.4,1.5,1,2.6,1.8,3.2.8.6,1.8.8,2.8.5.8-.2,1.4-.6,1.9-1.2.5-.6.7-1.4.6-2.4Z"/>
      <path class="cls-4" d="m266.7,68.1l-1.8-11.3,1.5-.2,1.8,11.3-1.5.2Z"/>
      <path class="cls-4" d="m277.9,66.9l-4.9-11.2h1.6c0,0,3.3,8.1,3.3,8.1.3.6.5,1.2.7,1.8.1-.6.3-1.3.5-1.9l2.6-8.5h1.5c0,0-3.7,11.6-3.7,11.6h-1.5Z"/>
      <path class="cls-4" d="m284.8,66.6l.4-11.4,8,.3v1.4s-6.6-.2-6.6-.2v3.5c-.1,0,6,.2,6,.2v1.4s-6.2-.2-6.2-.2v3.9c-.1,0,6.7.2,6.7.2v1.4s-8.3-.3-8.3-.3Zm3.5-12.1l1.1-2.2h1.8c0,0-1.7,2.2-1.7,2.2h-1.1Z"/>
      <path class="cls-4" d="m303.2,64l1.4.6c-.5,1.2-1.2,2.1-2.1,2.6-.9.5-1.9.7-3.1.6-1-.1-1.9-.4-2.5-1-.7-.5-1.2-1.3-1.5-2.2-.3-1-.4-2.1-.3-3.4.2-1.3.5-2.3,1.1-3.1.6-.8,1.3-1.4,2.1-1.7.8-.3,1.8-.5,2.7-.3,1.1.1,1.9.5,2.6,1.2.7.7,1.1,1.5,1.3,2.7l-1.5.2c-.3-1.6-1.2-2.5-2.7-2.7-.7,0-1.4,0-2,.2-.6.3-1.1.7-1.5,1.3s-.7,1.5-.8,2.5c-.2,1.6,0,2.8.5,3.6.6.9,1.4,1.4,2.4,1.5.8,0,1.5,0,2.2-.5.6-.4,1.1-1.1,1.4-2Z"/>
      <path class="cls-4" d="m315.4,58.9l1.4.3-1.5,6.4c-.2,1.1-.6,1.9-1,2.6s-1,1.1-1.7,1.3c-.7.2-1.6.3-2.6,0-1.4-.3-2.4-.9-3-1.8-.5-.9-.6-2.2-.2-4.1l1.5-6.5,1.4.3-1.5,6.4c-.2,1-.3,1.8-.2,2.3,0,.5.3.9.7,1.2.4.3.9.6,1.5.7,1,.2,1.8.2,2.4-.2.6-.4,1-1.3,1.3-2.7l1.5-6.4Z"/>
      <path class="cls-4" d="m319,72l3.3-9.5-3.5-1.2.4-1.3,8.3,2.9-.4,1.3-3.5-1.2-3.3,9.5-1.4-.5Z"/>
    </g>
    <g>
      <path class="cls-3" d="m296.2,314.9h.7c-.1.5-.4.8-.7,1-.3.2-.6.3-1,.3s-.8-.1-1-.4c-.2-.3-.4-.6-.4-1.1s0-.8.2-1.1.4-.6.7-.8c.3-.2.6-.3,1-.3s.7.1.9.3c.2.2.4.5.4.8h-.7c0-.1-.1-.3-.2-.4s-.3-.1-.4-.1-.4,0-.6.2c-.2.1-.3.3-.4.6s-.2.5-.2.8,0,.5.2.7.3.2.5.2.4,0,.5-.2c.2-.1.3-.3.4-.5Z"/>
      <path class="cls-3" d="m297.8,313.6h.7l-.3,1.5c0,.2,0,.3,0,.3,0,0,0,.1,0,.2,0,0,.1,0,.2,0s.1,0,.2,0,.1,0,.2-.1.1-.1.2-.2,0-.1.1-.2c0,0,0-.2.1-.4l.3-1.2h.7l-.5,2.6h-.7v-.4c-.2.3-.5.4-.9.4s-.4,0-.5-.2c-.1-.1-.2-.3-.2-.5s0-.3,0-.5l.3-1.4Z"/>
      <path class="cls-3" d="m300.3,316.2l.8-3.6h.7l-.7,3.6h-.7Z"/>
      <path class="cls-3" d="m301.9,314.2v-.5h.4v-.4c0,0,.9-.5.9-.5l-.2.9h.4v.5h-.5l-.2,1.1c0,.2,0,.3,0,.3,0,0,0,0,0,.1,0,0,0,0,.2,0s.1,0,.2,0v.5c-.2,0-.4,0-.5,0-.2,0-.4,0-.5-.1-.1,0-.2-.2-.2-.4s0-.3,0-.6l.2-1h-.3Z"/>
      <path class="cls-3" d="m303.9,313.6h.7l-.3,1.5c0,.2,0,.3,0,.3,0,0,0,.1,0,.2,0,0,.1,0,.2,0s.1,0,.2,0,.1,0,.2-.1.1-.1.2-.2,0-.1.1-.2c0,0,0-.2.1-.4l.3-1.2h.7l-.5,2.6h-.7v-.4c-.2.3-.5.4-.9.4s-.4,0-.5-.2c-.1-.1-.2-.3-.2-.5s0-.3,0-.5l.3-1.4Z"/>
      <path class="cls-3" d="m306.9,313.6h.7v.5c.1-.4.4-.6.7-.6s.2,0,.3,0l-.3.6c0,0-.1,0-.2,0-.1,0-.2,0-.4.1-.1,0-.2.2-.3.4s-.1.4-.2.7l-.2.8h-.7l.5-2.6Z"/>
      <path class="cls-3" d="m310.9,315.2h-1.8s0,0,0,0c0,.2,0,.3.1.4,0,.1.2.2.4.2.2,0,.4-.1.5-.4h.6c-.1.4-.3.5-.5.7s-.4.2-.7.2-.6-.1-.8-.3c-.2-.2-.3-.5-.3-.9s0-.7.3-.9c.3-.4.7-.6,1.2-.6s.6,0,.8.3c.2.2.3.5.3.8s0,.3,0,.5Zm-.6-.4s0,0,0,0c0-.2,0-.3-.1-.4,0,0-.2-.1-.3-.1s-.3,0-.4.2c-.1.1-.2.3-.2.5h1.1Z"/>
      <path class="cls-3" d="m296.2,321.2h-1.8s0,0,0,0c0,.2,0,.3.1.4,0,.1.2.2.4.2.2,0,.4-.1.5-.4h.6c-.1.4-.3.5-.5.7s-.4.2-.7.2-.6-.1-.8-.3c-.2-.2-.3-.5-.3-.9s0-.7.3-.9c.3-.4.7-.6,1.2-.6s.6,0,.8.3c.2.2.3.5.3.8s0,.3,0,.5Zm-.6-.4s0,0,0,0c0-.2,0-.3-.1-.4,0,0-.2-.1-.3-.1s-.3,0-.4.2c-.1.1-.2.3-.2.5h1.1Z"/>
      <path class="cls-3" d="m296.6,320.2v-.5h.4v-.4c0,0,.9-.5.9-.5l-.2.9h.4v.5h-.5l-.2,1.1c0,.2,0,.3,0,.3,0,0,0,0,0,.1,0,0,0,0,.2,0s.1,0,.2,0v.5c-.2,0-.4,0-.5,0-.2,0-.4,0-.5-.1-.1,0-.2-.2-.2-.4s0-.3,0-.6l.2-1h-.3Z"/>
      <path class="cls-3" d="m301.2,321.3h.7c-.1.4-.3.6-.5.8-.2.2-.5.2-.8.2s-.6,0-.8-.3-.3-.5-.3-.8,0-.5.2-.8.3-.4.5-.6c.2-.1.5-.2.8-.2s.5,0,.7.2c.2.2.3.4.3.6h-.7c0,0,0-.2-.1-.2s-.2-.1-.3-.1-.3,0-.4.2c-.1.1-.2.3-.3.5s0,.4,0,.6,0,.3.1.4c0,0,.2.1.3.1s.2,0,.3-.1.2-.2.2-.4Z"/>
      <path class="cls-3" d="m302.4,321.2c0-.5.1-.9.4-1.1.3-.3.6-.4,1.1-.4s.7.1.9.3.3.5.3.9-.1.8-.4,1.1c-.3.3-.6.5-1.1.5s-.5,0-.6-.1-.3-.2-.4-.4c0-.2-.1-.4-.1-.6Zm2-.5c0-.2,0-.3-.1-.4,0,0-.2-.2-.4-.2s-.3,0-.4.1-.2.2-.3.4c0,.2,0,.3,0,.5s0,.3.2.4.2.2.4.2.4,0,.5-.2c.2-.2.3-.5.3-.8Z"/>
      <path class="cls-3" d="m305.8,319.6h.7v.3c.2-.3.5-.4.7-.4s.3,0,.5.1c.1,0,.2.2.2.3,0-.1.2-.2.4-.3s.3-.1.5-.1.4,0,.5.2c.1.1.2.3.2.4s0,.2,0,.5l-.3,1.6h-.7l.3-1.6c0-.2,0-.3,0-.3,0,0,0-.1,0-.2,0,0-.1,0-.2,0-.2,0-.3,0-.5.3,0,.1-.2.4-.3.7l-.2,1.2h-.7l.3-1.6c0-.2,0-.3,0-.4s0-.1,0-.2c0,0-.1,0-.2,0s-.2,0-.2,0c0,0-.2.1-.2.2,0,0-.1.2-.2.3,0,0,0,.2,0,.4l-.2,1.2h-.7l.5-2.6Z"/>
      <path class="cls-3" d="m310.3,319.6h.7v.3c.2-.3.5-.4.7-.4s.3,0,.5.1c.1,0,.2.2.2.3,0-.1.2-.2.4-.3s.3-.1.5-.1.4,0,.5.2c.1.1.2.3.2.4s0,.2,0,.5l-.3,1.6h-.7l.3-1.6c0-.2,0-.3,0-.3,0,0,0-.1,0-.2,0,0-.1,0-.2,0-.2,0-.3,0-.5.3,0,.1-.2.4-.3.7l-.2,1.2h-.7l.3-1.6c0-.2,0-.3,0-.4s0-.1,0-.2c0,0-.1,0-.2,0s-.2,0-.2,0c0,0-.2.1-.2.2,0,0-.1.2-.2.3,0,0,0,.2,0,.4l-.2,1.2h-.7l.5-2.6Z"/>
      <path class="cls-3" d="m314.7,319.6h.7l-.3,1.5c0,.2,0,.3,0,.3,0,0,0,.1,0,.2,0,0,.1,0,.2,0s.1,0,.2,0,.1,0,.2-.1.1-.1.2-.2,0-.1.1-.2c0,0,0-.2.1-.4l.3-1.2h.7l-.5,2.6h-.7v-.4c-.2.3-.5.4-.9.4s-.4,0-.5-.2c-.1-.1-.2-.3-.2-.5s0-.3,0-.5l.3-1.4Z"/>
      <path class="cls-3" d="m317.8,319.6h.7v.3c0-.1.3-.2.4-.3.1,0,.3,0,.5,0s.4,0,.5.2.2.3.2.5,0,.3,0,.5l-.3,1.5h-.7l.3-1.5c0-.2,0-.4,0-.4,0,0,0-.2,0-.2,0,0-.1,0-.2,0s-.2,0-.3.1c-.1,0-.2.2-.3.3,0,.1-.1.3-.2.6l-.2,1.1h-.7l.5-2.6Z"/>
      <path class="cls-3" d="m320.9,319.6h.7l-.5,2.6h-.7l.5-2.6Zm.2-1h.7v.6h-.8v-.6Z"/>
      <path class="cls-3" d="m323.5,321.3h.7c-.1.4-.3.6-.5.8-.2.2-.5.2-.8.2s-.6,0-.8-.3-.3-.5-.3-.8,0-.5.2-.8.3-.4.5-.6c.2-.1.5-.2.8-.2s.5,0,.7.2c.2.2.3.4.3.6h-.7c0,0,0-.2-.1-.2s-.2-.1-.3-.1-.3,0-.4.2c-.1.1-.2.3-.3.5,0,.2,0,.4,0,.6s0,.3.1.4c0,0,.2.1.3.1s.2,0,.3-.1.2-.2.2-.4Z"/>
      <path class="cls-3" d="m325.5,320.4h-.7c0-.3.2-.5.4-.6.2-.1.5-.2.8-.2s.6,0,.7.2c.2.1.2.3.2.5s0,.2,0,.2,0,.3-.1.7c0,.3-.1.5-.1.6s0,.2,0,.4h-.7c0,0,0-.2,0-.3-.1.1-.2.2-.4.3-.1,0-.3,0-.4,0-.2,0-.4,0-.5-.2s-.2-.3-.2-.5,0-.4.2-.6c.2-.1.4-.2.8-.3.3,0,.6,0,.7-.1,0,0,0-.2,0-.2s0-.1,0-.2c0,0-.2,0-.3,0s-.2,0-.3,0c0,0-.1.1-.1.2Zm.7.6s0,0-.2,0c-.4,0-.6.1-.7.2,0,0-.1.1-.1.2s0,.1,0,.2c0,0,.1,0,.2,0s.2,0,.3,0c0,0,.2-.1.2-.2,0,0,0-.2.1-.4h0Z"/>
      <path class="cls-3" d="m327.4,320.2v-.5h.4v-.4c0,0,.9-.5.9-.5l-.2.9h.4v.5h-.5l-.2,1.1c0,.2,0,.3,0,.3,0,0,0,0,0,.1,0,0,0,0,.2,0s.1,0,.2,0v.5c-.2,0-.4,0-.5,0-.2,0-.4,0-.5-.1-.1,0-.2-.2-.2-.4s0-.3,0-.6l.2-1h-.3Z"/>
      <path class="cls-3" d="m329.5,319.6h.7l-.5,2.6h-.7l.5-2.6Zm.2-1h.7v.6h-.8v-.6Z"/>
      <path class="cls-3" d="m330.4,321.2c0-.5.1-.9.4-1.1.3-.3.6-.4,1.1-.4s.7.1.9.3.3.5.3.9-.1.8-.4,1.1c-.3.3-.6.5-1.1.5s-.5,0-.6-.1-.3-.2-.4-.4c0-.2-.1-.4-.1-.6Zm2-.5c0-.2,0-.3-.1-.4,0,0-.2-.2-.4-.2s-.3,0-.4.1-.2.2-.3.4c0,.2,0,.3,0,.5s0,.3.2.4.2.2.4.2.4,0,.5-.2c.2-.2.3-.5.3-.8Z"/>
      <path class="cls-3" d="m333.9,319.6h.7v.3c0-.1.3-.2.4-.3.1,0,.3,0,.5,0s.4,0,.5.2.2.3.2.5,0,.3,0,.5l-.3,1.5h-.7l.3-1.5c0-.2,0-.4,0-.4,0,0,0-.2,0-.2,0,0-.1,0-.2,0s-.2,0-.3.1c-.1,0-.2.2-.3.3,0,.1-.1.3-.2.6l-.2,1.1h-.7l.5-2.6Z"/>
      <path class="cls-3" d="m336.3,321.5h.7c0,0,.1.1.2.2,0,0,.2,0,.4,0s.3,0,.4-.1c0,0,.1-.1.1-.2s0,0,0-.1c0,0-.1,0-.3-.1-.4-.1-.7-.2-.8-.3-.2-.1-.2-.3-.2-.5s0-.4.2-.5c.2-.2.5-.3,1-.3s.6,0,.8.2c.2.1.3.3.3.5h-.6s0,0-.2-.1c-.1,0-.2,0-.4,0s-.3,0-.3,0,0,.1,0,.2,0,.1,0,.2c0,0,.2,0,.4.1.3,0,.6.2.7.3.2.1.2.3.2.5s-.1.5-.3.6c-.2.2-.5.3-.9.3s-.7,0-.9-.2-.3-.3-.4-.6Z"/>
    </g>
  </g>
  <g id="logoQc">
    <g>
      <g>
        <path class="cls-3" d="m320.8,333.8v-5.5h0c-.2.2-.9.2-1.2.2h-.5c.6.4.5,1,.5,1.7v2.3c0,1.2-1.1,2-2.1,2s-1.7-.9-1.7-2.3v-3.9h0c-.2.2-.9.2-1.2.2h-.5c.6.4.5,1,.5,1.7v2.3c0,2.1.9,3.1,2.6,3.1s2-.3,2.5-1.2v1h1.8c-.6-.4-.5-1-.5-1.7Z"/>
        <path class="cls-3" d="m323.6,330.9c.2-.9.9-1.6,1.8-1.6s1.7.5,1.8,1.6h-3.6Zm5.1.9c0-2-1.2-3.4-3.2-3.4s-3.5,1.5-3.5,3.6,1.6,3.7,4,3.7,1.3-.1,1.9-.4l.7-1.4h0c-.6.5-1.5.8-2.3.8-1.6,0-2.8-1.1-2.8-2.9h5.1Z"/>
        <path class="cls-3" d="m329.8,325.1c.3,0,1,0,1.2-.2h0v9.6c.4.1.8.2,1.2.2,1.5,0,2.4-1.1,2.4-2.6s-.7-2.6-2.1-2.6-.8.1-1.2.3l.8-1.3c.3-.1.7-.2,1-.2,1.6,0,2.9,1.4,2.9,3.4s-1.6,3.9-4.1,3.9-1.9-.2-2.5-.3h0c.5-.3.4-.8.4-1.3v-7c0-.7,0-1.7-.5-2.1h0s.5,0,.5,0Z"/>
        <path class="cls-3" d="m338.5,330.9c.2-.9.9-1.6,1.8-1.6s1.7.5,1.8,1.6h-3.6Zm5.1.9c0-2-1.2-3.4-3.2-3.4s-3.5,1.5-3.5,3.6,1.6,3.7,4,3.7,1.3-.1,1.9-.4l.7-1.4h0c-.6.5-1.5.8-2.3.8-1.6,0-2.8-1.1-2.8-2.9h5.1Z"/>
        <path class="cls-3" d="m349.9,330.1h0c-.4-.5-1.1-.7-1.7-.7-1.4,0-2.3,1-2.3,2.5s1.4,2.9,2.9,2.9,1.5-.3,2-.7h0l-.7,1.4c-.6.2-1.2.3-1.9.3-2.2,0-3.8-1.5-3.8-3.5s1.9-3.9,4-3.9,1,0,1.5.2v1.6Z"/>
        <path class="cls-5" d="m326.9,327.1v-1.5c-.9.4-1.8,1.2-2.3,1.9v.6c1.4-.9,2.3-1,2.3-1Z"/>
        <path class="cls-3" d="m308.1,334.6c-2.1,0-3.6-2.4-3.6-4.4s0-.2,0-.2c0-2,1.3-3.8,3.5-3.8s3.5,2.2,3.6,4.3v.2c0,2.2-1.4,3.9-3.5,3.9Zm7.3,2.3c-1.6.3-3.1-.2-4.7-2.1,1.5-.8,2.5-2.7,2.5-4.5s0-.2,0-.2c0-3.1-2.3-5.1-5.1-5.1s-5.2,2.1-5.2,5.2c0,0,0,.2,0,.2,0,3,2.2,5.2,5,5.2s.8,0,1.1-.2c1.8,1.7,3.4,2.4,4.8,2.2.7,0,1.3-.3,1.8-.9h-.2Z"/>
      </g>
      <g>
        <rect class="cls-3" x="353.3" y="325.1" width="6.8" height="4.2"/>
        <path class="cls-12" d="m356.7,325.3c0,0-.2.2-.3.5-.2.3-.2.6,0,.9.1.2.2.5.2.6,0,.3,0,.7,0,.6h-.2c0-.5-.1-.9-.5-1.1-.5-.3-1,.2-.8.7,0,.3.2.3.3.3,0,0,0-.3.1-.4.2-.1.4,0,.5.1.1.2.1.4.1.4h-.4v.3h.7s0,.4-.4.3c0,0,0,.3.4.1,0,0,0,.3.2.5h0c.2-.2.2-.5.2-.5.4.2.4-.1.4-.1-.4,0-.4-.3-.4-.3h.7s0-.3,0-.3h-.4s0-.2.1-.4c.1-.2.4-.2.5-.1.2.1.1.4.1.4,0,0,.2,0,.3-.3.2-.5-.3-1-.8-.7-.4.2-.5.6-.5,1.1h-.2s0-.3,0-.6c0-.2.1-.4.2-.6.1-.2.1-.6,0-.9-.2-.2-.3-.4-.4-.5Z"/>
        <rect class="cls-3" x="362.1" y="325.1" width="6.8" height="4.2"/>
        <path class="cls-12" d="m365.5,325.3c0,0-.2.2-.4.5-.2.3-.2.6,0,.9.1.2.2.5.2.6,0,.3,0,.7,0,.6h-.2c0-.5-.1-.9-.5-1.1-.5-.3-1,.2-.8.7,0,.3.2.3.3.3,0,0,0-.3.1-.4.2-.1.4,0,.5.1.1.2.1.4.1.4h-.4v.3h.7s0,.4-.4.3c0,0,0,.3.4.1,0,0,0,.3.2.5h0c.2-.2.2-.5.2-.5.4.2.4-.1.4-.1-.4,0-.4-.3-.4-.3h.7s0-.3,0-.3h-.4s0-.2.1-.4c.1-.2.4-.2.5-.1.2.1.1.4.1.4,0,0,.2,0,.3-.3.2-.5-.3-1-.8-.7-.3.2-.5.6-.5,1.1h-.2s0-.3,0-.6c0-.2.1-.4.2-.6.1-.2.1-.6,0-.9-.2-.2-.3-.4-.3-.5Z"/>
      </g>
      <g>
        <rect class="cls-3" x="353.3" y="331.3" width="6.8" height="4.2"/>
        <path class="cls-12" d="m356.7,331.5c0,0-.2.2-.3.5-.2.3-.2.6,0,.8.1.2.2.5.2.7,0,.3,0,.7,0,.6h-.2c0-.5-.1-.9-.5-1.1-.5-.3-1,.2-.8.7,0,.3.2.3.3.3,0,0,0-.3.1-.4.2-.1.4,0,.5.1.1.2.1.4.1.4h-.4v.3h.7s0,.4-.4.3c0,0,0,.3.4.1,0,0,0,.3.2.5h0c.2-.2.2-.5.2-.5.4.2.4-.1.4-.1-.4,0-.4-.3-.4-.3h.7v-.3h-.4s0-.2.1-.4c.1-.2.4-.2.5-.1.2.1.1.4.1.4,0,0,.2,0,.3-.3.2-.5-.3-1-.8-.7-.4.2-.5.6-.5,1.1h-.2s0-.3,0-.6c0-.2.1-.4.2-.7.1-.2.1-.6,0-.8-.2-.2-.3-.4-.4-.5Z"/>
        <rect class="cls-3" x="362.1" y="331.3" width="6.8" height="4.2"/>
        <path class="cls-12" d="m365.5,331.5c0,0-.2.2-.4.5-.2.3-.2.6,0,.8.1.2.2.5.2.7,0,.3,0,.7,0,.6h-.2c0-.5-.1-.9-.5-1.1-.5-.3-1,.2-.8.7,0,.3.2.3.3.3,0,0,0-.3.1-.4.2-.1.4,0,.5.1.1.2.1.4.1.4h-.4v.3h.7s0,.4-.4.3c0,0,0,.3.4.1,0,0,0,.3.2.5h0c.2-.2.2-.5.2-.5.4.2.4-.1.4-.1-.4,0-.4-.3-.4-.3h.7v-.3h-.4s0-.2.1-.4c.1-.2.4-.2.5-.1.2.1.1.4.1.4,0,0,.2,0,.3-.3.2-.5-.3-1-.8-.7-.3.2-.5.6-.5,1.1h-.2s0-.3,0-.6c0-.2.1-.4.2-.7.1-.2.1-.6,0-.8-.2-.2-.3-.4-.3-.5Z"/>
      </g>
    </g>
    <g>
      <g>
        <path class="cls-3" d="m243.3,319.3c0,0,.4.1.4.4v3.5h3l.3-1s0,0-.2,0c-.1.2-.3.6-.9.6h-1.4v-1.5h1.6v-.4h-1.6v-1.3h1.6c.3,0,.4.2.6.3,0,0,0,0,0,0l-.2-.6h-3.2Z"/>
        <path class="cls-3" d="m240.6,323.1c.4,0,.8,0,1.1-.2.7-.3,1.2-1,1.2-1.8,0-1.2-.9-1.9-2.5-1.9h-1.5c0,.2.4.2.4.4v3.5h1.2Zm.9-.5c-.2.1-.5.2-.7.2h-.7v-3.2h0c1.8,0,2.1,1,2.1,1.7s-.4,1.1-.8,1.4Z"/>
        <path class="cls-3" d="m219.1,318.4c0,0,.4,0,.5.4l1.8,4.3h.5l1.8-4.8h-1c0,.2.4.1.4.3,0,0,0,.3-.1.5l-1.2,3.1h0l-1.6-3.9h-1.1Z"/>
        <path class="cls-3" d="m233.3,319.3c0,0,.4.1.4.4v3.5h3l.3-1s0,0-.2,0c-.1.2-.3.6-.9.6h-1.4v-1.5h1.6v-.4h-1.6v-1.3h1.6c.3,0,.4.2.6.3,0,0,0,0,0,0l-.2-.6h-3.2Z"/>
        <path class="cls-3" d="m229.7,319.2h0c0,.2.4.2.4.4v3.5h2.8l.3-1s0,0-.2,0c-.1.2-.3.6-.9.6h-1.2v-3.5h-1.2Z"/>
        <path class="cls-3" d="m226.1,319.2h0c0,.2.4.2.4.4v3.5h2.8l.3-1s0,0-.2,0c-.1.2-.3.6-.9.6h-1.2v-3.5h-1.2Z"/>
        <path class="cls-3" d="m225.2,323.1v-3.9h-1.2c0,.2.4.2.4.4v3.5h.7Z"/>
      </g>
      <g>
        <path class="cls-3" d="m243.5,326.5c.4,0,2-1,3.1-1.5h-1.8l-1.6,1.4s.1.1.3,0Z"/>
        <path class="cls-3" d="m237,327.2h0c0,.3.9.4.9.8v4.2c0,1.3-1,2.1-2.2,2.1s-2.2-.8-2.2-2.1v-5h-2.2c0,.3.7.4.7.9v3.9c0,1.9,1.3,3,3.6,3s1.8-.4,2.3-.9v.8h2.2c0-.3-.7-.4-.7-.9v-6.7h-2.4Z"/>
        <path class="cls-3" d="m272.5,329.2c0-.6-.1-1.2-.1-1.8-.7-.3-1.5-.4-2.2-.4-2.4,0-5.1,1.3-5.1,4.1s2.6,4,4.5,4,2.4-.3,3.2-.9v-.7c-.8.4-1.7.8-2.7.8-2,0-3.6-1.7-3.6-3.6s1.3-2.9,3.4-2.9,1.5.2,2,.6c.3.2.4.8.6.8h.1Z"/>
        <path class="cls-3" d="m240.8,327.4c0,.2.9.3.9.7v6.8h6.2l.5-2s-.2,0-.3.1c-.3.3-.6,1.2-2,1.2h-3v-3h3.3v-.7h-3.3v-2.6h3.2c.6,0,.9.4,1.3.5,0,0,.2,0,.2,0l-.5-1.2h-6.6Z"/>
        <path class="cls-3" d="m256.8,327.4c0,.2.9.3.9.7v6.8h6.2l.5-2s-.2,0-.3.1c-.3.3-.6,1.2-2,1.2h-3v-3h3.3v-.7h-3.3v-2.6h3.2c.6,0,.9.4,1.3.5,0,0,.2,0,.2,0l-.5-1.2h-6.6Z"/>
        <path class="cls-3" d="m248.7,327.2h0c0,.3.9.4.9.8v6.8h2.9c.7,0,1.3,0,1.8-.2,1.4-.4,2.2-1.2,2.2-2.1,0-1.3-1.2-1.8-2.6-1.9h0c1-.3,1.8-.7,1.8-1.7,0-1.4-1.4-1.8-3.3-1.8h-3.7Zm3.6.7c.3,0,.6,0,.9,0,.6.2,1.1.5,1.1,1.2s-.5,1.1-1.3,1.2c-.3,0-.7,0-1.2,0h-.7v-2.6h1.2Zm.1,3.3c.4,0,.7,0,1,0,1,.2,1.5.7,1.5,1.5s-.6,1.2-1.6,1.4c-.4,0-.9,0-1.4,0h-.9v-3h1.4Z"/>
        <path class="cls-3" d="m236.9,336.9c0,0,0,.1-.2.2-.8.4-2.3,1.1-4.3,1.1s-3.5-.6-5.7-2l-1.6-1c-.2,0-.4,0-.6,0-3.1,0-5.4-2.4-5.2-5.1.2-2.7,2.8-4.9,5.9-4.8,3.1,0,5.4,2.4,5.2,5.1-.1,2-1.6,3.7-3.5,4.4l1.5.8c2.8,1.6,4.6,1.7,5.5,1.7s1.7-.1,2.6-.5c0,0,.1,0,.2,0s.1,0,.1.1Zm-12.2-10.6c-2.2,0-3.9,1.8-3.8,3.9.1,2.2,2,3.9,4.1,3.9,2.2,0,3.9-1.8,3.8-3.9-.1-2.2-2-3.9-4.1-3.9Z"/>
      </g>
      <g>
        <path class="cls-3" d="m256.4,313c-1-1.4-1.3-3.3.9-3.9l3.6-.7c-.8.8-1.1,2.1,0,3.9-2.1-1-4.7-.9-4.5.8Z"/>
        <path class="cls-3" d="m267.3,311c-1.3-1.9-.7-3.4,0-4.1l-4.8,1c-2.1.9-1.6,2.9-.8,4-.1-1.5,2.1-2.2,5.6-.9Z"/>
        <path class="cls-3" d="m263.2,318.7c-4.2-3.5-2.6-5.8-1.2-6.5l5.3-1c-2.4,2.4-1.5,5.3-.3,6.7-2.1-1.2-5-1.3-3.8.8Z"/>
        <path class="cls-3" d="m258.7,317.4c-.7,0-1.1.5-1,1.1-1.7-1.2-2.7-3.3-1.4-5.2l4.5-.8c-1.1,1-1.7,3.4,1.6,6.2-1.1-.3-2.3-1.3-3.8-1.2Z"/>
        <path class="cls-3" d="m271.4,310.6c-2.6.6-7.1,2.7-3.7,7-.6-1.7,1.2-1.9,3.8-1.5-1.6-1-2.7-3.1,0-5.5Z"/>
        <path class="cls-3" d="m265.8,319.2v-.4c.1,0,1,0,1,0l.3-.7,2.6-.8.2-.6,2.2-.7c.4.9.1,1.8-.3,2.5-.3.4-.6.8-.9,1.1-.7.8-.5,2.2.2,3.5h-12.3c-1-1-1.4-1.9-1.9-2.8-.5-1-1-1.4-2.5-2.4-.3-.2-.2-.6.2-.3l1.1.6c2.9,1.1,6.7,1.1,10,1Z"/>
        <path class="cls-3" d="m251.9,314.7h.5c-.8-.5-1.4-1-1.6-1.1-.3-.2-.3,0-.2.2l1.2,1Z"/>
        <path class="cls-3" d="m254.2,315.9s-.2.4,0,.6l1.4,1.2,1.5.4-2.9-2.2Z"/>
        <path class="cls-3" d="m258.5,305.5c0-.2.1-.2.1,0,0,.2.2,2.5.2,2.7,0,.2,0,.2,0,.3,0,0-.2,0-.2,0,0,0-.1,0-.1-.1,0-.1,0-2.4,0-2.8Z"/>
        <path class="cls-3" d="m264.7,303.6c0,0,0-.2,0-.2,0,0,0,0,0,.1,0,.2.2,3.4.2,3.5,0,0,0,.1,0,.2,0,0-.1,0-.2,0,0,0-.1,0-.1-.1s0-3.4,0-3.5Z"/>
        <path class="cls-3" d="m268.9,307.4c0-.1.1-.2.1,0,0,.1.2,3.4.2,3.6s0,.2,0,.2c0,0-.1,0-.2,0,0,0-.1,0-.1,0s0-2.9,0-3.8Z"/>
        <path class="cls-3" d="m267,308.6c0,0,0-.1,0,0,.1,0,.4,0,.6,0,.2-.1.4-.3.6-.3.3,0,.4,0,.3.1-.2.3-.2.6,0,.9,0,0,0,.1,0,.1-.6,0-.9-.2-1.4,0-.1,0-.1,0,0,0,.1-.2.2-.3.4-.4,0,0,0,0,0,0-.2,0-.4-.2-.5-.3Z"/>
        <path class="cls-3" d="m264.5,304.5c-.4.2-.7.2-.9,0,0,0-.2,0-.3-.1-.3-.1-.5,0-.7.1-.3.2-.5.3-.8.4-.2,0-.4.1-.5.2-.2.1-.3.3-.4.5,0,.1,0,.1,0,.1.3-.1.4-.2.9,0,.5.1.8.2,1.3,0,.5-.2.7-.2,1,0,.1,0,.3.2.3.1,0,0,0-.2-.1-.2-.1-.4,0-.7.2-.8,0,0,0-.1,0,0Z"/>
        <path class="cls-3" d="m258.2,306.8c-.1-.2,0-.5,0-.7,0-.1-.2-.2-.5,0-.3.1-.5.3-.9.3-.3,0-.6,0-.8,0,0,0,0,0,0,.1,0,0,.2.2.3.2,0,0,0,0,0,.2,0,0-.2.1-.3.2,0,0,0,0,0,.1.2.1.6.2,1.1,0,.2,0,.4-.2.7-.2.3,0,.4,0,.3-.1Z"/>
        <path class="cls-3" d="m272.6,314.2c0,.2-.2.4-.4.4s-.4-.2-.4-.4.2-.4.4-.4.4.2.4.4Z"/>
        <path class="cls-3" d="m272.7,314.5c-.1.2-.3.3-.5.3s-.4-.1-.5-.3c-.2.2-.2.2-.2.2l.2.2.2,1h.7l.2-1,.2-.2s0,0-.2-.2Z"/>
        <path class="cls-3" d="m271.1,320.1c-.3.7-.2,1.7.4,2.9v.2h.8s0-.5-.6-1.4c-.6-.8-.7-1.5-.7-1.7Z"/>
        <path class="cls-3" d="m254.9,318.8c0,0,0,0,0,0,0,0-.4-.2-.6-.3-2.6,2.3-5.7-1.7-3.3-3.5h3.3c-1.1,1.8-.4,3.1.6,3.8Zm-.7-.3c-1.2-.7-2.3-.7-2.5-.2-.3.8,1.6,1.1,2.5.2Z"/>
      </g>
    </g>
  </g>
</svg>